<svg width="233" height="472" viewBox="0 0 233 472" fill="none" xmlns="http://www.w3.org/2000/svg">
<path d="M223.829 150.277C223.829 149.693 224.303 149.219 224.888 149.219H231.237C231.822 149.219 232.296 149.693 232.296 150.277V205.308C232.296 205.893 231.822 206.367 231.237 206.367H224.888C224.303 206.367 223.829 205.893 223.829 205.308V150.277Z" fill="url(#paint0_linear_0_203)"/>
<path d="M223.829 152.605C223.829 152.902 223.829 153.05 223.887 153.163C223.938 153.262 224.019 153.343 224.118 153.394C224.231 153.452 224.38 153.452 224.676 153.452H231.767V150.594C231.767 150.298 231.767 150.15 231.709 150.037C231.658 149.937 231.577 149.856 231.478 149.805C231.364 149.748 231.216 149.748 230.92 149.748H224.676C224.38 149.748 224.231 149.748 224.118 149.805C224.019 149.856 223.938 149.937 223.887 150.037C223.829 150.15 223.829 150.298 223.829 150.594V152.605Z" fill="url(#paint1_linear_0_203)"/>
<path d="M223.829 202.98C223.829 202.684 223.829 202.535 223.887 202.422C223.938 202.323 224.019 202.242 224.118 202.191C224.231 202.133 224.38 202.133 224.676 202.133H231.767V204.991C231.767 205.287 231.767 205.435 231.709 205.548C231.658 205.648 231.577 205.729 231.478 205.78C231.364 205.837 231.216 205.837 230.92 205.837H224.676C224.38 205.837 224.231 205.837 224.118 205.78C224.019 205.729 223.938 205.648 223.887 205.548C223.829 205.435 223.829 205.287 223.829 204.991V202.98Z" fill="url(#paint2_linear_0_203)"/>
<path fill-rule="evenodd" clip-rule="evenodd" d="M223.945 205.789C223.829 205.563 223.829 205.266 223.829 204.673V150.912C223.829 150.319 223.829 150.023 223.945 149.797C224.046 149.598 224.208 149.436 224.407 149.334C224.634 149.219 224.93 149.219 225.523 149.219H230.602C231.195 149.219 231.491 149.219 231.718 149.334C231.917 149.436 232.079 149.598 232.18 149.797C232.296 150.023 232.296 150.319 232.296 150.912V204.673C232.296 205.266 232.296 205.563 232.18 205.789C232.079 205.988 231.917 206.15 231.718 206.251C231.491 206.367 231.195 206.367 230.602 206.367H225.523C224.93 206.367 224.634 206.367 224.407 206.251C224.208 206.15 224.046 205.988 223.945 205.789ZM224.416 205.549C224.358 205.435 224.358 205.287 224.358 204.991V150.595C224.358 150.298 224.358 150.15 224.416 150.037C224.467 149.937 224.548 149.856 224.647 149.806C224.761 149.748 224.909 149.748 225.205 149.748H230.92C231.216 149.748 231.364 149.748 231.478 149.806C231.577 149.856 231.658 149.937 231.709 150.037C231.767 150.15 231.767 150.298 231.767 150.595V204.991C231.767 205.287 231.767 205.435 231.709 205.549C231.658 205.648 231.577 205.729 231.478 205.78C231.364 205.838 231.216 205.838 230.92 205.838H225.205C224.909 205.838 224.761 205.838 224.647 205.78C224.548 205.729 224.467 205.648 224.416 205.549Z" fill="#353638"/>
<path d="M0 170.385C0 169.801 0.473815 169.327 1.05829 169.327H7.40806C7.99254 169.327 8.46636 169.801 8.46636 170.385V204.251C8.46636 204.835 7.99254 205.309 7.40806 205.309H1.05829C0.473815 205.309 0 204.835 0 204.251V170.385Z" fill="url(#paint3_linear_0_203)"/>
<path d="M0 172.714C0 173.01 0 173.158 0.0576736 173.271C0.108405 173.371 0.189354 173.452 0.288919 173.503C0.40211 173.56 0.550285 173.56 0.846636 173.56H7.93721V170.703C7.93721 170.407 7.93721 170.258 7.87954 170.145C7.8288 170.046 7.74785 169.965 7.64829 169.914C7.5351 169.856 7.38692 169.856 7.09057 169.856H0.846636C0.550286 169.856 0.40211 169.856 0.288919 169.914C0.189354 169.965 0.108405 170.046 0.0576736 170.145C0 170.258 0 170.407 0 170.703L0 172.714Z" fill="url(#paint4_linear_0_203)"/>
<path d="M0 201.922C0 201.626 0 201.478 0.0576736 201.364C0.108405 201.265 0.189354 201.184 0.288919 201.133C0.40211 201.075 0.550285 201.075 0.846636 201.075H7.93721V203.933C7.93721 204.229 7.93721 204.377 7.87954 204.491C7.8288 204.59 7.74785 204.671 7.64829 204.722C7.5351 204.78 7.38692 204.78 7.09057 204.78H0.846636C0.550286 204.78 0.40211 204.78 0.288919 204.722C0.189354 204.671 0.108405 204.59 0.0576736 204.491C0 204.377 0 204.229 0 203.933L0 201.922Z" fill="url(#paint5_linear_0_203)"/>
<path fill-rule="evenodd" clip-rule="evenodd" d="M0.115347 204.731C0 204.505 0 204.208 0 203.616V171.02C0 170.428 0 170.131 0.115347 169.905C0.216809 169.706 0.378708 169.544 0.577839 169.442C0.804221 169.327 1.10057 169.327 1.69327 169.327H6.77308C7.36579 169.327 7.66214 169.327 7.88852 169.442C8.08765 169.544 8.24955 169.706 8.35101 169.905C8.46636 170.131 8.46636 170.428 8.46636 171.02V203.616C8.46636 204.208 8.46636 204.505 8.35101 204.731C8.24955 204.93 8.08765 205.092 7.88852 205.194C7.66214 205.309 7.36579 205.309 6.77308 205.309H1.69327C1.10057 205.309 0.804221 205.309 0.577839 205.194C0.378708 205.092 0.216809 204.93 0.115347 204.731ZM0.586821 204.491C0.529147 204.378 0.529147 204.23 0.529147 203.933V170.703C0.529147 170.406 0.529147 170.258 0.586821 170.145C0.637552 170.045 0.718501 169.965 0.818067 169.914C0.931257 169.856 1.07943 169.856 1.37578 169.856H7.09057C7.38692 169.856 7.5351 169.856 7.64829 169.914C7.74785 169.965 7.8288 170.045 7.87954 170.145C7.93721 170.258 7.93721 170.406 7.93721 170.703V203.933C7.93721 204.23 7.93721 204.378 7.87954 204.491C7.8288 204.59 7.74785 204.671 7.64829 204.722C7.5351 204.78 7.38692 204.78 7.09057 204.78H1.37578C1.07943 204.78 0.931257 204.78 0.818067 204.722C0.718501 204.671 0.637552 204.59 0.586821 204.491Z" fill="#353638"/>
<path d="M6.11056e-05 125.938C6.11056e-05 125.353 0.473876 124.879 1.05836 124.879H7.40812C7.9926 124.879 8.46642 125.353 8.46642 125.938V159.803C8.46642 160.387 7.9926 160.861 7.40812 160.861H1.05836C0.473876 160.861 6.11056e-05 160.387 6.11056e-05 159.803V125.938Z" fill="url(#paint6_linear_0_203)"/>
<path d="M6.11056e-05 128.266C6.11056e-05 128.562 6.11056e-05 128.711 0.0577347 128.824C0.108466 128.923 0.189415 129.004 0.288981 129.055C0.402171 129.113 0.550346 129.113 0.846697 129.113H7.93727V126.255C7.93727 125.959 7.93727 125.811 7.8796 125.698C7.82887 125.598 7.74792 125.517 7.64835 125.466C7.53516 125.409 7.38698 125.409 7.09063 125.409H0.846697C0.550347 125.409 0.402171 125.409 0.288981 125.466C0.189415 125.517 0.108466 125.598 0.0577347 125.698C6.11056e-05 125.811 6.11056e-05 125.959 6.11056e-05 126.255L6.11056e-05 128.266Z" fill="url(#paint7_linear_0_203)"/>
<path d="M6.11056e-05 157.474C6.11056e-05 157.178 6.11056e-05 157.03 0.0577347 156.917C0.108466 156.817 0.189415 156.736 0.288981 156.685C0.402171 156.628 0.550346 156.628 0.846697 156.628H7.93727V159.485C7.93727 159.782 7.93727 159.93 7.8796 160.043C7.82887 160.142 7.74792 160.223 7.64835 160.274C7.53516 160.332 7.38698 160.332 7.09063 160.332H0.846697C0.550347 160.332 0.402171 160.332 0.288981 160.274C0.189415 160.223 0.108466 160.142 0.0577347 160.043C6.11056e-05 159.93 6.11056e-05 159.782 6.11056e-05 159.485L6.11056e-05 157.474Z" fill="url(#paint8_linear_0_203)"/>
<path fill-rule="evenodd" clip-rule="evenodd" d="M0.115408 160.283C6.11056e-05 160.057 6.11056e-05 159.761 6.11056e-05 159.168V126.573C6.11056e-05 125.98 6.11056e-05 125.683 0.115408 125.457C0.216871 125.258 0.378769 125.096 0.5779 124.995C0.804282 124.879 1.10063 124.879 1.69333 124.879H6.77315C7.36585 124.879 7.6622 124.879 7.88858 124.995C8.08771 125.096 8.24961 125.258 8.35107 125.457C8.46642 125.683 8.46642 125.98 8.46642 126.573V159.168C8.46642 159.761 8.46642 160.057 8.35107 160.283C8.24961 160.483 8.08771 160.644 7.88858 160.746C7.6622 160.861 7.36585 160.861 6.77315 160.861H1.69333C1.10063 160.861 0.804282 160.861 0.5779 160.746C0.378769 160.644 0.216871 160.483 0.115408 160.283ZM0.586882 160.043C0.529208 159.93 0.529208 159.782 0.529208 159.485V126.255C0.529208 125.959 0.529208 125.811 0.586882 125.697C0.637613 125.598 0.718562 125.517 0.818128 125.466C0.931319 125.408 1.07949 125.408 1.37584 125.408H7.09063C7.38698 125.408 7.53516 125.408 7.64835 125.466C7.74792 125.517 7.82887 125.598 7.8796 125.697C7.93727 125.811 7.93727 125.959 7.93727 126.255V159.485C7.93727 159.782 7.93727 159.93 7.8796 160.043C7.82887 160.143 7.74792 160.224 7.64835 160.274C7.53516 160.332 7.38698 160.332 7.09063 160.332H1.37584C1.07949 160.332 0.931319 160.332 0.818128 160.274C0.718562 160.224 0.637613 160.143 0.586882 160.043Z" fill="#353638"/>
<path d="M0 92.0714C0 91.4869 0.473815 91.0131 1.05829 91.0131H7.40806C7.99254 91.0131 8.46636 91.4869 8.46636 92.0714V109.004C8.46636 109.589 7.99254 110.062 7.40806 110.062H1.05829C0.473815 110.062 0 109.589 0 109.004V92.0714Z" fill="url(#paint9_linear_0_203)"/>
<path d="M0 94.3998C0 94.6962 0 94.8444 0.0576736 94.9576C0.108405 95.0571 0.189354 95.1381 0.288919 95.1888C0.40211 95.2465 0.550285 95.2465 0.846636 95.2465H7.93721V92.3891C7.93721 92.0927 7.93721 91.9446 7.87954 91.8314C7.8288 91.7318 7.74785 91.6509 7.64829 91.6001C7.5351 91.5425 7.38692 91.5425 7.09057 91.5425H0.846636C0.550286 91.5425 0.40211 91.5425 0.288919 91.6001C0.189354 91.6509 0.108405 91.7318 0.0576736 91.8314C0 91.9446 0 92.0927 0 92.3891L0 94.3998Z" fill="url(#paint10_linear_0_203)"/>
<path d="M0 107.206C0 106.909 0 106.761 0.0576736 106.648C0.108405 106.548 0.189354 106.467 0.288919 106.417C0.40211 106.359 0.550285 106.359 0.846636 106.359H7.93721V109.216C7.93721 109.513 7.93721 109.661 7.87954 109.774C7.8288 109.874 7.74785 109.955 7.64829 110.005C7.5351 110.063 7.38692 110.063 7.09057 110.063H1.69327C1.10057 110.063 0.80422 110.063 0.577839 109.948C0.378708 109.846 0.216809 109.684 0.115347 109.485C0 109.259 0 108.962 0 108.37L0 107.206Z" fill="url(#paint11_linear_0_203)"/>
<path fill-rule="evenodd" clip-rule="evenodd" d="M0.115347 109.485C0 109.258 0 108.962 0 108.369V92.7064C0 92.1137 0 91.8173 0.115347 91.5909C0.216809 91.3918 0.378708 91.2299 0.577839 91.1284C0.804221 91.0131 1.10057 91.0131 1.69327 91.0131H6.77308C7.36579 91.0131 7.66214 91.0131 7.88852 91.1284C8.08765 91.2299 8.24955 91.3918 8.35101 91.5909C8.46636 91.8173 8.46636 92.1137 8.46636 92.7064V108.369C8.46636 108.962 8.46636 109.258 8.35101 109.485C8.24955 109.684 8.08765 109.846 7.88852 109.947C7.66214 110.062 7.36579 110.062 6.77308 110.062H1.69327C1.10057 110.062 0.804221 110.062 0.577839 109.947C0.378708 109.846 0.216809 109.684 0.115347 109.485ZM0.586821 109.244C0.529147 109.131 0.529147 108.983 0.529147 108.687V92.3889C0.529147 92.0925 0.529147 91.9443 0.586821 91.8312C0.637552 91.7316 0.718501 91.6506 0.818067 91.5999C0.931257 91.5422 1.07943 91.5422 1.37578 91.5422H7.09057C7.38692 91.5422 7.5351 91.5422 7.64829 91.5999C7.74785 91.6506 7.8288 91.7316 7.87954 91.8312C7.93721 91.9443 7.93721 92.0925 7.93721 92.3889V108.687C7.93721 108.983 7.93721 109.131 7.87954 109.244C7.8288 109.344 7.74785 109.425 7.64829 109.476C7.5351 109.533 7.38692 109.533 7.09057 109.533H1.37578C1.07943 109.533 0.931257 109.533 0.818067 109.476C0.718501 109.425 0.637552 109.344 0.586821 109.244Z" fill="#353638"/>
<path fill-rule="evenodd" clip-rule="evenodd" d="M9.38632 24.2177C5.2915 32.2543 5.2915 42.7747 5.2915 63.8156V408.185C5.2915 429.226 5.2915 439.746 9.38632 447.782C12.9882 454.852 18.7356 460.599 25.8048 464.201C33.8413 468.296 44.3618 468.296 65.4026 468.296H166.893C187.934 468.296 198.454 468.296 206.491 464.201C213.56 460.599 219.307 454.852 222.909 447.782C227.004 439.746 227.004 429.226 227.004 408.185V63.8156C227.004 42.7747 227.004 32.2543 222.909 24.2177C219.307 17.1486 213.56 11.4012 206.491 7.79929C198.454 3.70446 187.934 3.70446 166.893 3.70446H65.4026C44.3618 3.70446 33.8413 3.70446 25.8048 7.79929C18.7356 11.4012 12.9882 17.1486 9.38632 24.2177ZM15.4001 26.7629C12.1704 33.1016 12.1704 41.3994 12.1704 57.995V414.005C12.1704 430.601 12.1704 438.899 15.4001 445.237C18.2411 450.813 22.7742 455.346 28.3499 458.187C34.6886 461.417 42.9864 461.417 59.582 461.417H172.714C189.309 461.417 197.607 461.417 203.946 458.187C209.521 455.346 214.055 450.813 216.896 445.237C220.125 438.899 220.125 430.601 220.125 414.005V57.995C220.125 41.3994 220.125 33.1016 216.896 26.7629C214.055 21.1872 209.521 16.654 203.946 13.8131C197.607 10.5834 189.309 10.5834 172.714 10.5834H59.582C42.9864 10.5834 34.6886 10.5834 28.3499 13.8131C22.7742 16.654 18.2411 21.1872 15.4001 26.7629Z" fill="black"/>
<path fill-rule="evenodd" clip-rule="evenodd" d="M8.79948 23.3989C4.76232 31.3223 4.76232 41.6945 4.76232 62.439V409.56C4.76232 430.304 4.76232 440.676 8.79948 448.6C12.3507 455.569 18.0171 461.236 24.9867 464.787C32.91 468.824 43.2823 468.824 64.0268 468.824H168.269C189.013 468.824 199.386 468.824 207.309 464.787C214.279 461.236 219.945 455.569 223.496 448.6C227.533 440.676 227.533 430.304 227.533 409.56V62.439C227.533 41.6945 227.533 31.3223 223.496 23.3989C219.945 16.4293 214.279 10.7629 207.309 7.21171C199.386 3.17456 189.013 3.17456 168.269 3.17456H64.0268C43.2823 3.17456 32.91 3.17456 24.9867 7.21171C18.0171 10.7629 12.3507 16.4293 8.79948 23.3989ZM9.38632 24.217C5.2915 32.2535 5.2915 42.774 5.2915 63.8148V408.184C5.2915 429.225 5.2915 439.745 9.38632 447.782C12.9882 454.851 18.7356 460.598 25.8048 464.2C33.8413 468.295 44.3618 468.295 65.4026 468.295H166.893C187.934 468.295 198.454 468.295 206.491 464.2C213.56 460.598 219.307 454.851 222.909 447.782C227.004 439.745 227.004 429.225 227.004 408.184V63.8148C227.004 42.774 227.004 32.2535 222.909 24.217C219.307 17.1478 213.56 11.4004 206.491 7.79853C198.454 3.7037 187.934 3.7037 166.893 3.7037H65.4026C44.3618 3.7037 33.8413 3.7037 25.8048 7.79853C18.7356 11.4004 12.9882 17.1478 9.38632 24.217Z" fill="#272624"/>
<path fill-rule="evenodd" clip-rule="evenodd" d="M7.85654 22.9189C3.70404 31.0686 3.70404 41.7372 3.70404 63.0745V408.925C3.70404 430.262 3.70404 440.931 7.85654 449.081C11.5092 456.249 17.3375 462.078 24.5062 465.73C32.656 469.883 43.3246 469.883 64.6618 469.883H167.634C188.971 469.883 199.64 469.883 207.789 465.73C214.958 462.078 220.786 456.249 224.439 449.081C228.592 440.931 228.592 430.262 228.592 408.925V63.0745C228.592 41.7372 228.592 31.0686 224.439 22.9189C220.786 15.7502 214.958 9.92184 207.789 6.2692C199.64 2.1167 188.971 2.1167 167.634 2.1167H64.6618C43.3246 2.1167 32.656 2.1167 24.5062 6.2692C17.3375 9.92184 11.5092 15.7502 7.85654 22.9189ZM8.79948 23.3994C4.76233 31.3227 4.76233 41.695 4.76233 62.4395V409.56C4.76233 430.305 4.76233 440.677 8.79948 448.6C12.3507 455.57 18.0171 461.236 24.9867 464.787C32.91 468.825 43.2823 468.825 64.0268 468.825H168.269C189.013 468.825 199.386 468.825 207.309 464.787C214.279 461.236 219.945 455.57 223.496 448.6C227.533 440.677 227.533 430.305 227.533 409.56V62.4395C227.533 41.695 227.533 31.3227 223.496 23.3994C219.945 16.4298 214.279 10.7633 207.309 7.21214C199.386 3.17499 189.013 3.17499 168.269 3.17499H64.0268C43.2823 3.17499 32.91 3.17499 24.9867 7.21214C18.0171 10.7633 12.3507 16.4298 8.79948 23.3994Z" fill="black"/>
<path fill-rule="evenodd" clip-rule="evenodd" d="M6.9136 22.4379C2.64575 30.814 2.64575 41.779 2.64575 63.7089V408.29C2.64575 430.219 2.64575 441.184 6.9136 449.561C10.6677 456.928 16.6579 462.919 24.0258 466.673C32.4019 470.941 43.3669 470.941 65.2968 470.941H166.999C188.929 470.941 199.894 470.941 208.27 466.673C215.638 462.919 221.628 456.928 225.382 449.561C229.65 441.184 229.65 430.219 229.65 408.29V63.7089C229.65 41.779 229.65 30.814 225.382 22.4379C221.628 15.0701 215.638 9.07981 208.27 5.32571C199.894 1.05786 188.929 1.05786 166.999 1.05786H65.2968C43.3669 1.05786 32.4019 1.05786 24.0258 5.32571C16.6579 9.07981 10.6677 15.0701 6.9136 22.4379ZM7.85654 22.9184C3.70404 31.0681 3.70404 41.7367 3.70404 63.0739V408.925C3.70404 430.262 3.70404 440.93 7.85654 449.08C11.5092 456.249 17.3375 462.077 24.5062 465.73C32.656 469.882 43.3246 469.882 64.6618 469.882H167.634C188.971 469.882 199.64 469.882 207.789 465.73C214.958 462.077 220.786 456.249 224.439 449.08C228.592 440.93 228.592 430.262 228.592 408.925V63.0739C228.592 41.7367 228.592 31.0681 224.439 22.9184C220.786 15.7496 214.958 9.9213 207.789 6.26865C199.64 2.11615 188.971 2.11615 167.634 2.11615H64.6618C43.3246 2.11615 32.656 2.11615 24.5062 6.26865C17.3375 9.9213 11.5092 15.7496 7.85654 22.9184Z" fill="#2C2C2C"/>
<path fill-rule="evenodd" clip-rule="evenodd" d="M6.44216 22.1979C2.11664 30.6872 2.11664 41.8003 2.11664 64.0266V407.972C2.11664 430.199 2.11664 441.312 6.44216 449.801C10.247 457.268 16.3182 463.34 23.7856 467.144C32.2749 471.47 43.388 471.47 65.6143 471.47H166.681C188.908 471.47 200.021 471.47 208.51 467.144C215.978 463.34 222.049 457.268 225.854 449.801C230.179 441.312 230.179 430.199 230.179 407.972V64.0266C230.179 41.8003 230.179 30.6872 225.854 22.1979C222.049 14.7305 215.978 8.65928 208.51 4.85445C200.021 0.52893 188.908 0.52893 166.681 0.52893H65.6143C43.388 0.52893 32.2749 0.52893 23.7856 4.85445C16.3182 8.65928 10.247 14.7305 6.44216 22.1979ZM6.91363 22.4381C2.64578 30.8142 2.64578 41.7792 2.64578 63.7091V408.29C2.64578 430.22 2.64578 441.185 6.91363 449.561C10.6677 456.929 16.658 462.919 24.0258 466.673C32.4019 470.941 43.3669 470.941 65.2968 470.941H166.999C188.929 470.941 199.894 470.941 208.27 466.673C215.638 462.919 221.628 456.929 225.382 449.561C229.65 441.185 229.65 430.22 229.65 408.29V63.7091C229.65 41.7792 229.65 30.8142 225.382 22.4381C221.628 15.0703 215.638 9.08003 208.27 5.32592C199.894 1.05808 188.929 1.05808 166.999 1.05808H65.2968C43.3669 1.05808 32.4019 1.05808 24.0258 5.32592C16.658 9.08003 10.6677 15.0703 6.91363 22.4381Z" fill="#85817D"/>
<path fill-rule="evenodd" clip-rule="evenodd" d="M5.97066 21.9579C1.58746 30.5604 1.58746 41.8217 1.58746 64.3443V407.655C1.58746 430.178 1.58746 441.439 5.97066 450.041C9.82622 457.608 15.9784 463.761 23.5453 467.616C32.1478 471.999 43.4091 471.999 65.9318 471.999H166.364C188.887 471.999 200.148 471.999 208.75 467.616C216.317 463.761 222.469 457.608 226.325 450.041C230.708 441.439 230.708 430.178 230.708 407.655V64.3443C230.708 41.8217 230.708 30.5604 226.325 21.9579C222.469 14.3909 216.317 8.23876 208.75 4.38319C200.148 0 188.887 0 166.364 0H65.9318C43.4091 0 32.1478 0 23.5453 4.38319C15.9784 8.23876 9.82622 14.3909 5.97066 21.9579ZM6.44213 22.1981C2.11661 30.6874 2.11661 41.8006 2.11661 64.0268V407.973C2.11661 430.199 2.11661 441.312 6.44213 449.801C10.247 457.269 16.3182 463.34 23.7856 467.145C32.2749 471.47 43.388 471.47 65.6143 471.47H166.681C188.908 471.47 200.021 471.47 208.51 467.145C215.978 463.34 222.049 457.269 225.854 449.801C230.179 441.312 230.179 430.199 230.179 407.973V64.0268C230.179 41.8005 230.179 30.6874 225.854 22.1981C222.049 14.7307 215.978 8.6595 208.51 4.85467C200.021 0.529147 188.908 0.529147 166.681 0.529147H65.6143C43.388 0.529147 32.2749 0.529147 23.7856 4.85467C16.3182 8.6595 10.247 14.7307 6.44213 22.1981Z" fill="#4F4B47"/>
<rect opacity="0.5" x="176.735" width="3.70403" height="3.70403" fill="black"/>
<rect opacity="0.5" x="1.58746" y="49.7399" width="3.70403" height="3.17488" fill="black"/>
<rect opacity="0.5" x="1.58746" y="419.085" width="3.70403" height="3.17488" fill="black"/>
<rect opacity="0.5" x="227.004" y="419.085" width="3.70403" height="3.17488" fill="black"/>
<rect opacity="0.5" x="49.7399" y="468.296" width="3.17488" height="3.70403" fill="black"/>
<path opacity="0.5" d="M92.8654 3.96806H139.43V4.23263C139.43 4.60744 139.43 4.87263 139.413 5.07995C139.396 5.28418 139.365 5.40884 139.315 5.50681C139.214 5.70594 139.052 5.86784 138.852 5.9693C138.755 6.01922 138.63 6.05082 138.426 6.06751C138.218 6.08444 137.953 6.08465 137.578 6.08465H94.7174C94.3426 6.08465 94.0774 6.08444 93.8701 6.06751C93.6658 6.05082 93.5412 6.01922 93.4432 5.9693L93.3231 6.20504L93.4432 5.9693C93.2441 5.86784 93.0822 5.70594 92.9807 5.50681C92.9308 5.40884 92.8992 5.28418 92.8825 5.07995C92.8656 4.87263 92.8654 4.60744 92.8654 4.23263V3.96806Z" fill="#0F1013" stroke="url(#paint12_linear_0_203)" stroke-width="0.528537"/>
<path opacity="0.8" fill-rule="evenodd" clip-rule="evenodd" d="M93.6591 4.76156C93.6591 4.46932 93.896 4.23242 94.1882 4.23242H138.107C138.4 4.23242 138.637 4.46932 138.637 4.76156C138.637 5.0538 138.4 5.29071 138.107 5.29071H94.1882C93.896 5.29071 93.6591 5.0538 93.6591 4.76156Z" fill="#1F2224"/>
<defs>
<linearGradient id="paint0_linear_0_203" x1="228.062" y1="149.219" x2="228.062" y2="206.367" gradientUnits="userSpaceOnUse">
<stop stop-color="#4E4A46"/>
<stop offset="0.484375" stop-color="#736F6B"/>
<stop offset="1" stop-color="#4E4A46"/>
</linearGradient>
<linearGradient id="paint1_linear_0_203" x1="227.798" y1="153.081" x2="227.798" y2="150.118" gradientUnits="userSpaceOnUse">
<stop stop-color="#3C3631"/>
<stop offset="0.249443" stop-color="#050000"/>
<stop offset="0.475668" stop-color="#C1BDB9"/>
<stop offset="0.740898" stop-color="#C1BDB9"/>
<stop offset="1" stop-color="#736F6B"/>
</linearGradient>
<linearGradient id="paint2_linear_0_203" x1="227.798" y1="202.504" x2="227.798" y2="205.467" gradientUnits="userSpaceOnUse">
<stop stop-color="#3C3631"/>
<stop offset="0.249443" stop-color="#050000"/>
<stop offset="0.475668" stop-color="#C1BDB9"/>
<stop offset="0.740898" stop-color="#C1BDB9"/>
<stop offset="1" stop-color="#736F6B"/>
</linearGradient>
<linearGradient id="paint3_linear_0_203" x1="4.23318" y1="169.327" x2="4.23318" y2="205.309" gradientUnits="userSpaceOnUse">
<stop stop-color="#4E4A46"/>
<stop offset="0.484375" stop-color="#736F6B"/>
<stop offset="1" stop-color="#4E4A46"/>
</linearGradient>
<linearGradient id="paint4_linear_0_203" x1="3.9686" y1="173.19" x2="3.9686" y2="170.227" gradientUnits="userSpaceOnUse">
<stop stop-color="#3C3631"/>
<stop offset="0.249443" stop-color="#050000"/>
<stop offset="0.475668" stop-color="#C1BDB9"/>
<stop offset="0.740898" stop-color="#C1BDB9"/>
<stop offset="1" stop-color="#736F6B"/>
</linearGradient>
<linearGradient id="paint5_linear_0_203" x1="3.9686" y1="201.446" x2="3.9686" y2="204.409" gradientUnits="userSpaceOnUse">
<stop stop-color="#3C3631"/>
<stop offset="0.249443" stop-color="#050000"/>
<stop offset="0.475668" stop-color="#C1BDB9"/>
<stop offset="0.740898" stop-color="#C1BDB9"/>
<stop offset="1" stop-color="#736F6B"/>
</linearGradient>
<linearGradient id="paint6_linear_0_203" x1="4.23324" y1="124.879" x2="4.23324" y2="160.861" gradientUnits="userSpaceOnUse">
<stop stop-color="#4E4A46"/>
<stop offset="0.484375" stop-color="#736F6B"/>
<stop offset="1" stop-color="#4E4A46"/>
</linearGradient>
<linearGradient id="paint7_linear_0_203" x1="3.96867" y1="128.742" x2="3.96867" y2="125.779" gradientUnits="userSpaceOnUse">
<stop stop-color="#3C3631"/>
<stop offset="0.249443" stop-color="#050000"/>
<stop offset="0.475668" stop-color="#C1BDB9"/>
<stop offset="0.740898" stop-color="#C1BDB9"/>
<stop offset="1" stop-color="#736F6B"/>
</linearGradient>
<linearGradient id="paint8_linear_0_203" x1="3.96867" y1="156.998" x2="3.96867" y2="159.961" gradientUnits="userSpaceOnUse">
<stop stop-color="#3C3631"/>
<stop offset="0.249443" stop-color="#050000"/>
<stop offset="0.475668" stop-color="#C1BDB9"/>
<stop offset="0.740898" stop-color="#C1BDB9"/>
<stop offset="1" stop-color="#736F6B"/>
</linearGradient>
<linearGradient id="paint9_linear_0_203" x1="4.23318" y1="91.0131" x2="4.23318" y2="110.062" gradientUnits="userSpaceOnUse">
<stop stop-color="#4E4A46"/>
<stop offset="0.484375" stop-color="#736F6B"/>
<stop offset="1" stop-color="#4E4A46"/>
</linearGradient>
<linearGradient id="paint10_linear_0_203" x1="3.9686" y1="94.8761" x2="3.9686" y2="91.9129" gradientUnits="userSpaceOnUse">
<stop stop-color="#3C3631"/>
<stop offset="0.249443" stop-color="#050000"/>
<stop offset="0.475668" stop-color="#C1BDB9"/>
<stop offset="0.740898" stop-color="#C1BDB9"/>
<stop offset="1" stop-color="#736F6B"/>
</linearGradient>
<linearGradient id="paint11_linear_0_203" x1="3.9686" y1="106.729" x2="3.9686" y2="109.693" gradientUnits="userSpaceOnUse">
<stop stop-color="#3C3631"/>
<stop offset="0.249443" stop-color="#050000"/>
<stop offset="0.475668" stop-color="#C1BDB9"/>
<stop offset="0.740898" stop-color="#C1BDB9"/>
<stop offset="1" stop-color="#736F6B"/>
</linearGradient>
<linearGradient id="paint12_linear_0_203" x1="92.6008" y1="3.70349" x2="92.6008" y2="6.34922" gradientUnits="userSpaceOnUse">
<stop stop-color="#101112"/>
<stop offset="1" stop-color="#232425"/>
</linearGradient>
</defs>
</svg>
