<svg width="233" height="472" viewBox="0 0 233 472" fill="none" xmlns="http://www.w3.org/2000/svg">
<path d="M223.83 150.277C223.83 149.693 224.304 149.219 224.888 149.219H231.238C231.822 149.219 232.296 149.693 232.296 150.277V205.309C232.296 205.893 231.822 206.367 231.238 206.367H224.888C224.304 206.367 223.83 205.893 223.83 205.309V150.277Z" fill="url(#paint0_linear_0_3)"/>
<path d="M223.83 152.606C223.83 152.903 223.83 153.051 223.887 153.164C223.938 153.264 224.019 153.345 224.119 153.395C224.232 153.453 224.38 153.453 224.676 153.453H231.767V150.596C231.767 150.299 231.767 150.151 231.709 150.038C231.659 149.938 231.578 149.857 231.478 149.807C231.365 149.749 231.217 149.749 230.92 149.749H224.676C224.38 149.749 224.232 149.749 224.119 149.807C224.019 149.857 223.938 149.938 223.887 150.038C223.83 150.151 223.83 150.299 223.83 150.596V152.606Z" fill="url(#paint1_linear_0_3)"/>
<path d="M223.83 202.98C223.83 202.684 223.83 202.536 223.887 202.423C223.938 202.323 224.019 202.242 224.119 202.191C224.232 202.134 224.38 202.134 224.676 202.134H231.767V204.991C231.767 205.288 231.767 205.436 231.709 205.549C231.659 205.648 231.578 205.729 231.478 205.78C231.365 205.838 231.217 205.838 230.92 205.838H224.676C224.38 205.838 224.232 205.838 224.119 205.78C224.019 205.729 223.938 205.648 223.887 205.549C223.83 205.436 223.83 205.288 223.83 204.991V202.98Z" fill="url(#paint2_linear_0_3)"/>
<path fill-rule="evenodd" clip-rule="evenodd" d="M223.945 205.789C223.83 205.563 223.83 205.267 223.83 204.674V150.912C223.83 150.32 223.83 150.023 223.945 149.797C224.047 149.598 224.208 149.436 224.408 149.334C224.634 149.219 224.93 149.219 225.523 149.219H230.603C231.196 149.219 231.492 149.219 231.718 149.334C231.917 149.436 232.079 149.598 232.181 149.797C232.296 150.023 232.296 150.32 232.296 150.912V204.674C232.296 205.267 232.296 205.563 232.181 205.789C232.079 205.988 231.917 206.15 231.718 206.252C231.492 206.367 231.196 206.367 230.603 206.367H225.523C224.93 206.367 224.634 206.367 224.408 206.252C224.208 206.15 224.047 205.988 223.945 205.789ZM224.417 205.549C224.359 205.436 224.359 205.288 224.359 204.991V150.595C224.359 150.299 224.359 150.15 224.417 150.037C224.467 149.938 224.548 149.857 224.648 149.806C224.761 149.748 224.909 149.748 225.205 149.748H230.92C231.217 149.748 231.365 149.748 231.478 149.806C231.578 149.857 231.659 149.938 231.709 150.037C231.767 150.15 231.767 150.299 231.767 150.595V204.991C231.767 205.288 231.767 205.436 231.709 205.549C231.659 205.649 231.578 205.73 231.478 205.78C231.365 205.838 231.217 205.838 230.92 205.838H225.205C224.909 205.838 224.761 205.838 224.648 205.78C224.548 205.73 224.467 205.649 224.417 205.549Z" fill="#353638"/>
<path d="M0 170.385C0 169.8 0.473816 169.326 1.0583 169.326H7.40808C7.99256 169.326 8.46637 169.8 8.46637 170.385V204.25C8.46637 204.835 7.99256 205.308 7.40808 205.308H1.0583C0.473816 205.308 0 204.835 0 204.25V170.385Z" fill="url(#paint3_linear_0_3)"/>
<path d="M0 172.713C0 173.009 0 173.158 0.0576737 173.271C0.108405 173.37 0.189354 173.451 0.28892 173.502C0.402111 173.56 0.550287 173.56 0.846637 173.56H7.93723V170.702C7.93723 170.406 7.93723 170.258 7.87955 170.145C7.82882 170.045 7.74787 169.964 7.64831 169.913C7.53512 169.856 7.38694 169.856 7.09059 169.856H0.846637C0.550286 169.856 0.402111 169.856 0.28892 169.913C0.189354 169.964 0.108405 170.045 0.0576737 170.145C0 170.258 0 170.406 0 170.702L0 172.713Z" fill="url(#paint4_linear_0_3)"/>
<path d="M0 201.923C0 201.626 0 201.478 0.0576737 201.365C0.108405 201.265 0.189354 201.184 0.28892 201.134C0.402111 201.076 0.550287 201.076 0.846637 201.076H7.93723V203.933C7.93723 204.23 7.93723 204.378 7.87955 204.491C7.82882 204.591 7.74787 204.672 7.64831 204.722C7.53512 204.78 7.38694 204.78 7.09059 204.78H0.846637C0.550286 204.78 0.402111 204.78 0.28892 204.722C0.189354 204.672 0.108405 204.591 0.0576737 204.491C0 204.378 0 204.23 0 203.933L0 201.923Z" fill="url(#paint5_linear_0_3)"/>
<path fill-rule="evenodd" clip-rule="evenodd" d="M0.115347 204.731C0 204.504 0 204.208 0 203.615V171.02C0 170.427 0 170.131 0.115347 169.904C0.21681 169.705 0.378709 169.543 0.57784 169.442C0.804222 169.326 1.10057 169.326 1.69327 169.326H6.7731C7.3658 169.326 7.66215 169.326 7.88853 169.442C8.08767 169.543 8.24956 169.705 8.35103 169.904C8.46637 170.131 8.46637 170.427 8.46637 171.02V203.615C8.46637 204.208 8.46637 204.504 8.35103 204.731C8.24956 204.93 8.08767 205.092 7.88853 205.193C7.66215 205.308 7.3658 205.308 6.7731 205.308H1.69327C1.10057 205.308 0.804222 205.308 0.57784 205.193C0.378709 205.092 0.21681 204.93 0.115347 204.731ZM0.586822 204.49C0.529148 204.377 0.529148 204.229 0.529148 203.933V170.702C0.529148 170.406 0.529148 170.258 0.586822 170.144C0.637553 170.045 0.718503 169.964 0.818068 169.913C0.931259 169.855 1.07944 169.855 1.37579 169.855H7.09059C7.38694 169.855 7.53512 169.855 7.64831 169.913C7.74787 169.964 7.82882 170.045 7.87955 170.144C7.93723 170.258 7.93723 170.406 7.93723 170.702V203.933C7.93723 204.229 7.93723 204.377 7.87955 204.49C7.82882 204.59 7.74787 204.671 7.64831 204.722C7.53512 204.779 7.38694 204.779 7.09059 204.779H1.37579C1.07943 204.779 0.931259 204.779 0.818068 204.722C0.718503 204.671 0.637553 204.59 0.586822 204.49Z" fill="#353638"/>
<path d="M0 125.937C0 125.352 0.473816 124.879 1.0583 124.879H7.40808C7.99256 124.879 8.46637 125.352 8.46637 125.937V159.802C8.46637 160.387 7.99256 160.861 7.40808 160.861H1.0583C0.473816 160.861 0 160.387 0 159.802V125.937Z" fill="url(#paint6_linear_0_3)"/>
<path d="M0 128.265C0 128.562 0 128.71 0.0576737 128.823C0.108405 128.923 0.189354 129.004 0.28892 129.054C0.402111 129.112 0.550287 129.112 0.846637 129.112H7.93723V126.255C7.93723 125.958 7.93723 125.81 7.87955 125.697C7.82882 125.597 7.74787 125.516 7.64831 125.466C7.53512 125.408 7.38694 125.408 7.09059 125.408H0.846637C0.550286 125.408 0.402111 125.408 0.28892 125.466C0.189354 125.516 0.108405 125.597 0.0576737 125.697C0 125.81 0 125.958 0 126.255L0 128.265Z" fill="url(#paint7_linear_0_3)"/>
<path d="M0 157.475C0 157.178 0 157.03 0.0576737 156.917C0.108405 156.817 0.189354 156.736 0.28892 156.686C0.402111 156.628 0.550287 156.628 0.846637 156.628H7.93723V159.485C7.93723 159.782 7.93723 159.93 7.87955 160.043C7.82882 160.143 7.74787 160.224 7.64831 160.274C7.53512 160.332 7.38694 160.332 7.09059 160.332H0.846637C0.550286 160.332 0.402111 160.332 0.28892 160.274C0.189354 160.224 0.108405 160.143 0.0576737 160.043C0 159.93 0 159.782 0 159.485L0 157.475Z" fill="url(#paint8_linear_0_3)"/>
<path fill-rule="evenodd" clip-rule="evenodd" d="M0.115347 160.283C0 160.056 0 159.76 0 159.167V126.572C0 125.979 0 125.683 0.115347 125.456C0.21681 125.257 0.378709 125.095 0.57784 124.994C0.804222 124.879 1.10057 124.879 1.69327 124.879H6.7731C7.3658 124.879 7.66215 124.879 7.88853 124.994C8.08767 125.095 8.24956 125.257 8.35103 125.456C8.46637 125.683 8.46637 125.979 8.46637 126.572V159.167C8.46637 159.76 8.46637 160.056 8.35103 160.283C8.24956 160.482 8.08767 160.644 7.88853 160.745C7.66215 160.861 7.3658 160.861 6.7731 160.861H1.69327C1.10057 160.861 0.804222 160.861 0.57784 160.745C0.378709 160.644 0.21681 160.482 0.115347 160.283ZM0.586822 160.043C0.529148 159.929 0.529148 159.781 0.529148 159.485V126.254C0.529148 125.958 0.529148 125.81 0.586822 125.697C0.637553 125.597 0.718503 125.516 0.818068 125.465C0.931259 125.408 1.07944 125.408 1.37579 125.408H7.09059C7.38694 125.408 7.53512 125.408 7.64831 125.465C7.74787 125.516 7.82882 125.597 7.87955 125.697C7.93723 125.81 7.93723 125.958 7.93723 126.254V159.485C7.93723 159.781 7.93723 159.929 7.87955 160.043C7.82882 160.142 7.74787 160.223 7.64831 160.274C7.53512 160.331 7.38694 160.331 7.09059 160.331H1.37579C1.07943 160.331 0.931259 160.331 0.818068 160.274C0.718503 160.223 0.637553 160.142 0.586822 160.043Z" fill="#353638"/>
<path d="M0 92.0716C0 91.4871 0.473816 91.0133 1.0583 91.0133H7.40808C7.99256 91.0133 8.46637 91.4871 8.46637 92.0716V109.004C8.46637 109.589 7.99256 110.063 7.40808 110.063H1.0583C0.473816 110.063 0 109.589 0 109.004V92.0716Z" fill="url(#paint9_linear_0_3)"/>
<path d="M0 94.4C0 94.6964 0 94.8446 0.0576737 94.9578C0.108405 95.0573 0.189354 95.1383 0.28892 95.189C0.402111 95.2467 0.550287 95.2467 0.846637 95.2467H7.93723V92.3893C7.93723 92.0929 7.93723 91.9448 7.87955 91.8316C7.82882 91.732 7.74787 91.651 7.64831 91.6003C7.53512 91.5426 7.38694 91.5426 7.09059 91.5426H0.846637C0.550286 91.5426 0.402111 91.5426 0.28892 91.6003C0.189354 91.651 0.108405 91.732 0.0576737 91.8316C0 91.9448 0 92.0929 0 92.3893L0 94.4Z" fill="url(#paint10_linear_0_3)"/>
<path d="M0 107.206C0 106.909 0 106.761 0.0576737 106.648C0.108405 106.548 0.189354 106.468 0.28892 106.417C0.402111 106.359 0.550287 106.359 0.846637 106.359H7.93723V109.217C7.93723 109.513 7.93723 109.661 7.87955 109.774C7.82882 109.874 7.74787 109.955 7.64831 110.005C7.53512 110.063 7.38694 110.063 7.09059 110.063H1.69327C1.10057 110.063 0.804222 110.063 0.57784 109.948C0.378709 109.846 0.21681 109.684 0.115347 109.485C0 109.259 0 108.963 0 108.37L0 107.206Z" fill="url(#paint11_linear_0_3)"/>
<path fill-rule="evenodd" clip-rule="evenodd" d="M0.115347 109.485C0 109.258 0 108.962 0 108.369V92.7066C0 92.1139 0 91.8175 0.115347 91.5911C0.21681 91.392 0.378709 91.2301 0.57784 91.1286C0.804222 91.0133 1.10057 91.0133 1.69327 91.0133H6.7731C7.3658 91.0133 7.66215 91.0133 7.88853 91.1286C8.08767 91.2301 8.24956 91.392 8.35103 91.5911C8.46637 91.8175 8.46637 92.1139 8.46637 92.7066V108.369C8.46637 108.962 8.46637 109.258 8.35103 109.485C8.24956 109.684 8.08767 109.846 7.88853 109.947C7.66215 110.063 7.3658 110.063 6.7731 110.063H1.69327C1.10057 110.063 0.804222 110.063 0.57784 109.947C0.378709 109.846 0.21681 109.684 0.115347 109.485ZM0.586822 109.245C0.529148 109.131 0.529148 108.983 0.529148 108.687V92.3891C0.529148 92.0927 0.529148 91.9445 0.586822 91.8313C0.637553 91.7318 0.718503 91.6508 0.818068 91.6001C0.931259 91.5424 1.07944 91.5424 1.37579 91.5424H7.09059C7.38694 91.5424 7.53512 91.5424 7.64831 91.6001C7.74787 91.6508 7.82882 91.7318 7.87955 91.8313C7.93723 91.9445 7.93723 92.0927 7.93723 92.3891V108.687C7.93723 108.983 7.93723 109.131 7.87955 109.245C7.82882 109.344 7.74787 109.425 7.64831 109.476C7.53512 109.533 7.38694 109.533 7.09059 109.533H1.37579C1.07943 109.533 0.931259 109.533 0.818068 109.476C0.718503 109.425 0.637553 109.344 0.586822 109.245Z" fill="#353638"/>
<path fill-rule="evenodd" clip-rule="evenodd" d="M9.38659 24.2168C5.29175 32.2534 5.29175 42.7738 5.29175 63.8147V408.185C5.29175 429.225 5.29175 439.746 9.38659 447.782C12.9885 454.852 18.7359 460.599 25.8051 464.201C33.8416 468.296 44.3621 468.296 65.403 468.296H166.894C187.935 468.296 198.455 468.296 206.492 464.201C213.561 460.599 219.308 454.852 222.91 447.782C227.005 439.746 227.005 429.225 227.005 408.185V63.8148C227.005 42.7738 227.005 32.2534 222.91 24.2168C219.308 17.1477 213.561 11.4002 206.492 7.79833C198.455 3.70349 187.935 3.70349 166.894 3.70349H65.403C44.3621 3.70349 33.8416 3.70349 25.8051 7.79833C18.7359 11.4002 12.9885 17.1477 9.38659 24.2168ZM15.4004 26.7619C12.1707 33.1006 12.1707 41.3985 12.1707 57.9941V414.005C12.1707 430.601 12.1707 438.899 15.4004 445.237C18.2414 450.813 22.7745 455.346 28.3502 458.187C34.6889 461.417 42.9867 461.417 59.5824 461.417H172.714C189.31 461.417 197.608 461.417 203.946 458.187C209.522 455.346 214.055 450.813 216.896 445.237C220.126 438.899 220.126 430.601 220.126 414.005V57.9941C220.126 41.3985 220.126 33.1006 216.896 26.7619C214.055 21.1863 209.522 16.6531 203.946 13.8122C197.608 10.5824 189.31 10.5824 172.714 10.5824H59.5824C42.9867 10.5824 34.6889 10.5824 28.3502 13.8122C22.7745 16.6531 18.2414 21.1863 15.4004 26.7619Z" fill="black"/>
<path fill-rule="evenodd" clip-rule="evenodd" d="M8.7995 23.3999C4.76233 31.3233 4.76233 41.6956 4.76233 62.4402V409.562C4.76233 430.306 4.76233 440.678 8.7995 448.602C12.3507 455.571 18.0171 461.238 24.9867 464.789C32.9101 468.826 43.2824 468.826 64.027 468.826H168.269C189.014 468.826 199.386 468.826 207.309 464.789C214.279 461.238 219.945 455.571 223.497 448.602C227.534 440.678 227.534 430.306 227.534 409.562V62.4402C227.534 41.6956 227.534 31.3233 223.497 23.3999C219.945 16.4303 214.279 10.7639 207.309 7.2127C199.386 3.17554 189.014 3.17554 168.269 3.17554H64.027C43.2824 3.17554 32.9101 3.17554 24.9867 7.2127C18.0171 10.7639 12.3507 16.4303 8.7995 23.3999ZM9.38634 24.218C5.29151 32.2546 5.29151 42.775 5.29151 63.8159V408.186C5.29151 429.227 5.29151 439.747 9.38634 447.784C12.9883 454.853 18.7357 460.6 25.8048 464.202C33.8414 468.297 44.3619 468.297 65.4028 468.297H166.893C187.934 468.297 198.455 468.297 206.491 464.202C213.561 460.6 219.308 454.853 222.91 447.784C227.005 439.747 227.005 429.227 227.005 408.186V63.8159C227.005 42.775 227.005 32.2546 222.91 24.218C219.308 17.1489 213.561 11.4014 206.491 7.79952C198.455 3.70469 187.934 3.70469 166.893 3.70469H65.4028C44.3619 3.70469 33.8414 3.70469 25.8048 7.79952C18.7357 11.4014 12.9883 17.1489 9.38634 24.218Z" fill="#272624"/>
<path fill-rule="evenodd" clip-rule="evenodd" d="M7.85649 22.918C3.70398 31.0677 3.70398 41.7364 3.70398 63.0736V408.925C3.70398 430.262 3.70398 440.931 7.85649 449.081C11.5091 456.249 17.3375 462.078 24.5062 465.73C32.656 469.883 43.3246 469.883 64.6619 469.883H167.634C188.971 469.883 199.64 469.883 207.79 465.73C214.959 462.078 220.787 456.249 224.44 449.081C228.592 440.931 228.592 430.262 228.592 408.925V63.0736C228.592 41.7364 228.592 31.0677 224.44 22.918C220.787 15.7492 214.959 9.92088 207.79 6.26823C199.64 2.11572 188.971 2.11572 167.634 2.11572H64.6619C43.3246 2.11572 32.656 2.11572 24.5062 6.26823C17.3375 9.92088 11.5091 15.7492 7.85649 22.918ZM8.79944 23.3984C4.76228 31.3218 4.76228 41.6941 4.76228 62.4386V409.56C4.76228 430.305 4.76228 440.677 8.79944 448.6C12.3506 455.57 18.0171 461.236 24.9867 464.787C32.9101 468.825 43.2823 468.825 64.0269 468.825H168.269C189.014 468.825 199.386 468.825 207.309 464.787C214.279 461.236 219.945 455.57 223.497 448.6C227.534 440.677 227.534 430.305 227.534 409.56V62.4386C227.534 41.6941 227.534 31.3218 223.497 23.3984C219.945 16.4288 214.279 10.7624 207.309 7.21118C199.386 3.17402 189.014 3.17402 168.269 3.17402H64.0269C43.2823 3.17402 32.9101 3.17402 24.9867 7.21118C18.0171 10.7624 12.3506 16.4288 8.79944 23.3984Z" fill="black"/>
<path fill-rule="evenodd" clip-rule="evenodd" d="M6.91349 22.4379C2.64563 30.8141 2.64563 41.7791 2.64563 63.7091V408.29C2.64563 430.22 2.64563 441.185 6.91349 449.562C10.6676 456.929 16.6579 462.92 24.0257 466.674C32.4019 470.942 43.3668 470.942 65.2968 470.942H166.999C188.929 470.942 199.894 470.942 208.27 466.674C215.638 462.92 221.628 456.929 225.382 449.562C229.65 441.185 229.65 430.22 229.65 408.29V63.709C229.65 41.7791 229.65 30.8141 225.382 22.4379C221.628 15.0701 215.638 9.07983 208.27 5.32572C199.894 1.05786 188.929 1.05786 166.999 1.05786H65.2968C43.3668 1.05786 32.4019 1.05786 24.0257 5.32572C16.6579 9.07983 10.6676 15.0701 6.91349 22.4379ZM7.85644 22.9184C3.70393 31.0682 3.70393 41.7368 3.70393 63.0741V408.925C3.70393 430.263 3.70393 440.931 7.85644 449.081C11.5091 456.25 17.3374 462.078 24.5062 465.731C32.6559 469.883 43.3246 469.883 64.6618 469.883H167.634C188.971 469.883 199.64 469.883 207.79 465.731C214.958 462.078 220.787 456.25 224.439 449.081C228.592 440.931 228.592 430.263 228.592 408.925V63.0741C228.592 41.7368 228.592 31.0682 224.439 22.9184C220.787 15.7497 214.958 9.92132 207.79 6.26867C199.64 2.11616 188.971 2.11616 167.634 2.11616H64.6618C43.3246 2.11616 32.6559 2.11616 24.5062 6.26867C17.3374 9.92132 11.5091 15.7497 7.85644 22.9184Z" fill="#2C2C2C"/>
<path fill-rule="evenodd" clip-rule="evenodd" d="M6.44223 22.1989C2.1167 30.6882 2.1167 41.8014 2.1167 64.0277V407.974C2.1167 430.201 2.1167 441.314 6.44223 449.803C10.2471 457.27 16.3183 463.342 23.7857 467.146C32.275 471.472 43.3882 471.472 65.6145 471.472H166.682C188.908 471.472 200.021 471.472 208.511 467.146C215.978 463.342 222.049 457.27 225.854 449.803C230.18 441.314 230.18 430.2 230.18 407.974V64.0277C230.18 41.8014 230.18 30.6882 225.854 22.1989C222.049 14.7315 215.978 8.66028 208.511 4.85544C200.021 0.529909 188.908 0.529909 166.682 0.529909H65.6145C43.3882 0.529909 32.275 0.529909 23.7857 4.85544C16.3183 8.66028 10.2471 14.7315 6.44223 22.1989ZM6.91371 22.4391C2.64585 30.8153 2.64585 41.7803 2.64585 63.7103V408.292C2.64585 430.222 2.64585 441.187 6.91371 449.563C10.6678 456.931 16.6581 462.921 24.0259 466.675C32.4021 470.943 43.3671 470.943 65.297 470.943H166.999C188.929 470.943 199.894 470.943 208.27 466.675C215.638 462.921 221.629 456.931 225.383 449.563C229.651 441.187 229.651 430.222 229.651 408.292V63.7102C229.651 41.7803 229.651 30.8153 225.383 22.4391C221.629 15.0713 215.638 9.08102 208.27 5.32691C199.894 1.05906 188.929 1.05906 166.999 1.05906H65.297C43.3671 1.05906 32.4021 1.05906 24.0259 5.32691C16.6581 9.08102 10.6678 15.0713 6.91371 22.4391Z" fill="#85817D"/>
<path fill-rule="evenodd" clip-rule="evenodd" d="M5.97048 21.9579C1.58728 30.5604 1.58728 41.8218 1.58728 64.3444V407.656C1.58728 430.179 1.58728 441.44 5.97048 450.042C9.82606 457.609 15.9782 463.762 23.5452 467.617C32.1477 472 43.4091 472 65.9317 472H166.364C188.887 472 200.148 472 208.751 467.617C216.318 463.762 222.47 457.609 226.325 450.042C230.709 441.44 230.709 430.179 230.709 407.656V64.3444C230.709 41.8218 230.709 30.5604 226.325 21.9579C222.47 14.3909 216.318 8.23878 208.751 4.3832C200.148 0 188.887 0 166.364 0H65.9317C43.4091 0 32.1477 0 23.5452 4.3832C15.9782 8.23878 9.82606 14.3909 5.97048 21.9579ZM6.44196 22.1982C2.11643 30.6875 2.11643 41.8006 2.11643 64.027V407.973C2.11643 430.2 2.11643 441.313 6.44196 449.802C10.2468 457.27 16.318 463.341 23.7854 467.146C32.2748 471.471 43.3879 471.471 65.6142 471.471H166.682C188.908 471.471 200.021 471.471 208.51 467.146C215.978 463.341 222.049 457.27 225.854 449.802C230.179 441.313 230.179 430.2 230.179 407.973V64.027C230.179 41.8006 230.179 30.6875 225.854 22.1982C222.049 14.7307 215.978 8.65952 208.51 4.85468C200.021 0.529148 188.908 0.529148 166.682 0.529148H65.6142C43.3879 0.529148 32.2748 0.529148 23.7854 4.85468C16.318 8.65952 10.2468 14.7307 6.44196 22.1982Z" fill="#4F4B47"/>
<rect opacity="0.5" x="176.735" width="3.70404" height="3.70404" fill="black"/>
<rect opacity="0.5" x="1.58728" y="49.7391" width="3.70404" height="3.17489" fill="black"/>
<rect opacity="0.5" x="1.58728" y="419.085" width="3.70404" height="3.17489" fill="black"/>
<rect opacity="0.5" x="227.005" y="419.085" width="3.70404" height="3.17489" fill="black"/>
<rect opacity="0.5" x="49.7396" y="468.297" width="3.17489" height="3.70404" fill="black"/>
<path opacity="0.5" d="M92.8656 3.96807H139.431V4.23264C139.431 4.60745 139.43 4.87264 139.414 5.07996C139.397 5.28419 139.365 5.40885 139.315 5.50682C139.214 5.70595 139.052 5.86785 138.853 5.96931C138.755 6.01924 138.63 6.05083 138.426 6.06752C138.219 6.08446 137.953 6.08466 137.579 6.08466H94.7176C94.3428 6.08466 94.0776 6.08446 93.8703 6.06752C93.6661 6.05083 93.5414 6.01924 93.4435 5.96931C93.2443 5.86785 93.0824 5.70595 92.981 5.50682C92.931 5.40885 92.8995 5.28419 92.8828 5.07996C92.8658 4.87264 92.8656 4.60745 92.8656 4.23264V3.96807Z" fill="#0F1013" stroke="url(#paint12_linear_0_3)" stroke-width="0.528538"/>
<path opacity="0.8" fill-rule="evenodd" clip-rule="evenodd" d="M93.6594 4.76255C93.6594 4.47031 93.8963 4.2334 94.1885 4.2334H138.108C138.4 4.2334 138.637 4.47031 138.637 4.76255C138.637 5.05479 138.4 5.2917 138.108 5.2917H94.1885C93.8963 5.2917 93.6594 5.05479 93.6594 4.76255Z" fill="#1F2224"/>
<defs>
<linearGradient id="paint0_linear_0_3" x1="228.063" y1="149.219" x2="228.063" y2="206.367" gradientUnits="userSpaceOnUse">
<stop stop-color="#4E4A46"/>
<stop offset="0.484375" stop-color="#736F6B"/>
<stop offset="1" stop-color="#4E4A46"/>
</linearGradient>
<linearGradient id="paint1_linear_0_3" x1="227.798" y1="153.083" x2="227.798" y2="150.119" gradientUnits="userSpaceOnUse">
<stop stop-color="#3C3631"/>
<stop offset="0.249443" stop-color="#050000"/>
<stop offset="0.475668" stop-color="#C1BDB9"/>
<stop offset="0.740898" stop-color="#C1BDB9"/>
<stop offset="1" stop-color="#736F6B"/>
</linearGradient>
<linearGradient id="paint2_linear_0_3" x1="227.798" y1="202.504" x2="227.798" y2="205.467" gradientUnits="userSpaceOnUse">
<stop stop-color="#3C3631"/>
<stop offset="0.249443" stop-color="#050000"/>
<stop offset="0.475668" stop-color="#C1BDB9"/>
<stop offset="0.740898" stop-color="#C1BDB9"/>
<stop offset="1" stop-color="#736F6B"/>
</linearGradient>
<linearGradient id="paint3_linear_0_3" x1="4.23319" y1="169.326" x2="4.23319" y2="205.308" gradientUnits="userSpaceOnUse">
<stop stop-color="#4E4A46"/>
<stop offset="0.484375" stop-color="#736F6B"/>
<stop offset="1" stop-color="#4E4A46"/>
</linearGradient>
<linearGradient id="paint4_linear_0_3" x1="3.96861" y1="173.189" x2="3.96861" y2="170.226" gradientUnits="userSpaceOnUse">
<stop stop-color="#3C3631"/>
<stop offset="0.249443" stop-color="#050000"/>
<stop offset="0.475668" stop-color="#C1BDB9"/>
<stop offset="0.740898" stop-color="#C1BDB9"/>
<stop offset="1" stop-color="#736F6B"/>
</linearGradient>
<linearGradient id="paint5_linear_0_3" x1="3.96861" y1="201.446" x2="3.96861" y2="204.41" gradientUnits="userSpaceOnUse">
<stop stop-color="#3C3631"/>
<stop offset="0.249443" stop-color="#050000"/>
<stop offset="0.475668" stop-color="#C1BDB9"/>
<stop offset="0.740898" stop-color="#C1BDB9"/>
<stop offset="1" stop-color="#736F6B"/>
</linearGradient>
<linearGradient id="paint6_linear_0_3" x1="4.23319" y1="124.879" x2="4.23319" y2="160.861" gradientUnits="userSpaceOnUse">
<stop stop-color="#4E4A46"/>
<stop offset="0.484375" stop-color="#736F6B"/>
<stop offset="1" stop-color="#4E4A46"/>
</linearGradient>
<linearGradient id="paint7_linear_0_3" x1="3.96861" y1="128.742" x2="3.96861" y2="125.778" gradientUnits="userSpaceOnUse">
<stop stop-color="#3C3631"/>
<stop offset="0.249443" stop-color="#050000"/>
<stop offset="0.475668" stop-color="#C1BDB9"/>
<stop offset="0.740898" stop-color="#C1BDB9"/>
<stop offset="1" stop-color="#736F6B"/>
</linearGradient>
<linearGradient id="paint8_linear_0_3" x1="3.96861" y1="156.998" x2="3.96861" y2="159.962" gradientUnits="userSpaceOnUse">
<stop stop-color="#3C3631"/>
<stop offset="0.249443" stop-color="#050000"/>
<stop offset="0.475668" stop-color="#C1BDB9"/>
<stop offset="0.740898" stop-color="#C1BDB9"/>
<stop offset="1" stop-color="#736F6B"/>
</linearGradient>
<linearGradient id="paint9_linear_0_3" x1="4.23319" y1="91.0133" x2="4.23319" y2="110.063" gradientUnits="userSpaceOnUse">
<stop stop-color="#4E4A46"/>
<stop offset="0.484375" stop-color="#736F6B"/>
<stop offset="1" stop-color="#4E4A46"/>
</linearGradient>
<linearGradient id="paint10_linear_0_3" x1="3.96861" y1="94.8763" x2="3.96861" y2="91.913" gradientUnits="userSpaceOnUse">
<stop stop-color="#3C3631"/>
<stop offset="0.249443" stop-color="#050000"/>
<stop offset="0.475668" stop-color="#C1BDB9"/>
<stop offset="0.740898" stop-color="#C1BDB9"/>
<stop offset="1" stop-color="#736F6B"/>
</linearGradient>
<linearGradient id="paint11_linear_0_3" x1="3.96861" y1="106.73" x2="3.96861" y2="109.693" gradientUnits="userSpaceOnUse">
<stop stop-color="#3C3631"/>
<stop offset="0.249443" stop-color="#050000"/>
<stop offset="0.475668" stop-color="#C1BDB9"/>
<stop offset="0.740898" stop-color="#C1BDB9"/>
<stop offset="1" stop-color="#736F6B"/>
</linearGradient>
<linearGradient id="paint12_linear_0_3" x1="92.601" y1="3.70349" x2="92.601" y2="6.34924" gradientUnits="userSpaceOnUse">
<stop stop-color="#101112"/>
<stop offset="1" stop-color="#232425"/>
</linearGradient>
</defs>
</svg>
