<svg width="100" height="100" viewBox="0 0 100 100" fill="none" xmlns="http://www.w3.org/2000/svg">
<path d="M23.6807 39.9741C21.2645 46.3796 21.2645 53.446 23.6807 59.8515L26.6048 58.749C24.4567 53.054 24.4567 46.7715 26.6048 41.0766L23.6807 39.9741Z" fill="#0098D6"/>
<path d="M58.8333 73.3074C53.1385 75.4554 46.856 75.4554 41.1612 73.3074L40.0587 76.2312C46.464 78.6479 53.5305 78.6479 59.936 76.2312L58.8333 73.3074Z" fill="#0098D6"/>
<path d="M96.8753 51.8832C96.8843 48.6038 96.2427 45.3553 94.9877 42.3257C93.7328 39.2958 91.8893 36.5452 89.5642 34.2327L82.0417 26.7102L83.146 25.6058C83.2912 25.4608 83.4062 25.2885 83.4847 25.099C83.5633 24.9093 83.6037 24.7062 83.6037 24.501C83.6037 24.2958 83.5633 24.0927 83.4847 23.903C83.4062 23.7135 83.2912 23.5412 83.146 23.3962L76.5167 16.7668C76.2237 16.4738 75.8263 16.3093 75.412 16.3093C74.9975 16.3093 74.6002 16.4738 74.3072 16.7668L72.8478 18.2262C69.4462 15.7762 65.6733 13.8883 61.6732 12.6344L67.393 9.20275C70.5062 7.33924 74.1647 6.6005 77.757 7.10999C78.1803 7.1704 78.5875 7.31485 78.9543 7.53487C79.3212 7.75487 79.6402 8.046 79.8928 8.39112C80.1457 8.73624 80.3267 9.12839 80.4257 9.54452C80.5247 9.96065 80.5393 10.3924 80.469 10.8143C80.1917 12.4374 80.56 14.1046 81.4953 15.4598C82.4307 16.815 83.859 17.7507 85.475 18.0668L86.6643 18.3043C87.538 18.4787 88.4387 18.467 89.3077 18.27C90.1765 18.073 90.9942 17.695 91.7072 17.1608L96.2503 13.7535L94.3753 11.2535L89.8322 14.661C89.4708 14.9316 89.0565 15.123 88.6163 15.2229C88.1762 15.3227 87.7198 15.3287 87.277 15.2405L86.0873 15.0035C85.2685 14.8434 84.5447 14.3692 84.0707 13.6823C83.5967 12.9955 83.4102 12.1505 83.551 11.328C83.69 10.4953 83.661 9.64322 83.4658 8.8219C83.2707 8.00059 82.9132 7.22657 82.4147 6.54535C81.916 5.86412 81.2863 5.28945 80.5625 4.85509C79.8387 4.42074 79.0352 4.13545 78.1995 4.01604C73.8968 3.40615 69.515 4.29097 65.786 6.52269L57.3952 11.5567C51.8143 10.4919 46.0692 10.6445 40.5527 12.0039L41.3055 15.0371C46.2938 13.7938 51.4908 13.6352 56.5455 14.5718C61.6003 15.5085 66.3953 17.5187 70.607 20.4668L60.405 30.6688C57.2043 28.9558 53.6303 28.0597 50.0002 28.0597C46.37 28.0597 42.796 28.9558 39.5955 30.6688L29.3922 20.4653C31.9863 18.6437 34.812 17.1763 37.7942 16.102L36.735 13.1619C33.319 14.3922 30.0928 16.0963 27.1512 18.2242L25.6935 16.7667C25.4005 16.4737 25.003 16.3091 24.5887 16.3091C24.1743 16.3091 23.777 16.4737 23.4838 16.7667L16.8547 23.3962C16.7095 23.5412 16.5944 23.7135 16.5159 23.903C16.4374 24.0927 16.3969 24.2958 16.3969 24.501C16.3969 24.7062 16.4374 24.9093 16.5159 25.099C16.5944 25.2885 16.7095 25.4608 16.8547 25.6058L17.9588 26.7102L10.4364 34.2327C7.85873 36.8102 5.87687 39.921 4.63017 43.3465C3.38347 46.772 2.90218 50.429 3.22013 54.0605C3.5381 57.6918 4.64758 61.2095 6.47062 64.3663C8.29363 67.523 10.786 70.2422 13.7724 72.3325L16.7103 74.3892C16.4843 74.6893 16.3744 75.0613 16.4009 75.4362C16.4274 75.8112 16.5885 76.1638 16.8547 76.4293L23.4838 83.0582C23.777 83.3512 24.1743 83.5158 24.5887 83.5158C25.003 83.5158 25.4005 83.3512 25.6935 83.0582L27.1518 81.5998C32.6927 85.5843 39.1773 88.0538 45.965 88.7642L42.4708 89.9287C41.924 90.1127 41.3462 90.1865 40.7707 90.1455C40.1952 90.1047 39.6335 89.95 39.1183 89.6907L34.6117 87.4373C33.5672 86.9182 32.4167 86.648 31.2503 86.648C30.084 86.648 28.9333 86.9182 27.889 87.4373L25.0148 88.8745C24.1907 89.2873 23.2573 89.4302 22.3473 89.2825C21.4373 89.135 20.5972 88.7043 19.9458 88.052C18.7783 86.8885 17.2617 86.14 15.628 85.9213C13.9943 85.7025 12.334 86.0257 10.9017 86.841L3.91262 90.8343L5.463 93.5477L12.4521 89.5543C13.2889 89.078 14.2589 88.8892 15.2133 89.017C16.1678 89.1448 17.054 89.582 17.736 90.2617C18.8507 91.3787 20.2888 92.116 21.8465 92.3688C23.404 92.6215 25.0017 92.377 26.4122 91.6698L29.2865 90.2328C29.8967 89.9295 30.5688 89.7715 31.2503 89.7715C31.9318 89.7715 32.604 89.9295 33.2142 90.2328L37.7208 92.4862C38.6028 92.9302 39.5642 93.1947 40.5492 93.2647C41.534 93.3347 42.5232 93.2087 43.4592 92.894L53.0345 89.702C54.0547 89.3613 55.1645 89.4075 56.1528 89.8318L62.813 92.686C64.5925 93.4522 66.5998 93.4983 68.4128 92.8148L76.2433 89.8785C76.809 89.6673 77.4122 89.5748 78.0153 89.6065C78.6183 89.6382 79.2085 89.7933 79.7492 90.0625L84.4105 92.3932C85.3598 92.8675 86.3988 93.1357 87.4592 93.1798C88.5197 93.2238 89.5773 93.0432 90.5628 92.6492L95.8928 90.5172L94.7323 87.6157L89.4023 89.7477C88.8265 89.9778 88.2083 90.0835 87.5888 90.0578C86.9692 90.032 86.3622 89.8753 85.8073 89.5983L81.146 87.2673C80.2208 86.8065 79.2107 86.5407 78.1783 86.4865C77.1462 86.4325 76.1138 86.5912 75.1455 86.9528L67.315 89.8888C66.2558 90.2882 65.083 90.2612 64.0433 89.8135L59.3948 87.8213C64.2347 86.624 68.801 84.5123 72.8478 81.5998L74.3062 83.0582C74.5992 83.3512 74.9967 83.5158 75.411 83.5158C75.8253 83.5158 76.2227 83.3512 76.5157 83.0582L83.145 76.4293C83.411 76.1638 83.5722 75.8112 83.5987 75.4362C83.6253 75.0613 83.5153 74.6893 83.2893 74.3892L86.2273 72.3325C89.5142 70.0298 92.198 66.9693 94.0515 63.4097C95.905 59.8502 96.8737 55.8965 96.8753 51.8832ZM58.0833 32.9918L57.7343 33.3408C57.5892 33.486 57.4742 33.6582 57.3955 33.8478C57.317 34.0373 57.2767 34.2405 57.2767 34.4457C57.2767 34.651 57.317 34.8542 57.3955 35.0437C57.4742 35.2333 57.5892 35.4055 57.7343 35.5507L64.3633 42.1797C64.5085 42.3248 64.6807 42.4398 64.8703 42.5185C65.0598 42.597 65.263 42.6373 65.4683 42.6373C65.6735 42.6373 65.8767 42.597 66.0662 42.5185C66.2558 42.4398 66.428 42.3248 66.5732 42.1797L66.9213 41.8313C67.9303 43.9483 68.5345 46.2353 68.7027 48.5745L71.8198 48.3528C71.5975 45.2552 70.7202 42.2402 69.2458 39.5068L79.4467 29.3063C83.6718 35.3475 85.9378 42.5415 85.9378 49.9137C85.9378 57.2857 83.6718 64.4797 79.4467 70.521L69.2462 60.3203C70.6792 57.663 71.5485 54.7388 71.8003 51.7303L68.686 51.4722C68.4962 53.7352 67.8985 55.9453 66.9218 57.9955L66.5733 57.6472C66.4283 57.502 66.256 57.3868 66.0665 57.3083C65.8768 57.2298 65.6737 57.1895 65.4685 57.1895C65.2633 57.1895 65.06 57.2298 64.8705 57.3083C64.681 57.3868 64.5087 57.502 64.3637 57.6472L57.7347 64.2757C57.5895 64.4207 57.4745 64.593 57.3958 64.7825C57.3173 64.9722 57.2768 65.1753 57.2768 65.3807C57.2768 65.5858 57.3173 65.789 57.3958 65.9787C57.4745 66.1682 57.5895 66.3405 57.7347 66.4855L58.0837 66.8343C55.5562 68.0278 52.7958 68.6468 50.0007 68.6468C47.2057 68.6468 44.4452 68.0278 41.9177 66.8343L42.2667 66.4855C42.4118 66.3405 42.527 66.1682 42.6055 65.9787C42.684 65.789 42.7245 65.5858 42.7245 65.3807C42.7245 65.1753 42.684 64.9722 42.6055 64.7825C42.527 64.593 42.4118 64.4207 42.2667 64.2757L35.6377 57.6465C35.4925 57.5013 35.3203 57.3863 35.1307 57.3078C34.9412 57.2292 34.738 57.1888 34.5327 57.1888C34.3275 57.1888 34.1243 57.2292 33.9348 57.3078C33.7452 57.3863 33.573 57.5013 33.4278 57.6465L33.079 57.9953C31.8855 55.468 31.2665 52.7075 31.2665 49.9125C31.2665 47.1175 31.8855 44.3572 33.079 41.8297L33.4278 42.1787C33.573 42.3238 33.7452 42.439 33.9348 42.5175C34.1243 42.596 34.3275 42.6363 34.5327 42.6363C34.738 42.6363 34.9412 42.596 35.1307 42.5175C35.3203 42.439 35.4925 42.3238 35.6377 42.1787L42.266 35.5503C42.411 35.4053 42.5262 35.233 42.6047 35.0435C42.6832 34.8538 42.7237 34.6507 42.7237 34.4455C42.7237 34.2403 42.6832 34.0372 42.6047 33.8475C42.5262 33.658 42.411 33.4857 42.266 33.3407L41.9168 32.9917C44.4445 31.798 47.205 31.179 50.0002 31.1792C52.7953 31.1792 55.5558 31.7982 58.0833 32.9918ZM20.554 70.52C16.329 64.4787 14.063 57.2847 14.063 49.9127C14.063 42.5405 16.329 35.3465 20.554 29.3053L30.7565 39.5078C29.0438 42.7085 28.1477 46.2825 28.1477 49.9127C28.1477 53.5427 29.0438 57.1167 30.7565 60.3173L20.554 70.52ZM50.0003 85.85C42.6293 85.8422 35.4377 83.5768 29.3928 79.359L39.5955 69.1565C42.7955 70.8713 46.3698 71.7685 50.0003 71.7685C53.6308 71.7685 57.2052 70.8713 60.4052 69.1565L70.6077 79.359C64.5628 83.5768 57.3712 85.8422 50.0003 85.85Z" fill="#0098D6"/>
</svg>
