<svg width="146" height="28" viewBox="0 0 146 28" fill="none" xmlns="http://www.w3.org/2000/svg">
<path d="M7.76166 3.06293C7.76166 2.75889 7.46857 2.54083 7.17735 2.62819L4.38921 3.46464C4.19722 3.52223 4.06575 3.69894 4.06575 3.89938V7.1733C4.06575 7.42397 3.86254 7.62718 3.61186 7.62718H0.454128C0.203455 7.62718 0.000244141 7.83039 0.000244141 8.08106V10.6844C0.000244141 10.9351 0.203455 11.1383 0.454128 11.1383H3.61186C3.86254 11.1383 4.06575 11.3415 4.06575 11.5922V25.6529C4.06575 25.9035 4.26896 26.1067 4.51963 26.1067H7.30778C7.55845 26.1067 7.76166 25.9035 7.76166 25.6529V11.5922C7.76166 11.3415 7.96487 11.1383 8.21554 11.1383H11.7429C11.9935 11.1383 12.1968 10.9351 12.1968 10.6844V8.08106C12.1968 7.83039 11.9935 7.62718 11.7429 7.62718H8.21554C7.96487 7.62718 7.76166 7.42397 7.76166 7.17329V3.06293Z" fill="white"/>
<path d="M17.9298 8.08106C17.9298 7.83039 17.7265 7.62718 17.4759 7.62718H14.6877C14.437 7.62718 14.2338 7.83039 14.2338 8.08106V25.6529C14.2338 25.9035 14.437 26.1067 14.6877 26.1067H17.4759C17.7265 26.1067 17.9298 25.9035 17.9298 25.6529V16.4974C17.9298 12.9464 19.7493 11.1013 23.3884 10.962C23.6389 10.9524 23.8432 10.7503 23.8432 10.4996V7.71147C23.8432 7.4608 23.6394 7.25638 23.389 7.26746C21.5523 7.34865 20.1077 7.9308 19.0552 9.01391C18.7184 9.3605 17.9298 9.14009 17.9298 8.65681V8.08106Z" fill="white"/>
<path d="M33.5046 22.9652C31.7059 22.9652 30.2398 22.3985 29.1064 21.2651C27.973 20.1317 27.4063 18.6656 27.4063 16.867C27.4063 15.0683 27.973 13.6022 29.1064 12.4688C30.2398 11.3354 31.7059 10.7687 33.5046 10.7687C35.3032 10.7687 36.7693 11.3354 37.9027 12.4688C39.0361 13.6022 39.6028 15.0683 39.6028 16.867C39.6028 18.6656 39.0361 20.1317 37.9027 21.2651C36.7693 22.3985 35.3032 22.9652 33.5046 22.9652ZM40.0567 7.62718C39.806 7.62718 39.6028 7.83039 39.6028 8.08106V8.92742C39.6028 9.33773 39.0887 9.54911 38.7736 9.28624C37.1528 7.9338 35.2116 7.25759 32.9502 7.25759C30.3138 7.25759 28.1208 8.16924 26.3714 9.99256C24.5974 11.8405 23.7104 14.132 23.7104 16.867C23.7104 19.6019 24.5974 21.8934 26.3714 23.7414C28.1208 25.5647 30.3138 26.4763 32.9502 26.4763C35.2116 26.4763 37.1528 25.8001 38.7736 24.4477C39.0887 24.1848 39.6028 24.3962 39.6028 24.8065V25.6529C39.6028 25.9035 39.806 26.1067 40.0567 26.1067H42.8448C43.0955 26.1067 43.2987 25.9035 43.2987 25.6529V8.08106C43.2987 7.83039 43.0955 7.62718 42.8448 7.62718H40.0567Z" fill="white"/>
<path d="M60.0485 7.62718C59.8629 7.62718 59.696 7.74017 59.6271 7.91249L54.6188 20.4333C54.4666 20.8137 53.9281 20.8137 53.7759 20.4333L48.7676 7.91249C48.6987 7.74017 48.5318 7.62718 48.3462 7.62718H45.4432C45.1221 7.62718 44.9025 7.95149 45.0217 8.24963L52.0505 25.8214C52.1194 25.9937 52.2863 26.1067 52.4719 26.1067H55.9228C56.1084 26.1067 56.2753 25.9937 56.3442 25.8214L63.3729 8.24963C63.4922 7.95149 63.2726 7.62718 62.9515 7.62718H60.0485Z" fill="white"/>
<path d="M67.7593 15.2038C67.4616 15.2038 67.2439 14.9212 67.3457 14.6414C67.7266 13.5938 68.3579 12.7341 69.2397 12.0623C70.2992 11.2492 71.5435 10.8426 72.9726 10.8426C74.4017 10.8426 75.646 11.2492 76.7054 12.0623C77.5872 12.7341 78.2186 13.5938 78.5995 14.6414C78.7012 14.9212 78.4836 15.2038 78.1858 15.2038H67.7593ZM82.1534 18.5301C82.3784 18.5301 82.5702 18.3653 82.5985 18.1421C82.6614 17.6463 82.6928 17.2213 82.6928 16.867C82.6928 14.0827 81.7688 11.7912 79.9209 9.99256C78.0976 8.16924 75.7815 7.25759 72.9726 7.25759C70.1637 7.25759 67.8353 8.16924 65.9873 9.99256C64.164 11.7912 63.2523 14.0827 63.2523 16.867C63.2523 19.6512 64.164 21.9427 65.9873 23.7414C67.8353 25.5647 70.1637 26.4763 72.9726 26.4763C75.1162 26.4763 77.0011 25.9219 78.6273 24.8132C80.0501 23.8282 81.1131 22.5515 81.8164 20.9831C81.946 20.6942 81.7272 20.3781 81.4106 20.3781H78.2001C78.051 20.3781 77.9122 20.4521 77.8232 20.5717C76.6725 22.1181 75.0556 22.8913 72.9726 22.8913C71.5435 22.8913 70.2992 22.4847 69.2397 21.6716C68.3579 20.9998 67.7266 20.1401 67.3457 19.0925C67.2439 18.8127 67.4616 18.5301 67.7593 18.5301H82.1534Z" fill="white"/>
<path d="M85.269 25.6529C85.269 25.9035 85.4722 26.1067 85.7229 26.1067H88.511C88.7617 26.1067 88.9649 25.9035 88.9649 25.6529V0.689235C88.9649 0.438562 88.7617 0.235352 88.511 0.235352H85.7229C85.4722 0.235352 85.269 0.438562 85.269 0.689236V25.6529Z" fill="white"/>
<path d="M127.261 17.7909C127.261 19.3925 126.793 20.6491 125.856 21.5608C124.945 22.4971 123.688 22.9652 122.087 22.9652C120.485 22.9652 119.228 22.4971 118.317 21.5608C117.381 20.6491 116.912 19.3925 116.912 17.7909V8.08106C116.912 7.83039 116.709 7.62718 116.458 7.62718H113.67C113.42 7.62718 113.216 7.83039 113.216 8.08106V18.1605C113.216 20.5752 113.943 22.5587 115.397 24.1109C116.875 25.6879 118.797 26.4763 121.163 26.4763C123.255 26.4763 124.994 25.8602 126.38 24.628C126.7 24.3442 127.261 24.5546 127.261 24.9818V25.6529C127.261 25.9035 127.464 26.1067 127.715 26.1067H130.503C130.754 26.1067 130.957 25.9035 130.957 25.6529V8.08106C130.957 7.83039 130.754 7.62718 130.503 7.62718H127.715C127.464 7.62718 127.261 7.83039 127.261 8.08106V17.7909Z" fill="white"/>
<path d="M140.737 3.06293C140.737 2.75889 140.443 2.54083 140.152 2.62819L137.364 3.46464C137.172 3.52223 137.041 3.69894 137.041 3.89938V7.1733C137.041 7.42397 136.837 7.62718 136.587 7.62718H133.429C133.178 7.62718 132.975 7.83039 132.975 8.08106V10.6844C132.975 10.9351 133.178 11.1383 133.429 11.1383H136.587C136.837 11.1383 137.041 11.3415 137.041 11.5922V25.6529C137.041 25.9035 137.244 26.1067 137.495 26.1067H140.283C140.533 26.1067 140.737 25.9035 140.737 25.6529V11.5922C140.737 11.3415 140.94 11.1383 141.19 11.1383H144.718C144.968 11.1383 145.172 10.9351 145.172 10.6844V8.08106C145.172 7.83039 144.968 7.62718 144.718 7.62718H141.19C140.94 7.62718 140.737 7.42397 140.737 7.17329V3.06293Z" fill="white"/>
<ellipse cx="100.828" cy="17.3531" rx="9.40188" ry="9.40188" stroke="white" stroke-width="1.29681"/>
<path d="M101.411 26.7549H100.236C100.006 26.7238 99.7765 26.703 99.5521 26.6666C97.6935 26.4181 95.9597 25.6162 94.5888 24.371C92.9883 22.9617 91.9261 21.0669 91.5756 18.9954C91.5115 18.6474 91.4741 18.2943 91.426 17.9567V16.7881L91.5062 16.1336C91.8016 13.7237 93.0558 11.522 95.0002 9.99977C96.0016 9.17569 97.178 8.57701 98.4452 8.24658C99.7124 7.91616 101.039 7.86216 102.33 8.08845C103.528 8.27175 104.675 8.68824 105.704 9.31296C106.732 9.93769 107.62 10.7578 108.314 11.7241C109.071 12.7049 109.621 13.8214 109.933 15.0096C110.245 16.1977 110.312 17.434 110.13 18.6474C109.89 20.4805 109.085 22.2002 107.822 23.5815C106.441 25.1679 104.535 26.2382 102.432 26.6095C102.095 26.6563 101.743 26.7082 101.411 26.7549ZM101.411 9.55829C101.351 9.55328 101.29 9.55328 101.23 9.55829C100.656 9.56585 100.084 9.60225 99.5147 9.66736C97.7747 9.97668 96.1904 10.8413 95.0128 12.1245C93.8351 13.4076 93.1313 15.0359 93.0128 16.7517C93.016 16.8167 93.0446 16.878 93.0929 16.9231C93.4426 17.1744 93.7294 17.4993 93.9317 17.8736C94.0546 18.0761 94.1721 18.2839 94.295 18.4916C94.3405 18.5739 94.4053 18.6445 94.4842 18.6978C94.5632 18.7511 94.6539 18.7854 94.7491 18.798C94.9575 18.824 95.1712 18.8552 95.3795 18.8967C95.5004 18.9105 95.6166 18.9499 95.72 19.0123C95.8234 19.0747 95.9114 19.1584 95.9777 19.2576C96.044 19.3568 96.087 19.4689 96.1037 19.5861C96.1203 19.7033 96.1102 19.8225 96.0741 19.9355C95.9887 20.2848 95.8244 20.6112 95.5932 20.8911C95.3994 21.156 95.3 21.4752 95.3101 21.8001C95.3101 22.1273 95.3101 22.4597 95.3101 22.7921C95.3166 22.8899 95.356 22.983 95.4223 23.057C96.8541 24.425 98.7813 25.1916 100.789 25.1916C102.796 25.1916 104.724 24.425 106.156 23.057C107.058 22.2206 107.745 21.1896 108.162 20.0474C108.578 18.9052 108.713 17.6837 108.554 16.4816C108.517 16.0973 108.421 15.7129 108.346 15.3286C108.074 15.5 107.812 15.6662 107.587 15.796C107.45 15.8642 107.294 15.8859 107.143 15.8576C106.992 15.8294 106.855 15.7529 106.754 15.6402C106.623 15.5274 106.485 15.4216 106.343 15.3234L106.305 15.3598C106.337 15.4273 106.364 15.5 106.401 15.5675C106.722 16.1079 107.138 16.5896 107.63 16.9906C107.908 17.2243 107.919 17.4061 107.7 17.6918C107.48 17.9774 107.165 18.3877 106.914 18.7305C106.799 18.8838 106.724 19.0621 106.695 19.2499C106.685 19.4372 106.632 19.6199 106.54 19.7845C106.447 19.9491 106.318 20.0912 106.161 20.2004C106.073 20.2686 106.002 20.3556 105.954 20.4547C105.906 20.5537 105.881 20.6622 105.883 20.7717C105.886 21.0162 105.829 21.2579 105.717 21.4771C105.606 21.6964 105.443 21.8871 105.242 22.0338C104.769 22.3963 104.223 22.6582 103.639 22.8025C103.565 22.829 103.485 22.8322 103.409 22.8117C103.333 22.7912 103.266 22.748 103.217 22.6882C102.847 22.2911 102.571 21.8193 102.41 21.3067C102.333 21.0986 102.309 20.8753 102.341 20.6563C102.372 20.4372 102.459 20.2289 102.592 20.0498C102.657 19.9673 102.7 19.871 102.719 19.7689C102.737 19.6668 102.731 19.5619 102.699 19.4629C102.667 19.3278 102.597 19.2032 102.56 19.0681C102.485 18.7877 102.421 18.502 102.341 18.2215C102.324 18.1554 102.284 18.0968 102.229 18.0553C102.156 18.0131 102.077 17.9832 101.994 17.967C101.371 17.8084 100.73 17.7315 100.086 17.7385C99.6914 17.7517 99.3007 17.6563 98.9591 17.4632C98.8115 17.3816 98.686 17.2669 98.5931 17.1287C98.5002 16.9905 98.4425 16.8328 98.4248 16.6686C98.3919 16.3094 98.3776 15.9489 98.3821 15.5883C98.3822 15.3438 98.434 15.102 98.5342 14.8778C98.6343 14.6535 98.7808 14.4516 98.9644 14.2846C99.3668 13.9105 99.8711 13.6563 100.418 13.5523C101.195 13.3248 102.03 13.3802 102.768 13.7081C102.852 13.7566 102.948 13.7818 103.046 13.7808C103.543 13.7808 104.035 13.8224 104.531 13.8172C104.764 13.8198 104.995 13.7937 105.221 13.7393C105.277 13.7276 105.328 13.7007 105.37 13.6617C105.411 13.6227 105.44 13.5732 105.453 13.5189C105.466 13.4646 105.464 13.4077 105.445 13.3548C105.427 13.3019 105.393 13.2551 105.349 13.2199C105.241 13.1201 105.114 13.0423 104.975 12.9914C104.176 12.7137 103.325 12.6074 102.48 12.6798C102.015 12.766 101.568 12.9238 101.155 13.1472C100.84 13.2719 100.512 13.3642 100.177 13.4225C99.8353 13.4796 99.6429 13.3601 99.5468 13.0329C99.4925 12.8901 99.4671 12.7385 99.472 12.5863C99.4946 12.243 99.6358 11.9173 99.8727 11.6618C100.182 11.2848 100.567 10.9737 101.005 10.7477C101.176 10.6542 101.337 10.5347 101.507 10.4257C101.123 9.90108 101.123 9.8907 101.369 9.55829H101.411Z" fill="white"/>
</svg>
