<svg width="16" height="13" viewBox="0 0 16 13" fill="none" xmlns="http://www.w3.org/2000/svg">
<path fill-rule="evenodd" clip-rule="evenodd" d="M7.63843 3.45826L7.67253 4.02055L7.10419 3.9517C5.03545 3.68776 3.22815 2.79268 1.69364 1.2894L0.943437 0.543501L0.750203 1.09432C0.341001 2.32219 0.602436 3.61891 1.45494 4.49104C1.90961 4.97301 1.80731 5.04186 1.023 4.75498C0.750203 4.66318 0.511502 4.59432 0.488769 4.62875C0.409202 4.70908 0.682003 5.75334 0.89797 6.16645C1.1935 6.74022 1.79594 7.30252 2.45521 7.63531L3.01218 7.89924L2.35291 7.91072C1.71637 7.91072 1.69364 7.92219 1.76184 8.16318C1.98917 8.90908 2.88715 9.70088 3.88742 10.0451L4.59215 10.2861L3.97835 10.6533C3.06901 11.1812 2.00054 11.4796 0.93207 11.5025C0.420568 11.514 0 11.5599 0 11.5943C0 11.7091 1.38674 12.3517 2.19378 12.6042C4.61489 13.3501 7.49066 13.0288 9.65034 11.755C11.1848 10.8484 12.7194 9.04678 13.4355 7.30252C13.8219 6.37301 14.2084 4.67465 14.2084 3.8599C14.2084 3.33203 14.2425 3.26317 14.879 2.63203C15.2541 2.26481 15.6065 1.86317 15.6747 1.74842C15.7884 1.53039 15.777 1.53039 15.1973 1.72547C14.2311 2.06973 14.0947 2.02383 14.5721 1.50744C14.9245 1.14022 15.3451 0.474649 15.3451 0.279567C15.3451 0.245141 15.1746 0.302518 14.9813 0.405796C14.7767 0.520551 14.3221 0.692682 13.9811 0.795961L13.3673 0.991043L12.8103 0.612354C12.5034 0.405796 12.0714 0.176288 11.8441 0.107436C11.2644 -0.0532201 10.3778 -0.0302693 9.85494 0.153337C8.4341 0.669731 7.53613 2.00088 7.63843 3.45826Z" fill="white"/>
</svg>
