<svg width="32" height="25" viewBox="0 0 32 25" fill="none" xmlns="http://www.w3.org/2000/svg">
<g opacity="0.3" clip-path="url(#clip0_625_108020)">
<path d="M8.00475 23.2728C11.8331 24.1773 16.2083 23.6514 20.1477 22.1601C24.0868 20.669 27.6115 18.2048 29.7299 15.2078C31.162 13.1834 31.5448 11.1219 31.03 9.22623C30.5166 7.3356 29.1182 5.6384 27.0427 4.31832C25.7889 3.51437 24.4797 2.79861 22.8416 2.72411C22.5952 2.71304 22.325 2.88065 22.3203 3.16642C22.3021 3.44511 22.5461 3.6409 22.7865 3.65253C24.1939 3.71668 25.3189 4.34852 26.4783 5.08524C28.3551 6.27953 29.5883 7.79104 30.0409 9.43893C30.4922 11.0816 30.1756 12.888 28.8982 14.6966C26.8957 17.5241 23.5521 19.8745 19.7911 21.3022C16.0307 22.7297 11.8739 23.2268 8.25359 22.372C8.09813 22.3355 7.93814 22.2994 7.7749 22.2626C6.2128 21.9107 4.33555 21.4878 2.9207 19.8516C1.48339 18.1903 1.53228 16.2116 2.20617 14.3412C2.89362 12.4199 4.22415 10.6423 5.28872 9.49605C7.61531 6.99621 11.1146 4.60473 15.0888 3.1397C19.0627 1.67485 23.4976 1.14105 27.7016 2.33608L27.7046 2.33689C27.9523 2.40284 28.2416 2.29678 28.3307 2.03727C28.4201 1.77705 28.257 1.51974 28.0048 1.44735C23.5803 0.189942 18.924 0.746806 14.7733 2.26556C10.623 3.78411 6.96367 6.26904 4.52609 8.88788C3.18137 10.339 1.40517 12.7772 0.89553 15.3181C0.549732 17.0637 0.791796 18.8666 2.13598 20.4331C3.74722 22.3019 5.90092 22.7926 7.56257 23.171C7.71433 23.2056 7.86198 23.2392 8.00475 23.2728ZM8.00475 23.2728C8.00471 23.2728 8.00478 23.2728 8.00475 23.2728V23.2728Z" fill="black"/>
<path d="M8.00475 23.2728C11.8331 24.1773 16.2083 23.6514 20.1477 22.1601C24.0868 20.669 27.6115 18.2048 29.7299 15.2078C31.162 13.1834 31.5448 11.1219 31.03 9.22623C30.5166 7.3356 29.1182 5.6384 27.0427 4.31832C25.7889 3.51437 24.4797 2.79861 22.8416 2.72411C22.5952 2.71304 22.325 2.88065 22.3203 3.16642C22.3021 3.44511 22.5461 3.6409 22.7865 3.65253C24.1939 3.71668 25.3189 4.34852 26.4783 5.08524C28.3551 6.27953 29.5883 7.79104 30.0409 9.43892C30.4922 11.0816 30.1756 12.888 28.8982 14.6966C26.8957 17.5241 23.5521 19.8745 19.7911 21.3022C16.0307 22.7297 11.8739 23.2268 8.25359 22.372C8.09813 22.3355 7.93814 22.2994 7.7749 22.2626C6.2128 21.9107 4.33555 21.4878 2.9207 19.8516C1.48339 18.1903 1.53228 16.2116 2.20617 14.3412C2.89362 12.4199 4.22415 10.6423 5.28872 9.49605C7.61531 6.99621 11.1146 4.60473 15.0888 3.1397C19.0627 1.67485 23.4976 1.14105 27.7016 2.33608L27.7046 2.33689C27.9523 2.40284 28.2416 2.29678 28.3307 2.03727C28.4201 1.77705 28.257 1.51974 28.0048 1.44735C23.5803 0.189942 18.924 0.746806 14.7733 2.26556C10.623 3.78411 6.96367 6.26904 4.52609 8.88788C3.18137 10.339 1.40517 12.7772 0.89553 15.3181C0.549732 17.0637 0.791796 18.8666 2.13598 20.4331C3.74722 22.3019 5.90092 22.7926 7.56257 23.171C7.71433 23.2056 7.86198 23.2392 8.00475 23.2728ZM8.00475 23.2728L8.04792 23.0901M8.00475 23.2728C8.00471 23.2728 8.00478 23.2728 8.00475 23.2728Z" stroke="black" stroke-width="0.376442"/>
<path d="M7.24663 12.1447C7.24663 11.1433 7.41353 10.2694 7.74734 9.52262C8.08993 8.776 8.56428 8.19185 9.1704 7.7702C9.78527 7.33976 10.5012 7.12455 11.3182 7.12455C12.1439 7.12455 12.8598 7.33976 13.4659 7.7702C14.0808 8.19185 14.5551 8.776 14.889 9.52262C15.2316 10.2694 15.4029 11.1433 15.4029 12.1447C15.4029 13.1374 15.2403 14.007 14.9153 14.7537C14.5903 15.5004 14.1247 16.0802 13.5186 16.493C12.9125 16.9059 12.1791 17.1123 11.3182 17.1123C10.4749 17.1123 9.74574 16.9059 9.13087 16.493C8.52475 16.0802 8.05918 15.5004 7.73416 14.7537C7.40914 14.007 7.24663 13.1374 7.24663 12.1447ZM8.90687 12.1447C8.90687 12.8826 9.00349 13.5151 9.19675 14.0421C9.39 14.5605 9.66668 14.9557 10.0269 15.228C10.3871 15.4916 10.8175 15.6233 11.3182 15.6233C11.8365 15.6233 12.2713 15.4916 12.6226 15.228C12.9828 14.9557 13.2595 14.5605 13.4527 14.0421C13.646 13.5151 13.7426 12.8826 13.7426 12.1447C13.7426 11.3805 13.646 10.7393 13.4527 10.221C13.2595 9.69392 12.9828 9.29427 12.6226 9.02196C12.2713 8.74964 11.8365 8.61349 11.3182 8.61349C10.8175 8.61349 10.3871 8.74964 10.0269 9.02196C9.66668 9.29427 9.39 9.69392 9.19675 10.221C9.00349 10.7393 8.90687 11.3805 8.90687 12.1447Z" fill="black"/>
<path d="M22.8219 7.30914V16.9411H21.2276V7.30914H22.8219ZM16.3391 13.6338L20.7005 7.30914H22.4793L18.052 13.7392L16.3391 13.6338ZM23.9946 15.1096H16.3391V13.6338H23.9946V15.1096Z" fill="black"/>
</g>
<defs>
<clipPath id="clip0_625_108020">
<rect width="31.9976" height="24.4688" fill="white"/>
</clipPath>
</defs>
</svg>
