<svg width="146" height="28" viewBox="0 0 146 28" fill="none" xmlns="http://www.w3.org/2000/svg">
<path d="M7.76166 3.0633C7.76166 2.75926 7.46857 2.54119 7.17735 2.62856L4.38921 3.465C4.19722 3.5226 4.06575 3.69931 4.06575 3.89974V7.17366C4.06575 7.42433 3.86254 7.62754 3.61186 7.62754H0.454128C0.203455 7.62754 0.000244141 7.83076 0.000244141 8.08143V10.6848C0.000244141 10.9354 0.203455 11.1387 0.454128 11.1387H3.61186C3.86254 11.1387 4.06575 11.3419 4.06575 11.5925V25.6532C4.06575 25.9039 4.26896 26.1071 4.51963 26.1071H7.30778C7.55845 26.1071 7.76166 25.9039 7.76166 25.6532V11.5925C7.76166 11.3419 7.96487 11.1387 8.21554 11.1387H11.7429C11.9935 11.1387 12.1968 10.9354 12.1968 10.6848V8.08143C12.1968 7.83076 11.9935 7.62754 11.7429 7.62754H8.21554C7.96487 7.62754 7.76166 7.42433 7.76166 7.17366V3.0633Z" fill="#192431"/>
<path d="M17.9298 8.08143C17.9298 7.83076 17.7265 7.62754 17.4759 7.62754H14.6877C14.437 7.62754 14.2338 7.83076 14.2338 8.08143V25.6532C14.2338 25.9039 14.437 26.1071 14.6877 26.1071H17.4759C17.7265 26.1071 17.9298 25.9039 17.9298 25.6532V16.4977C17.9298 12.9468 19.7493 11.1017 23.3884 10.9624C23.6389 10.9528 23.8432 10.7507 23.8432 10.5V7.71184C23.8432 7.46116 23.6394 7.25675 23.389 7.26782C21.5523 7.34902 20.1077 7.93117 19.0552 9.01428C18.7184 9.36087 17.9298 9.14046 17.9298 8.65718V8.08143Z" fill="#192431"/>
<path d="M33.5046 22.9656C31.7059 22.9656 30.2398 22.3989 29.1064 21.2655C27.973 20.132 27.4063 18.666 27.4063 16.8673C27.4063 15.0686 27.973 13.6026 29.1064 12.4692C30.2398 11.3358 31.7059 10.7691 33.5046 10.7691C35.3032 10.7691 36.7693 11.3358 37.9027 12.4692C39.0361 13.6026 39.6028 15.0686 39.6028 16.8673C39.6028 18.666 39.0361 20.132 37.9027 21.2655C36.7693 22.3989 35.3032 22.9656 33.5046 22.9656ZM40.0567 7.62754C39.806 7.62754 39.6028 7.83076 39.6028 8.08143V8.92779C39.6028 9.33809 39.0887 9.54948 38.7736 9.28661C37.1528 7.93417 35.2116 7.25795 32.9502 7.25795C30.3138 7.25795 28.1208 8.16961 26.3714 9.99293C24.5974 11.8409 23.7104 14.1324 23.7104 16.8673C23.7104 19.6023 24.5974 21.8938 26.3714 23.7417C28.1208 25.565 30.3138 26.4767 32.9502 26.4767C35.2116 26.4767 37.1528 25.8005 38.7736 24.448C39.0887 24.1852 39.6028 24.3966 39.6028 24.8069V25.6532C39.6028 25.9039 39.806 26.1071 40.0567 26.1071H42.8448C43.0955 26.1071 43.2987 25.9039 43.2987 25.6532V8.08143C43.2987 7.83076 43.0955 7.62754 42.8448 7.62754H40.0567Z" fill="#192431"/>
<path d="M60.0485 7.62754C59.8629 7.62754 59.696 7.74054 59.6271 7.91286L54.6188 20.4337C54.4666 20.8141 53.9281 20.8141 53.7759 20.4337L48.7676 7.91286C48.6987 7.74054 48.5318 7.62754 48.3462 7.62754H45.4432C45.1221 7.62754 44.9025 7.95186 45.0217 8.25L52.0505 25.8218C52.1194 25.9941 52.2863 26.1071 52.4719 26.1071H55.9228C56.1084 26.1071 56.2753 25.9941 56.3442 25.8218L63.3729 8.25C63.4922 7.95186 63.2726 7.62754 62.9515 7.62754H60.0485Z" fill="#192431"/>
<path d="M67.7593 15.2042C67.4616 15.2042 67.2439 14.9216 67.3457 14.6417C67.7266 13.5942 68.3579 12.7345 69.2397 12.0626C70.2992 11.2495 71.5435 10.843 72.9726 10.843C74.4017 10.843 75.646 11.2495 76.7054 12.0626C77.5872 12.7345 78.2186 13.5942 78.5995 14.6417C78.7012 14.9216 78.4836 15.2042 78.1858 15.2042H67.7593ZM82.1534 18.5305C82.3784 18.5305 82.5702 18.3657 82.5985 18.1425C82.6614 17.6467 82.6928 17.2216 82.6928 16.8673C82.6928 14.0831 81.7688 11.7916 79.9209 9.99293C78.0976 8.16961 75.7815 7.25795 72.9726 7.25795C70.1637 7.25795 67.8353 8.16961 65.9873 9.99293C64.164 11.7916 63.2523 14.0831 63.2523 16.8673C63.2523 19.6516 64.164 21.943 65.9873 23.7417C67.8353 25.565 70.1637 26.4767 72.9726 26.4767C75.1162 26.4767 77.0011 25.9223 78.6273 24.8135C80.0501 23.8285 81.1131 22.5519 81.8164 20.9835C81.946 20.6946 81.7272 20.3784 81.4106 20.3784H78.2001C78.051 20.3784 77.9122 20.4525 77.8232 20.572C76.6725 22.1185 75.0556 22.8917 72.9726 22.8917C71.5435 22.8917 70.2992 22.4851 69.2397 21.672C68.3579 21.0002 67.7266 20.1405 67.3457 19.0929C67.2439 18.8131 67.4616 18.5305 67.7593 18.5305H82.1534Z" fill="#192431"/>
<path d="M85.269 25.6532C85.269 25.9039 85.4722 26.1071 85.7229 26.1071H88.511C88.7617 26.1071 88.9649 25.9039 88.9649 25.6532V0.689602C88.9649 0.438928 88.7617 0.235718 88.511 0.235718H85.7229C85.4722 0.235718 85.269 0.438929 85.269 0.689602V25.6532Z" fill="#192431"/>
<path d="M127.261 17.7913C127.261 19.3929 126.793 20.6495 125.856 21.5611C124.945 22.4974 123.688 22.9656 122.087 22.9656C120.485 22.9656 119.228 22.4974 118.317 21.5611C117.381 20.6495 116.912 19.3929 116.912 17.7913V8.08143C116.912 7.83076 116.709 7.62754 116.458 7.62754H113.67C113.42 7.62754 113.216 7.83076 113.216 8.08143V18.1609C113.216 20.5756 113.943 22.559 115.397 24.1113C116.875 25.6882 118.797 26.4767 121.163 26.4767C123.255 26.4767 124.994 25.8606 126.38 24.6284C126.7 24.3445 127.261 24.5549 127.261 24.9821V25.6532C127.261 25.9039 127.464 26.1071 127.715 26.1071H130.503C130.754 26.1071 130.957 25.9039 130.957 25.6532V8.08143C130.957 7.83076 130.754 7.62754 130.503 7.62754H127.715C127.464 7.62754 127.261 7.83076 127.261 8.08143V17.7913Z" fill="#192431"/>
<path d="M140.737 3.0633C140.737 2.75926 140.443 2.54119 140.152 2.62856L137.364 3.465C137.172 3.5226 137.041 3.69931 137.041 3.89974V7.17366C137.041 7.42433 136.837 7.62754 136.587 7.62754H133.429C133.178 7.62754 132.975 7.83076 132.975 8.08143V10.6848C132.975 10.9354 133.178 11.1387 133.429 11.1387H136.587C136.837 11.1387 137.041 11.3419 137.041 11.5925V25.6532C137.041 25.9039 137.244 26.1071 137.495 26.1071H140.283C140.533 26.1071 140.737 25.9039 140.737 25.6532V11.5925C140.737 11.3419 140.94 11.1387 141.19 11.1387H144.718C144.968 11.1387 145.172 10.9354 145.172 10.6848V8.08143C145.172 7.83076 144.968 7.62754 144.718 7.62754H141.19C140.94 7.62754 140.737 7.42433 140.737 7.17366V3.0633Z" fill="#192431"/>
<ellipse cx="100.828" cy="17.3537" rx="9.40188" ry="9.40188" stroke="#0596D1" stroke-width="1.29681"/>
<path d="M101.411 26.7555H100.236C100.006 26.7244 99.7765 26.7036 99.5521 26.6673C97.6935 26.4187 95.9597 25.6168 94.5888 24.3716C92.9883 22.9623 91.9261 21.0675 91.5756 18.996C91.5115 18.648 91.4741 18.2949 91.426 17.9573V16.7887L91.5062 16.1342C91.8016 13.7243 93.0558 11.5226 95.0002 10.0004C96.0016 9.1763 97.178 8.57762 98.4452 8.24719C99.7124 7.91677 101.039 7.86277 102.33 8.08906C103.528 8.27236 104.675 8.68885 105.704 9.31357C106.732 9.9383 107.62 10.7584 108.314 11.7247C109.071 12.7055 109.621 13.822 109.933 15.0102C110.245 16.1983 110.312 17.4346 110.13 18.648C109.89 20.4811 109.085 22.2009 107.822 23.5821C106.441 25.1685 104.535 26.2388 102.432 26.6101C102.095 26.6569 101.743 26.7088 101.411 26.7555ZM101.411 9.5589C101.351 9.55389 101.29 9.55389 101.23 9.5589C100.656 9.56646 100.084 9.60286 99.5147 9.66797C97.7747 9.97729 96.1904 10.8419 95.0128 12.1251C93.8351 13.4082 93.1313 15.0365 93.0128 16.7523C93.016 16.8173 93.0446 16.8786 93.0929 16.9237C93.4426 17.175 93.7294 17.4999 93.9317 17.8742C94.0546 18.0767 94.1721 18.2845 94.295 18.4922C94.3405 18.5745 94.4053 18.6452 94.4842 18.6984C94.5632 18.7517 94.6539 18.786 94.7491 18.7987C94.9575 18.8246 95.1712 18.8558 95.3795 18.8973C95.5004 18.9111 95.6166 18.9505 95.72 19.0129C95.8234 19.0753 95.9114 19.159 95.9777 19.2582C96.044 19.3574 96.087 19.4695 96.1037 19.5867C96.1203 19.7039 96.1102 19.8232 96.0741 19.9361C95.9887 20.2854 95.8244 20.6118 95.5932 20.8918C95.3994 21.1566 95.3 21.4758 95.3101 21.8007C95.3101 22.1279 95.3101 22.4603 95.3101 22.7927C95.3166 22.8906 95.356 22.9836 95.4223 23.0576C96.8541 24.4256 98.7813 25.1923 100.789 25.1923C102.796 25.1923 104.724 24.4256 106.156 23.0576C107.058 22.2212 107.745 21.1902 108.162 20.048C108.578 18.9058 108.713 17.6843 108.554 16.4822C108.517 16.0979 108.421 15.7135 108.346 15.3292C108.074 15.5006 107.812 15.6668 107.587 15.7966C107.45 15.8648 107.294 15.8865 107.143 15.8583C106.992 15.83 106.855 15.7535 106.754 15.6408C106.623 15.528 106.485 15.4223 106.343 15.324L106.305 15.3604C106.337 15.4279 106.364 15.5006 106.401 15.5681C106.722 16.1085 107.138 16.5902 107.63 16.9912C107.908 17.2249 107.919 17.4067 107.7 17.6924C107.48 17.978 107.165 18.3884 106.914 18.7311C106.799 18.8844 106.724 19.0627 106.695 19.2505C106.685 19.4378 106.632 19.6205 106.54 19.7851C106.447 19.9497 106.318 20.0918 106.161 20.201C106.073 20.2692 106.002 20.3562 105.954 20.4553C105.906 20.5543 105.881 20.6628 105.883 20.7723C105.886 21.0168 105.829 21.2585 105.717 21.4777C105.606 21.697 105.443 21.8877 105.242 22.0344C104.769 22.3969 104.223 22.6588 103.639 22.8031C103.565 22.8296 103.485 22.8328 103.409 22.8123C103.333 22.7918 103.266 22.7486 103.217 22.6888C102.847 22.2917 102.571 21.82 102.41 21.3073C102.333 21.0993 102.309 20.876 102.341 20.6569C102.372 20.4378 102.459 20.2296 102.592 20.0504C102.657 19.9679 102.7 19.8716 102.719 19.7695C102.737 19.6674 102.731 19.5625 102.699 19.4635C102.667 19.3284 102.597 19.2038 102.56 19.0687C102.485 18.7883 102.421 18.5026 102.341 18.2221C102.324 18.156 102.284 18.0974 102.229 18.0559C102.156 18.0137 102.077 17.9839 101.994 17.9677C101.371 17.809 100.73 17.7321 100.086 17.7391C99.6914 17.7523 99.3007 17.6569 98.9591 17.4639C98.8115 17.3822 98.686 17.2675 98.5931 17.1293C98.5002 16.9911 98.4425 16.8334 98.4248 16.6692C98.3919 16.31 98.3776 15.9495 98.3821 15.5889C98.3822 15.3444 98.434 15.1026 98.5342 14.8784C98.6343 14.6541 98.7808 14.4523 98.9644 14.2853C99.3668 13.9111 99.8711 13.6569 100.418 13.5529C101.195 13.3255 102.03 13.3808 102.768 13.7087C102.852 13.7572 102.948 13.7824 103.046 13.7815C103.543 13.7815 104.035 13.823 104.531 13.8178C104.764 13.8204 104.995 13.7943 105.221 13.7399C105.277 13.7282 105.328 13.7013 105.37 13.6623C105.411 13.6233 105.44 13.5738 105.453 13.5195C105.466 13.4652 105.464 13.4083 105.445 13.3554C105.427 13.3025 105.393 13.2557 105.349 13.2205C105.241 13.1207 105.114 13.043 104.975 12.992C104.176 12.7143 103.325 12.608 102.48 12.6804C102.015 12.7666 101.568 12.9244 101.155 13.1478C100.84 13.2725 100.512 13.3648 100.177 13.4231C99.8353 13.4802 99.6429 13.3608 99.5468 13.0336C99.4925 12.8907 99.4671 12.7391 99.472 12.5869C99.4946 12.2436 99.6358 11.9179 99.8727 11.6624C100.182 11.2854 100.567 10.9743 101.005 10.7483C101.176 10.6548 101.337 10.5353 101.507 10.4263C101.123 9.90169 101.123 9.89131 101.369 9.5589H101.411Z" fill="#0596D1"/>
</svg>
