<svg width="233" height="472" viewBox="0 0 233 472" fill="none" xmlns="http://www.w3.org/2000/svg">
<path d="M223.829 150.278C223.829 149.694 224.303 149.22 224.888 149.22H231.237C231.822 149.22 232.296 149.694 232.296 150.278V205.309C232.296 205.894 231.822 206.368 231.237 206.368H224.888C224.303 206.368 223.829 205.894 223.829 205.309V150.278Z" fill="url(#paint0_linear_0_50)"/>
<path d="M223.829 152.606C223.829 152.902 223.829 153.051 223.887 153.164C223.938 153.263 224.019 153.344 224.118 153.395C224.231 153.453 224.38 153.453 224.676 153.453H231.767V150.595C231.767 150.299 231.767 150.151 231.709 150.038C231.658 149.938 231.577 149.857 231.478 149.806C231.364 149.749 231.216 149.749 230.92 149.749H224.676C224.38 149.749 224.231 149.749 224.118 149.806C224.019 149.857 223.938 149.938 223.887 150.038C223.829 150.151 223.829 150.299 223.829 150.595V152.606Z" fill="url(#paint1_linear_0_50)"/>
<path d="M223.829 202.981C223.829 202.685 223.829 202.536 223.887 202.423C223.938 202.324 224.019 202.243 224.118 202.192C224.231 202.134 224.38 202.134 224.676 202.134H231.767V204.992C231.767 205.288 231.767 205.436 231.709 205.549C231.658 205.649 231.577 205.73 231.478 205.781C231.364 205.838 231.216 205.838 230.92 205.838H224.676C224.38 205.838 224.231 205.838 224.118 205.781C224.019 205.73 223.938 205.649 223.887 205.549C223.829 205.436 223.829 205.288 223.829 204.992V202.981Z" fill="url(#paint2_linear_0_50)"/>
<path fill-rule="evenodd" clip-rule="evenodd" d="M223.945 205.79C223.829 205.564 223.829 205.267 223.829 204.674V150.913C223.829 150.32 223.829 150.024 223.945 149.798C224.046 149.599 224.208 149.437 224.407 149.335C224.634 149.22 224.93 149.22 225.523 149.22H230.602C231.195 149.22 231.491 149.22 231.718 149.335C231.917 149.437 232.079 149.599 232.18 149.798C232.296 150.024 232.296 150.32 232.296 150.913V204.674C232.296 205.267 232.296 205.564 232.18 205.79C232.079 205.989 231.917 206.151 231.718 206.252C231.491 206.368 231.195 206.368 230.602 206.368H225.523C224.93 206.368 224.634 206.368 224.407 206.252C224.208 206.151 224.046 205.989 223.945 205.79ZM224.416 205.55C224.359 205.436 224.359 205.288 224.359 204.992V150.596C224.359 150.299 224.359 150.151 224.416 150.038C224.467 149.938 224.548 149.857 224.647 149.807C224.761 149.749 224.909 149.749 225.205 149.749H230.92C231.216 149.749 231.364 149.749 231.478 149.807C231.577 149.857 231.658 149.938 231.709 150.038C231.767 150.151 231.767 150.299 231.767 150.596V204.992C231.767 205.288 231.767 205.436 231.709 205.55C231.658 205.649 231.577 205.73 231.478 205.781C231.364 205.839 231.216 205.839 230.92 205.839H225.205C224.909 205.839 224.761 205.839 224.647 205.781C224.548 205.73 224.467 205.649 224.416 205.55Z" fill="#353638"/>
<path d="M0 170.386C0 169.802 0.473815 169.328 1.05829 169.328H7.40806C7.99254 169.328 8.46636 169.802 8.46636 170.386V204.252C8.46636 204.836 7.99254 205.31 7.40806 205.31H1.05829C0.473815 205.31 0 204.836 0 204.252V170.386Z" fill="url(#paint3_linear_0_50)"/>
<path d="M0 172.715C0 173.011 0 173.159 0.0576736 173.272C0.108405 173.372 0.189354 173.453 0.288919 173.504C0.40211 173.561 0.550285 173.561 0.846636 173.561H7.93721V170.704C7.93721 170.408 7.93721 170.259 7.87954 170.146C7.8288 170.047 7.74786 169.966 7.64829 169.915C7.5351 169.857 7.38692 169.857 7.09057 169.857H0.846635C0.550285 169.857 0.40211 169.857 0.288919 169.915C0.189354 169.966 0.108405 170.047 0.0576736 170.146C0 170.259 0 170.408 0 170.704L0 172.715Z" fill="url(#paint4_linear_0_50)"/>
<path d="M0 201.924C0 201.628 0 201.48 0.0576736 201.366C0.108405 201.267 0.189354 201.186 0.288919 201.135C0.40211 201.077 0.550285 201.077 0.846636 201.077H7.93721V203.935C7.93721 204.231 7.93721 204.379 7.87954 204.493C7.8288 204.592 7.74786 204.673 7.64829 204.724C7.5351 204.781 7.38692 204.781 7.09057 204.781H0.846635C0.550285 204.781 0.40211 204.781 0.288919 204.724C0.189354 204.673 0.108405 204.592 0.0576736 204.493C0 204.379 0 204.231 0 203.935L0 201.924Z" fill="url(#paint5_linear_0_50)"/>
<path fill-rule="evenodd" clip-rule="evenodd" d="M0.115347 204.732C0 204.506 0 204.209 0 203.617V171.021C0 170.429 0 170.132 0.115347 169.906C0.216809 169.707 0.378708 169.545 0.577839 169.443C0.804221 169.328 1.10057 169.328 1.69327 169.328H6.77309C7.36579 169.328 7.66214 169.328 7.88852 169.443C8.08765 169.545 8.24955 169.707 8.35101 169.906C8.46636 170.132 8.46636 170.429 8.46636 171.021V203.617C8.46636 204.209 8.46636 204.506 8.35101 204.732C8.24955 204.931 8.08765 205.093 7.88852 205.195C7.66214 205.31 7.36579 205.31 6.77309 205.31H1.69327C1.10057 205.31 0.804221 205.31 0.577839 205.195C0.378708 205.093 0.216809 204.931 0.115347 204.732ZM0.586821 204.492C0.529147 204.379 0.529147 204.231 0.529147 203.934V170.704C0.529147 170.407 0.529147 170.259 0.586821 170.146C0.637552 170.046 0.718501 169.966 0.818067 169.915C0.931258 169.857 1.07943 169.857 1.37578 169.857H7.09057C7.38692 169.857 7.5351 169.857 7.64829 169.915C7.74786 169.966 7.82881 170.046 7.87954 170.146C7.93721 170.259 7.93721 170.407 7.93721 170.704V203.934C7.93721 204.231 7.93721 204.379 7.87954 204.492C7.82881 204.591 7.74786 204.672 7.64829 204.723C7.5351 204.781 7.38692 204.781 7.09057 204.781H1.37578C1.07943 204.781 0.931258 204.781 0.818067 204.723C0.718501 204.672 0.637552 204.591 0.586821 204.492Z" fill="#353638"/>
<path d="M0 125.938C0 125.353 0.473815 124.879 1.05829 124.879H7.40806C7.99254 124.879 8.46636 125.353 8.46636 125.938V159.803C8.46636 160.387 7.99254 160.861 7.40806 160.861H1.05829C0.473815 160.861 0 160.387 0 159.803V125.938Z" fill="url(#paint6_linear_0_50)"/>
<path d="M0 128.266C0 128.562 0 128.711 0.0576736 128.824C0.108405 128.923 0.189354 129.004 0.288919 129.055C0.40211 129.113 0.550285 129.113 0.846636 129.113H7.93721V126.255C7.93721 125.959 7.93721 125.811 7.87954 125.698C7.8288 125.598 7.74786 125.517 7.64829 125.466C7.5351 125.409 7.38692 125.409 7.09057 125.409H0.846635C0.550285 125.409 0.40211 125.409 0.288919 125.466C0.189354 125.517 0.108405 125.598 0.0576736 125.698C0 125.811 0 125.959 0 126.255L0 128.266Z" fill="url(#paint7_linear_0_50)"/>
<path d="M0 157.474C0 157.178 0 157.03 0.0576736 156.917C0.108405 156.817 0.189354 156.736 0.288919 156.685C0.40211 156.628 0.550285 156.628 0.846636 156.628H7.93721V159.485C7.93721 159.782 7.93721 159.93 7.87954 160.043C7.8288 160.142 7.74786 160.223 7.64829 160.274C7.5351 160.332 7.38692 160.332 7.09057 160.332H0.846635C0.550285 160.332 0.40211 160.332 0.288919 160.274C0.189354 160.223 0.108405 160.142 0.0576736 160.043C0 159.93 0 159.782 0 159.485L0 157.474Z" fill="url(#paint8_linear_0_50)"/>
<path fill-rule="evenodd" clip-rule="evenodd" d="M0.115347 160.283C0 160.057 0 159.761 0 159.168V126.573C0 125.98 0 125.683 0.115347 125.457C0.216809 125.258 0.378708 125.096 0.577839 124.995C0.804221 124.879 1.10057 124.879 1.69327 124.879H6.77309C7.36579 124.879 7.66214 124.879 7.88852 124.995C8.08765 125.096 8.24955 125.258 8.35101 125.457C8.46636 125.683 8.46636 125.98 8.46636 126.573V159.168C8.46636 159.761 8.46636 160.057 8.35101 160.283C8.24955 160.483 8.08765 160.644 7.88852 160.746C7.66214 160.861 7.36579 160.861 6.77309 160.861H1.69327C1.10057 160.861 0.804221 160.861 0.577839 160.746C0.378708 160.644 0.216809 160.483 0.115347 160.283ZM0.586821 160.043C0.529147 159.93 0.529147 159.782 0.529147 159.485V126.255C0.529147 125.959 0.529147 125.811 0.586821 125.697C0.637552 125.598 0.718501 125.517 0.818067 125.466C0.931258 125.408 1.07943 125.408 1.37578 125.408H7.09057C7.38692 125.408 7.5351 125.408 7.64829 125.466C7.74786 125.517 7.82881 125.598 7.87954 125.697C7.93721 125.811 7.93721 125.959 7.93721 126.255V159.485C7.93721 159.782 7.93721 159.93 7.87954 160.043C7.82881 160.143 7.74786 160.224 7.64829 160.274C7.5351 160.332 7.38692 160.332 7.09057 160.332H1.37578C1.07943 160.332 0.931258 160.332 0.818067 160.274C0.718501 160.224 0.637552 160.143 0.586821 160.043Z" fill="#353638"/>
<path d="M0 92.0724C0 91.4879 0.473815 91.0141 1.05829 91.0141H7.40806C7.99254 91.0141 8.46636 91.4879 8.46636 92.0724V109.005C8.46636 109.59 7.99254 110.063 7.40806 110.063H1.05829C0.473815 110.063 0 109.59 0 109.005V92.0724Z" fill="url(#paint9_linear_0_50)"/>
<path d="M0 94.4008C0 94.6972 0 94.8454 0.0576736 94.9585C0.108405 95.0581 0.189354 95.1391 0.288919 95.1898C0.40211 95.2475 0.550285 95.2475 0.846636 95.2475H7.93721V92.3901C7.93721 92.0937 7.93721 91.9455 7.87954 91.8323C7.8288 91.7328 7.74786 91.6518 7.64829 91.6011C7.5351 91.5434 7.38692 91.5434 7.09057 91.5434H0.846635C0.550285 91.5434 0.40211 91.5434 0.288919 91.6011C0.189354 91.6518 0.108405 91.7328 0.0576736 91.8323C0 91.9455 0 92.0937 0 92.3901L0 94.4008Z" fill="url(#paint10_linear_0_50)"/>
<path d="M0 107.206C0 106.909 0 106.761 0.0576736 106.648C0.108405 106.548 0.189354 106.467 0.288919 106.417C0.40211 106.359 0.550285 106.359 0.846636 106.359H7.93721V109.216C7.93721 109.513 7.93721 109.661 7.87954 109.774C7.8288 109.874 7.74786 109.955 7.64829 110.005C7.5351 110.063 7.38692 110.063 7.09057 110.063H1.69327C1.10057 110.063 0.804221 110.063 0.577839 109.948C0.378708 109.846 0.216809 109.684 0.115347 109.485C0 109.259 0 108.962 0 108.37L0 107.206Z" fill="url(#paint11_linear_0_50)"/>
<path fill-rule="evenodd" clip-rule="evenodd" d="M0.115347 109.486C0 109.259 0 108.963 0 108.37V92.7073C0 92.1146 0 91.8183 0.115347 91.5919C0.216809 91.3928 0.378708 91.2309 0.577839 91.1294C0.804221 91.0141 1.10057 91.0141 1.69327 91.0141H6.77309C7.36579 91.0141 7.66214 91.0141 7.88852 91.1294C8.08765 91.2309 8.24955 91.3928 8.35101 91.5919C8.46636 91.8183 8.46636 92.1146 8.46636 92.7073V108.37C8.46636 108.963 8.46636 109.259 8.35101 109.486C8.24955 109.685 8.08765 109.847 7.88852 109.948C7.66214 110.063 7.36579 110.063 6.77309 110.063H1.69327C1.10057 110.063 0.804221 110.063 0.577839 109.948C0.378708 109.847 0.216809 109.685 0.115347 109.486ZM0.586821 109.245C0.529147 109.132 0.529147 108.984 0.529147 108.688V92.3898C0.529147 92.0935 0.529147 91.9453 0.586821 91.8321C0.637552 91.7326 0.718501 91.6516 0.818067 91.6009C0.931258 91.5432 1.07943 91.5432 1.37578 91.5432H7.09057C7.38692 91.5432 7.5351 91.5432 7.64829 91.6009C7.74786 91.6516 7.82881 91.7326 7.87954 91.8321C7.93721 91.9453 7.93721 92.0935 7.93721 92.3898V108.688C7.93721 108.984 7.93721 109.132 7.87954 109.245C7.82881 109.345 7.74786 109.426 7.64829 109.477C7.5351 109.534 7.38692 109.534 7.09057 109.534H1.37578C1.07943 109.534 0.931258 109.534 0.818067 109.477C0.718501 109.426 0.637552 109.345 0.586821 109.245Z" fill="#353638"/>
<path fill-rule="evenodd" clip-rule="evenodd" d="M9.38632 24.2177C5.2915 32.2543 5.2915 42.7747 5.2915 63.8156V408.185C5.2915 429.226 5.2915 439.746 9.38632 447.783C12.9882 454.852 18.7356 460.599 25.8048 464.201C33.8413 468.296 44.3618 468.296 65.4026 468.296H166.893C187.934 468.296 198.454 468.296 206.491 464.201C213.56 460.599 219.307 454.852 222.909 447.783C227.004 439.746 227.004 429.226 227.004 408.185V63.8156C227.004 42.7747 227.004 32.2543 222.909 24.2177C219.307 17.1486 213.56 11.4012 206.491 7.79929C198.454 3.70446 187.934 3.70446 166.893 3.70446H65.4026C44.3618 3.70446 33.8413 3.70446 25.8048 7.79929C18.7356 11.4012 12.9882 17.1486 9.38632 24.2177ZM15.4001 26.7629C12.1704 33.1016 12.1704 41.3994 12.1704 57.995V414.005C12.1704 430.601 12.1704 438.899 15.4001 445.237C18.2411 450.813 22.7742 455.346 28.3499 458.187C34.6886 461.417 42.9864 461.417 59.582 461.417H172.714C189.309 461.417 197.607 461.417 203.946 458.187C209.521 455.346 214.055 450.813 216.896 445.237C220.125 438.899 220.125 430.601 220.125 414.005V57.995C220.125 41.3994 220.125 33.1016 216.896 26.7629C214.055 21.1872 209.521 16.654 203.946 13.8131C197.607 10.5834 189.309 10.5834 172.714 10.5834H59.582C42.9864 10.5834 34.6886 10.5834 28.3499 13.8131C22.7742 16.654 18.2411 21.1872 15.4001 26.7629Z" fill="black"/>
<path fill-rule="evenodd" clip-rule="evenodd" d="M8.79948 23.3989C4.76232 31.3223 4.76232 41.6945 4.76232 62.4391V409.56C4.76232 430.304 4.76232 440.676 8.79948 448.6C12.3507 455.569 18.0171 461.236 24.9867 464.787C32.91 468.824 43.2823 468.824 64.0268 468.824H168.269C189.013 468.824 199.386 468.824 207.309 464.787C214.279 461.236 219.945 455.569 223.496 448.6C227.533 440.676 227.533 430.304 227.533 409.56V62.4391C227.533 41.6945 227.533 31.3223 223.496 23.3989C219.945 16.4293 214.279 10.7629 207.309 7.21171C199.386 3.17456 189.013 3.17456 168.269 3.17456H64.0268C43.2823 3.17456 32.91 3.17456 24.9867 7.21171C18.0171 10.7629 12.3507 16.4293 8.79948 23.3989ZM9.38632 24.217C5.2915 32.2535 5.2915 42.774 5.2915 63.8148V408.184C5.2915 429.225 5.2915 439.745 9.38632 447.782C12.9882 454.851 18.7356 460.598 25.8048 464.2C33.8413 468.295 44.3618 468.295 65.4026 468.295H166.893C187.934 468.295 198.454 468.295 206.491 464.2C213.56 460.598 219.307 454.851 222.909 447.782C227.004 439.745 227.004 429.225 227.004 408.184V63.8148C227.004 42.774 227.004 32.2535 222.909 24.217C219.307 17.1478 213.56 11.4004 206.491 7.79853C198.454 3.7037 187.934 3.7037 166.893 3.7037H65.4026C44.3618 3.7037 33.8413 3.7037 25.8048 7.79853C18.7356 11.4004 12.9882 17.1478 9.38632 24.217Z" fill="#272624"/>
<path fill-rule="evenodd" clip-rule="evenodd" d="M7.8566 22.9189C3.7041 31.0686 3.7041 41.7372 3.7041 63.0745V408.925C3.7041 430.262 3.7041 440.931 7.8566 449.081C11.5092 456.249 17.3376 462.078 24.5063 465.73C32.656 469.883 43.3246 469.883 64.6619 469.883H167.634C188.971 469.883 199.64 469.883 207.79 465.73C214.958 462.078 220.787 456.249 224.439 449.081C228.592 440.931 228.592 430.262 228.592 408.925V63.0745C228.592 41.7372 228.592 31.0686 224.439 22.9189C220.787 15.7502 214.958 9.92184 207.79 6.2692C199.64 2.1167 188.971 2.1167 167.634 2.1167H64.6619C43.3246 2.1167 32.656 2.1167 24.5063 6.2692C17.3376 9.92184 11.5092 15.7502 7.8566 22.9189ZM8.79955 23.3994C4.76239 31.3227 4.76239 41.695 4.76239 62.4395V409.56C4.76239 430.305 4.76239 440.677 8.79955 448.6C12.3507 455.57 18.0172 461.236 24.9868 464.787C32.9101 468.825 43.2824 468.825 64.0269 468.825H168.269C189.013 468.825 199.386 468.825 207.309 464.787C214.279 461.236 219.945 455.57 223.496 448.6C227.533 440.677 227.533 430.305 227.533 409.56V62.4395C227.533 41.695 227.533 31.3227 223.496 23.3994C219.945 16.4298 214.279 10.7633 207.309 7.21214C199.386 3.17499 189.013 3.17499 168.269 3.17499H64.0269C43.2824 3.17499 32.9101 3.17499 24.9868 7.21214C18.0172 10.7633 12.3507 16.4298 8.79955 23.3994Z" fill="black"/>
<path fill-rule="evenodd" clip-rule="evenodd" d="M6.9136 22.4379C2.64575 30.814 2.64575 41.779 2.64575 63.7089V408.29C2.64575 430.22 2.64575 441.185 6.9136 449.561C10.6677 456.928 16.6579 462.919 24.0258 466.673C32.4019 470.941 43.3669 470.941 65.2968 470.941H166.999C188.929 470.941 199.894 470.941 208.27 466.673C215.638 462.919 221.628 456.928 225.382 449.561C229.65 441.185 229.65 430.22 229.65 408.29V63.7089C229.65 41.779 229.65 30.814 225.382 22.4379C221.628 15.0701 215.638 9.07981 208.27 5.32571C199.894 1.05786 188.929 1.05786 166.999 1.05786H65.2968C43.3669 1.05786 32.4019 1.05786 24.0258 5.32571C16.6579 9.07981 10.6677 15.0701 6.9136 22.4379ZM7.85654 22.9184C3.70404 31.0681 3.70404 41.7367 3.70404 63.0739V408.925C3.70404 430.262 3.70404 440.93 7.85654 449.08C11.5092 456.249 17.3375 462.077 24.5062 465.73C32.656 469.882 43.3246 469.882 64.6618 469.882H167.634C188.971 469.882 199.64 469.882 207.789 465.73C214.958 462.077 220.786 456.249 224.439 449.08C228.592 440.93 228.592 430.262 228.592 408.925V63.0739C228.592 41.7367 228.592 31.0681 224.439 22.9184C220.786 15.7496 214.958 9.9213 207.789 6.26865C199.64 2.11615 188.971 2.11615 167.634 2.11615H64.6618C43.3246 2.11615 32.656 2.11615 24.5062 6.26865C17.3375 9.9213 11.5092 15.7496 7.85654 22.9184Z" fill="#2C2C2C"/>
<path fill-rule="evenodd" clip-rule="evenodd" d="M6.4421 22.1979C2.11657 30.6872 2.11657 41.8003 2.11657 64.0266V407.972C2.11657 430.199 2.11657 441.312 6.4421 449.801C10.2469 457.268 16.3181 463.34 23.7855 467.145C32.2748 471.47 43.388 471.47 65.6143 471.47H166.681C188.908 471.47 200.021 471.47 208.51 467.145C215.978 463.34 222.049 457.268 225.854 449.801C230.179 441.312 230.179 430.199 230.179 407.972V64.0266C230.179 41.8003 230.179 30.6872 225.854 22.1979C222.049 14.7305 215.978 8.65929 208.51 4.85445C200.021 0.52893 188.908 0.52893 166.681 0.52893H65.6143C43.388 0.52893 32.2748 0.52893 23.7855 4.85445C16.3181 8.65929 10.2469 14.7305 6.4421 22.1979ZM6.91357 22.4381C2.64572 30.8142 2.64572 41.7792 2.64572 63.7091V408.29C2.64572 430.22 2.64572 441.185 6.91357 449.561C10.6677 456.929 16.6579 462.919 24.0258 466.673C32.4019 470.941 43.3668 470.941 65.2968 470.941H166.999C188.929 470.941 199.894 470.941 208.27 466.673C215.638 462.919 221.628 456.929 225.382 449.561C229.65 441.185 229.65 430.22 229.65 408.29V63.7091C229.65 41.7792 229.65 30.8142 225.382 22.4381C221.628 15.0703 215.638 9.08003 208.27 5.32592C199.894 1.05808 188.929 1.05808 166.999 1.05808H65.2968C43.3668 1.05808 32.4019 1.05808 24.0258 5.32592C16.6579 9.08003 10.6677 15.0703 6.91357 22.4381Z" fill="#85817D"/>
<path fill-rule="evenodd" clip-rule="evenodd" d="M5.97059 21.9579C1.5874 30.5604 1.5874 41.8217 1.5874 64.3443V407.655C1.5874 430.178 1.5874 441.439 5.97059 450.042C9.82616 457.609 15.9783 463.761 23.5453 467.616C32.1478 471.999 43.4091 471.999 65.9317 471.999H166.364C188.887 471.999 200.148 471.999 208.75 467.616C216.317 463.761 222.469 457.609 226.325 450.042C230.708 441.439 230.708 430.178 230.708 407.655V64.3443C230.708 41.8217 230.708 30.5604 226.325 21.9579C222.469 14.3909 216.317 8.23876 208.75 4.38319C200.148 0 188.887 0 166.364 0H65.9317C43.4091 0 32.1478 0 23.5453 4.38319C15.9783 8.23876 9.82616 14.3909 5.97059 21.9579ZM6.44207 22.1981C2.11655 30.6874 2.11655 41.8006 2.11655 64.0268V407.973C2.11655 430.199 2.11655 441.312 6.44207 449.801C10.2469 457.269 16.3181 463.34 23.7855 467.145C32.2748 471.47 43.388 471.47 65.6142 471.47H166.681C188.908 471.47 200.021 471.47 208.51 467.145C215.977 463.34 222.049 457.269 225.854 449.801C230.179 441.312 230.179 430.199 230.179 407.973V64.0268C230.179 41.8006 230.179 30.6874 225.854 22.1981C222.049 14.7307 215.977 8.6595 208.51 4.85467C200.021 0.529147 188.908 0.529147 166.681 0.529147H65.6142C43.388 0.529147 32.2748 0.529147 23.7855 4.85467C16.3181 8.6595 10.2469 14.7307 6.44207 22.1981Z" fill="#4F4B47"/>
<rect opacity="0.5" x="176.735" width="3.70403" height="3.70403" fill="black"/>
<rect opacity="0.5" x="1.5874" y="49.7399" width="3.70403" height="3.17488" fill="black"/>
<rect opacity="0.5" x="1.5874" y="419.085" width="3.70403" height="3.17488" fill="black"/>
<rect opacity="0.5" x="227.004" y="419.085" width="3.70403" height="3.17488" fill="black"/>
<rect opacity="0.5" x="49.7398" y="468.296" width="3.17488" height="3.70403" fill="black"/>
<path opacity="0.5" d="M92.8654 3.96806H139.43V4.23263C139.43 4.60744 139.43 4.87263 139.413 5.07995C139.397 5.28418 139.365 5.40884 139.315 5.50681C139.214 5.70594 139.052 5.86784 138.853 5.9693C138.755 6.01922 138.63 6.05082 138.426 6.06751C138.218 6.08444 137.953 6.08465 137.578 6.08465H94.7174C94.3426 6.08465 94.0775 6.08444 93.8701 6.06751C93.6659 6.05082 93.5412 6.01922 93.4433 5.9693C93.2441 5.86784 93.0822 5.70594 92.9808 5.50681C92.9309 5.40884 92.8993 5.28418 92.8826 5.07995C92.8656 4.87263 92.8654 4.60744 92.8654 4.23263V3.96806Z" fill="#0F1013" stroke="url(#paint12_linear_0_50)" stroke-width="0.528538"/>
<path opacity="0.8" fill-rule="evenodd" clip-rule="evenodd" d="M93.6592 4.76156C93.6592 4.46932 93.8961 4.23242 94.1884 4.23242H138.108C138.4 4.23242 138.637 4.46932 138.637 4.76156C138.637 5.0538 138.4 5.29071 138.108 5.29071H94.1884C93.8961 5.29071 93.6592 5.0538 93.6592 4.76156Z" fill="#1F2224"/>
<defs>
<linearGradient id="paint0_linear_0_50" x1="228.063" y1="149.22" x2="228.063" y2="206.368" gradientUnits="userSpaceOnUse">
<stop stop-color="#4E4A46"/>
<stop offset="0.484375" stop-color="#736F6B"/>
<stop offset="1" stop-color="#4E4A46"/>
</linearGradient>
<linearGradient id="paint1_linear_0_50" x1="227.798" y1="153.082" x2="227.798" y2="150.119" gradientUnits="userSpaceOnUse">
<stop stop-color="#3C3631"/>
<stop offset="0.249443" stop-color="#050000"/>
<stop offset="0.475668" stop-color="#C1BDB9"/>
<stop offset="0.740898" stop-color="#C1BDB9"/>
<stop offset="1" stop-color="#736F6B"/>
</linearGradient>
<linearGradient id="paint2_linear_0_50" x1="227.798" y1="202.505" x2="227.798" y2="205.468" gradientUnits="userSpaceOnUse">
<stop stop-color="#3C3631"/>
<stop offset="0.249443" stop-color="#050000"/>
<stop offset="0.475668" stop-color="#C1BDB9"/>
<stop offset="0.740898" stop-color="#C1BDB9"/>
<stop offset="1" stop-color="#736F6B"/>
</linearGradient>
<linearGradient id="paint3_linear_0_50" x1="4.23318" y1="169.328" x2="4.23318" y2="205.31" gradientUnits="userSpaceOnUse">
<stop stop-color="#4E4A46"/>
<stop offset="0.484375" stop-color="#736F6B"/>
<stop offset="1" stop-color="#4E4A46"/>
</linearGradient>
<linearGradient id="paint4_linear_0_50" x1="3.9686" y1="173.191" x2="3.9686" y2="170.228" gradientUnits="userSpaceOnUse">
<stop stop-color="#3C3631"/>
<stop offset="0.249443" stop-color="#050000"/>
<stop offset="0.475668" stop-color="#C1BDB9"/>
<stop offset="0.740898" stop-color="#C1BDB9"/>
<stop offset="1" stop-color="#736F6B"/>
</linearGradient>
<linearGradient id="paint5_linear_0_50" x1="3.9686" y1="201.448" x2="3.9686" y2="204.411" gradientUnits="userSpaceOnUse">
<stop stop-color="#3C3631"/>
<stop offset="0.249443" stop-color="#050000"/>
<stop offset="0.475668" stop-color="#C1BDB9"/>
<stop offset="0.740898" stop-color="#C1BDB9"/>
<stop offset="1" stop-color="#736F6B"/>
</linearGradient>
<linearGradient id="paint6_linear_0_50" x1="4.23318" y1="124.879" x2="4.23318" y2="160.861" gradientUnits="userSpaceOnUse">
<stop stop-color="#4E4A46"/>
<stop offset="0.484375" stop-color="#736F6B"/>
<stop offset="1" stop-color="#4E4A46"/>
</linearGradient>
<linearGradient id="paint7_linear_0_50" x1="3.9686" y1="128.742" x2="3.9686" y2="125.779" gradientUnits="userSpaceOnUse">
<stop stop-color="#3C3631"/>
<stop offset="0.249443" stop-color="#050000"/>
<stop offset="0.475668" stop-color="#C1BDB9"/>
<stop offset="0.740898" stop-color="#C1BDB9"/>
<stop offset="1" stop-color="#736F6B"/>
</linearGradient>
<linearGradient id="paint8_linear_0_50" x1="3.9686" y1="156.998" x2="3.9686" y2="159.961" gradientUnits="userSpaceOnUse">
<stop stop-color="#3C3631"/>
<stop offset="0.249443" stop-color="#050000"/>
<stop offset="0.475668" stop-color="#C1BDB9"/>
<stop offset="0.740898" stop-color="#C1BDB9"/>
<stop offset="1" stop-color="#736F6B"/>
</linearGradient>
<linearGradient id="paint9_linear_0_50" x1="4.23318" y1="91.0141" x2="4.23318" y2="110.063" gradientUnits="userSpaceOnUse">
<stop stop-color="#4E4A46"/>
<stop offset="0.484375" stop-color="#736F6B"/>
<stop offset="1" stop-color="#4E4A46"/>
</linearGradient>
<linearGradient id="paint10_linear_0_50" x1="3.9686" y1="94.8771" x2="3.9686" y2="91.9138" gradientUnits="userSpaceOnUse">
<stop stop-color="#3C3631"/>
<stop offset="0.249443" stop-color="#050000"/>
<stop offset="0.475668" stop-color="#C1BDB9"/>
<stop offset="0.740898" stop-color="#C1BDB9"/>
<stop offset="1" stop-color="#736F6B"/>
</linearGradient>
<linearGradient id="paint11_linear_0_50" x1="3.9686" y1="106.729" x2="3.9686" y2="109.693" gradientUnits="userSpaceOnUse">
<stop stop-color="#3C3631"/>
<stop offset="0.249443" stop-color="#050000"/>
<stop offset="0.475668" stop-color="#C1BDB9"/>
<stop offset="0.740898" stop-color="#C1BDB9"/>
<stop offset="1" stop-color="#736F6B"/>
</linearGradient>
<linearGradient id="paint12_linear_0_50" x1="92.6009" y1="3.70349" x2="92.6009" y2="6.34922" gradientUnits="userSpaceOnUse">
<stop stop-color="#101112"/>
<stop offset="1" stop-color="#232425"/>
</linearGradient>
</defs>
</svg>
