<svg width="32" height="25" viewBox="0 0 32 25" fill="none" xmlns="http://www.w3.org/2000/svg">
<g opacity="0.3" clip-path="url(#clip0_625_108013)">
<path d="M8.00475 23.2728C11.8331 24.1773 16.2083 23.6514 20.1477 22.1601C24.0868 20.669 27.6115 18.2048 29.7299 15.2078C31.162 13.1834 31.5448 11.1219 31.03 9.22623C30.5166 7.3356 29.1182 5.6384 27.0427 4.31832C25.7889 3.51437 24.4797 2.79861 22.8416 2.72411C22.5952 2.71304 22.325 2.88065 22.3203 3.16642C22.3021 3.44511 22.5461 3.6409 22.7865 3.65253C24.1939 3.71668 25.3189 4.34852 26.4783 5.08524C28.3551 6.27953 29.5883 7.79104 30.0409 9.43893C30.4922 11.0816 30.1756 12.888 28.8982 14.6966C26.8957 17.5241 23.5521 19.8745 19.7911 21.3022C16.0307 22.7297 11.8739 23.2268 8.25359 22.372C8.09813 22.3355 7.93814 22.2994 7.7749 22.2626C6.2128 21.9107 4.33555 21.4878 2.9207 19.8516C1.48339 18.1903 1.53228 16.2116 2.20617 14.3412C2.89362 12.4199 4.22415 10.6423 5.28872 9.49605C7.61531 6.99621 11.1146 4.60473 15.0888 3.1397C19.0627 1.67485 23.4976 1.14105 27.7016 2.33608L27.7046 2.33689C27.9523 2.40284 28.2416 2.29678 28.3307 2.03727C28.4201 1.77705 28.257 1.51974 28.0048 1.44735C23.5803 0.189942 18.924 0.746806 14.7733 2.26556C10.623 3.78411 6.96367 6.26904 4.52609 8.88788C3.18137 10.339 1.40517 12.7772 0.89553 15.3181C0.549732 17.0637 0.791796 18.8666 2.13598 20.4331C3.74722 22.3019 5.90092 22.7926 7.56257 23.171C7.71433 23.2056 7.86198 23.2392 8.00475 23.2728ZM8.00475 23.2728C8.00471 23.2728 8.00478 23.2728 8.00475 23.2728V23.2728Z" fill="black"/>
<path d="M8.00475 23.2728C11.8331 24.1773 16.2083 23.6514 20.1477 22.1601C24.0868 20.669 27.6115 18.2048 29.7299 15.2078C31.162 13.1834 31.5448 11.1219 31.03 9.22623C30.5166 7.3356 29.1182 5.6384 27.0427 4.31832C25.7889 3.51437 24.4797 2.79861 22.8416 2.72411C22.5952 2.71304 22.325 2.88065 22.3203 3.16642C22.3021 3.44511 22.5461 3.6409 22.7865 3.65253C24.1939 3.71668 25.3189 4.34852 26.4783 5.08524C28.3551 6.27953 29.5883 7.79104 30.0409 9.43892C30.4922 11.0816 30.1756 12.888 28.8982 14.6966C26.8957 17.5241 23.5521 19.8745 19.7911 21.3022C16.0307 22.7297 11.8739 23.2268 8.25359 22.372C8.09813 22.3355 7.93814 22.2994 7.7749 22.2626C6.2128 21.9107 4.33555 21.4878 2.9207 19.8516C1.48339 18.1903 1.53228 16.2116 2.20617 14.3412C2.89362 12.4199 4.22415 10.6423 5.28872 9.49605C7.61531 6.99621 11.1146 4.60473 15.0888 3.1397C19.0627 1.67485 23.4976 1.14105 27.7016 2.33608L27.7046 2.33689C27.9523 2.40284 28.2416 2.29678 28.3307 2.03727C28.4201 1.77705 28.257 1.51974 28.0048 1.44735C23.5803 0.189942 18.924 0.746806 14.7733 2.26556C10.623 3.78411 6.96367 6.26904 4.52609 8.88788C3.18137 10.339 1.40517 12.7772 0.89553 15.3181C0.549732 17.0637 0.791796 18.8666 2.13598 20.4331C3.74722 22.3019 5.90092 22.7926 7.56257 23.171C7.71433 23.2056 7.86198 23.2392 8.00475 23.2728ZM8.00475 23.2728L8.04792 23.0901M8.00475 23.2728C8.00471 23.2728 8.00478 23.2728 8.00475 23.2728Z" stroke="black" stroke-width="0.376442"/>
<path d="M7.30328 12.1447C7.30328 11.1433 7.47019 10.2694 7.80398 9.52262C8.14657 8.776 8.62092 8.19185 9.22704 7.7702C9.84197 7.33976 10.5578 7.12455 11.3748 7.12455C12.2006 7.12455 12.9164 7.33976 13.5225 7.7702C14.1375 8.19185 14.6118 8.776 14.9456 9.52262C15.2882 10.2694 15.4595 11.1433 15.4595 12.1447C15.4595 13.1374 15.297 14.007 14.9719 14.7537C14.647 15.5004 14.1814 16.0802 13.5752 16.493C12.9691 16.9059 12.2357 17.1123 11.3748 17.1123C10.5315 17.1123 9.80244 16.9059 9.18751 16.493C8.58139 16.0802 8.11583 15.5004 7.79081 14.7537C7.46579 14.007 7.30328 13.1374 7.30328 12.1447ZM8.96351 12.1447C8.96351 12.8826 9.06014 13.5151 9.25339 14.0421C9.44667 14.5605 9.72338 14.9557 10.0835 15.228C10.4437 15.4916 10.8741 15.6233 11.3748 15.6233C11.8931 15.6233 12.3279 15.4916 12.6792 15.228C13.0394 14.9557 13.3161 14.5605 13.5094 14.0421C13.7027 13.5151 13.7992 12.8826 13.7992 12.1447C13.7992 11.3805 13.7027 10.7393 13.5094 10.221C13.3161 9.69392 13.0394 9.29427 12.6792 9.02196C12.3279 8.74964 11.8931 8.61349 11.3748 8.61349C10.8741 8.61349 10.4437 8.74964 10.0835 9.02196C9.72338 9.29427 9.44667 9.69392 9.25339 10.221C9.06014 10.7393 8.96351 11.3805 8.96351 12.1447Z" fill="black"/>
<path d="M22.8149 8.65314L19.3363 11.855L18.2294 11.0776L21.6026 7.98114L21.3127 8.79808H16.701V7.30914H22.8149V8.65314ZM19.4022 12.1712H18.2294V11.0776C18.3964 10.9458 18.616 10.858 18.8883 10.814C19.1606 10.7613 19.4153 10.735 19.6525 10.735C20.1094 10.735 20.5442 10.8053 20.957 10.9458C21.3699 11.0864 21.7344 11.2928 22.0506 11.5651C22.3757 11.8286 22.6304 12.158 22.8149 12.5533C22.9993 12.9399 23.0916 13.3834 23.0916 13.8841C23.0916 14.543 22.9379 15.114 22.6304 15.5971C22.323 16.0803 21.9014 16.4536 21.3654 16.7171C20.8384 16.9806 20.2499 17.1124 19.5998 17.1124C18.9673 17.1124 18.3964 16.9895 17.8869 16.7434C17.3862 16.4888 16.9865 16.1198 16.6878 15.6366C16.3979 15.1535 16.253 14.565 16.253 13.871H17.9132C17.9132 14.4244 18.067 14.8549 18.3744 15.1623C18.6906 15.461 19.1079 15.6103 19.6262 15.6103C20.1532 15.6103 20.5749 15.4521 20.8911 15.1359C21.2162 14.8109 21.3786 14.3848 21.3786 13.8578C21.3786 13.3747 21.2162 12.975 20.8911 12.6587C20.5661 12.3337 20.0698 12.1712 19.4022 12.1712Z" fill="black"/>
</g>
<defs>
<clipPath id="clip0_625_108013">
<rect width="31.9976" height="24.4688" fill="white"/>
</clipPath>
</defs>
</svg>
