<svg width="32" height="25" viewBox="0 0 32 25" fill="none" xmlns="http://www.w3.org/2000/svg">
<g clip-path="url(#clip0_625_107999)">
<path d="M8.00475 23.5651C11.8331 24.4695 16.2083 23.9436 20.1477 22.4524C24.0868 20.9613 27.6115 18.497 29.7299 15.5001C31.162 13.4756 31.5448 11.4141 31.03 9.51853C30.5166 7.62787 29.1182 5.93066 27.0427 4.61058C25.7889 3.80664 24.4797 3.09086 22.8416 3.01636C22.5952 3.00529 22.325 3.17291 22.3203 3.45868C22.3021 3.73736 22.5461 3.93316 22.7865 3.94479C24.1939 4.00894 25.3189 4.64077 26.4783 5.3775C28.3551 6.57179 29.5883 8.0833 30.0409 9.73114C30.4922 11.3738 30.1756 13.1803 28.8982 14.9888C26.8957 17.8164 23.5521 20.1668 19.7911 21.5945C16.0307 23.022 11.8739 23.5191 8.25359 22.6642C8.09813 22.6277 7.93814 22.5916 7.7749 22.5548C6.2128 22.2029 4.33555 21.78 2.9207 20.1439C1.48339 18.4827 1.53228 16.5039 2.20617 14.6335C2.89362 12.7121 4.22415 10.9346 5.28872 9.78836C7.61531 7.28847 11.1146 4.897 15.0888 3.43196C19.0627 1.96711 23.4976 1.43331 27.7016 2.62834L27.7046 2.62914C27.9523 2.69511 28.2416 2.58905 28.3307 2.32953C28.4201 2.06931 28.257 1.81199 28.0048 1.73961C23.5803 0.482191 18.924 1.03906 14.7733 2.55781C10.623 4.07638 6.96367 6.5613 4.52609 9.18014C3.18137 10.6313 1.40517 13.0695 0.89553 15.6103C0.549732 17.356 0.791796 19.1588 2.13598 20.7254C3.74722 22.5942 5.90092 23.0848 7.56257 23.4633C7.71433 23.4978 7.86198 23.5314 8.00475 23.5651ZM8.00475 23.5651C8.00471 23.5651 8.00478 23.5651 8.00475 23.5651V23.5651Z" fill="black"/>
<path d="M8.00475 23.5651C11.8331 24.4695 16.2083 23.9436 20.1477 22.4524C24.0868 20.9613 27.6115 18.497 29.7299 15.5001C31.162 13.4756 31.5448 11.4141 31.03 9.51853C30.5166 7.62787 29.1182 5.93066 27.0427 4.61058C25.7889 3.80664 24.4797 3.09086 22.8416 3.01636C22.5952 3.00529 22.325 3.17291 22.3203 3.45868C22.3021 3.73736 22.5461 3.93316 22.7865 3.94479C24.1939 4.00894 25.3189 4.64077 26.4783 5.3775C28.3551 6.57179 29.5883 8.0833 30.0409 9.73114C30.4922 11.3738 30.1756 13.1803 28.8982 14.9888C26.8957 17.8164 23.5521 20.1668 19.7911 21.5945C16.0307 23.022 11.8739 23.5191 8.25359 22.6642C8.09813 22.6277 7.93814 22.5916 7.7749 22.5548C6.2128 22.2029 4.33555 21.78 2.9207 20.1439C1.48339 18.4827 1.53228 16.5039 2.20617 14.6335C2.89362 12.7121 4.22415 10.9346 5.28872 9.78836C7.61531 7.28847 11.1146 4.897 15.0888 3.43196C19.0627 1.96711 23.4976 1.43331 27.7016 2.62834L27.7046 2.62914C27.9523 2.69511 28.2416 2.58905 28.3307 2.32953C28.4201 2.06931 28.257 1.81199 28.0048 1.73961C23.5803 0.482191 18.924 1.03906 14.7733 2.55781C10.623 4.07638 6.96367 6.5613 4.52609 9.18014C3.18137 10.6313 1.40517 13.0695 0.89553 15.6103C0.549732 17.356 0.791796 19.1588 2.13598 20.7254C3.74722 22.5942 5.90092 23.0848 7.56257 23.4633C7.71433 23.4978 7.86198 23.5314 8.00475 23.5651ZM8.00475 23.5651L8.04792 23.3823M8.00475 23.5651C8.00471 23.5651 8.00478 23.5651 8.00475 23.5651Z" stroke="black" stroke-width="0.376442"/>
<path d="M8.41084 13.3783C8.41084 12.3769 8.57775 11.5028 8.91155 10.7562C9.25414 10.0095 9.72847 9.42535 10.3346 9.00369C10.9496 8.57326 11.6654 8.35804 12.4824 8.35804C13.3081 8.35804 14.024 8.57326 14.6301 9.00369C15.2451 9.42535 15.7194 10.0095 16.0532 10.7562C16.3958 11.5028 16.5671 12.3769 16.5671 13.3783C16.5671 14.3709 16.4046 15.2406 16.0795 15.9872C15.7545 16.7339 15.2889 17.3136 14.6828 17.7265C14.0767 18.1394 13.3432 18.3458 12.4824 18.3458C11.6391 18.3458 10.91 18.1394 10.2951 17.7265C9.68894 17.3136 9.2234 16.7339 8.89837 15.9872C8.57336 15.2406 8.41084 14.3709 8.41084 13.3783ZM10.0711 13.3783C10.0711 14.1162 10.1677 14.7486 10.3609 15.2757C10.5543 15.794 10.831 16.1893 11.1911 16.4616C11.5512 16.7251 11.9816 16.8569 12.4824 16.8569C13.0007 16.8569 13.4355 16.7251 13.7868 16.4616C14.147 16.1893 14.4237 15.794 14.6169 15.2757C14.8103 14.7486 14.9068 14.1162 14.9068 13.3783C14.9068 12.6141 14.8103 11.9728 14.6169 11.4545C14.4237 10.9275 14.147 10.5277 13.7868 10.2555C13.4355 9.98318 13.0007 9.84699 12.4824 9.84699C11.9816 9.84699 11.5512 9.98318 11.1911 10.2555C10.831 10.5277 10.5543 10.9275 10.3609 11.4545C10.1677 11.9728 10.0711 12.6141 10.0711 13.3783Z" fill="black"/>
<path d="M19.6916 10.0579H17.5833V8.54263H21.2991V18.1746H19.6916V10.0579Z" fill="black"/>
</g>
<defs>
<clipPath id="clip0_625_107999">
<rect width="31.9976" height="24.4688" fill="white"/>
</clipPath>
</defs>
</svg>
