<svg width="100" height="100" viewBox="0 0 100 100" fill="none" xmlns="http://www.w3.org/2000/svg">
<path d="M10.8724 26.1083C11.6349 25.0833 12.6391 23.6958 13.4432 22.7042C15.8516 19.9708 16.1641 19.6125 18.3558 17.5917C19.0058 17.0583 19.7766 16.4167 20.5308 15.8125C14.9682 20.5208 14.2599 25.7333 19.3641 28.9542C19.3558 28.9542 19.3558 28.9542 19.3558 28.9625C26.4933 33.2625 42.135 32.3333 54.4766 26.825C66.4308 21.4917 70.8433 13.8625 64.9433 9.32917C59.7641 8.35833 53.5891 8.24583 47.0558 9.12083L46.3766 8L46.9391 6.14167C50.7808 5.79583 54.4308 5.87917 57.5808 6.41667C58.3433 6.54583 59.3475 6.76667 60.0975 6.925C61.5474 7.27917 62.3349 7.49167 63.2808 7.79583C64.2474 8.08333 65.0724 8.37083 66.5099 8.90417C67.9183 9.45833 68.5266 9.70833 69.6558 10.2708C70.9203 10.8478 72.1488 11.5003 73.335 12.225C82.7349 18.1375 76.8891 28.925 60.3016 36.3167C43.76 43.6833 22.6808 44.8417 13.2349 39C13.2307 38.9917 13.2182 38.9833 13.1932 38.975H13.2099C8.05157 35.7083 7.5099 30.9667 10.8724 26.1083ZM53.91 67.4417L53.7766 60.8L49.0558 55.55C33.46 59.0833 18.1308 58.325 9.60574 53.3042C9.57657 53.2708 9.50574 53.2375 9.47657 53.2042C4.65157 50.2333 3.4599 46.4 3.8224 42.2333C2.69324 48.3292 2.60157 50.5292 2.76407 55.7458C2.96407 59.0125 4.85157 62.025 8.6474 64.4L8.67657 64.4333C17.7641 70.0833 36.6975 71.3083 53.91 67.4417ZM73.5975 75.0458C51.585 83.875 24.035 84.3958 12.0682 76.225C13.3606 79.3832 15.119 82.3298 17.285 84.9667C28.2683 92.4667 53.5558 91.9875 73.7516 83.8833C85.5724 79.1458 93.0308 72.8417 94.9891 66.9333L95.5391 65.1542C96.8433 60.6458 97.0891 56.8917 97.2975 53.55C97.06 60.8042 88.5141 69.0542 73.5975 75.0458ZM25.0058 92.05C25.6975 92.7083 27.8725 95.3792 38.8933 98.3292C41.8725 98.9875 49.3725 101.1 63.2266 98.0292L63.31 96.7667L62.2141 95.05C49.36 98.0917 35.0808 97.075 25.0058 92.05ZM56.8141 39.5125L68.5183 48.3833C68.5183 48.3833 71.0225 50.1875 68.66 51.4542C66.3058 52.7083 60.2599 55.7792 60.2599 55.7792L54.2891 53.55L51.2933 54.8833L56.5766 59.4708L56.6183 66.6083L59.7225 65.2292L61.7808 59.2C61.7808 59.2 68.1016 56.7667 70.61 55.85C73.1308 54.9542 72.7933 58.0208 72.7933 58.0208L71.5516 72.65L75.6766 70.8167L82.4683 51.0792C82.4683 51.0792 86.0683 49.3292 88.6016 47.7917C91.1308 46.2542 91.9975 43.7042 91.9975 43.7042C91.9975 43.7042 89.5308 42.6417 86.6891 43.4958C83.8475 44.3417 80.1433 45.85 80.1433 45.85L60.9266 37.6875L56.8141 39.5125ZM32.0516 11.4458L39.9975 17.775L42.1683 17.45L37.8433 11.7708C37.8433 11.7708 36.9016 10.5958 38.1683 10.3167C39.4433 10.0333 42.6683 9.375 42.6683 9.375L45.0933 11.3125L46.7266 11.0708L44.8766 8.12917L45.8516 4.86667L44.2724 5.09583L42.4016 7.57917C42.4016 7.57917 39.1183 7.8875 37.8266 7.99583C36.5266 8.09583 37.0849 6.7 37.0849 6.7L39.5766 0L37.3933 0.320833L31.6433 8.69167C31.6433 8.69167 29.7266 9.04167 28.3391 9.4375C26.9475 9.82917 26.2141 10.9042 26.2141 10.9042C26.2141 10.9042 27.235 11.7292 28.6725 11.7C30.1225 11.6708 32.0516 11.4458 32.0516 11.4458ZM71.3224 92.7708L66.1808 90.0833L64.9975 90.4958L68.0433 93.2208C68.0433 93.2208 68.6933 93.775 68.0099 94.0708C67.3266 94.3625 65.585 95.0792 65.585 95.0792L64.1474 94.4375L63.2933 94.7458L64.4891 96.0208L64.3725 97.8833L65.2641 97.575L65.9308 96.0625C65.9308 96.0625 67.7391 95.525 68.46 95.3333C69.1766 95.1375 69.0141 95.9792 69.0141 95.9792L68.335 100L69.5225 99.5875L71.8516 94.2708C71.8516 94.2708 72.8808 93.8667 73.6183 93.4958C74.3558 93.125 74.6475 92.4417 74.6475 92.4417C74.6475 92.4417 73.9933 92.0833 73.185 92.2625C72.3725 92.4333 71.3224 92.7708 71.3224 92.7708Z" fill="#0098D6"/>
</svg>
