<svg width="17" height="17" viewBox="0 0 17 17" fill="none" xmlns="http://www.w3.org/2000/svg">
<path d="M4.09919 1.89103C4.07554 0.817594 3.30792 0 2.06142 0C0.814919 0 0 0.817594 0 1.89103C0 2.94224 0.790833 3.78337 2.01412 3.78337H2.03741C3.30792 3.78337 4.09919 2.94224 4.09919 1.89103Z" fill="white"/>
<path d="M3.85921 5.27772H0.215469V16.2257H3.85921V5.27772Z" fill="white"/>
<path d="M12.8046 5.02061C15.2024 5.02061 16.9999 6.58568 16.9999 9.94841L16.9998 16.2256H13.3562V10.3685C13.3562 8.89728 12.8289 7.89338 11.5099 7.89338C10.5032 7.89338 9.90362 8.57015 9.64028 9.22382C9.54393 9.45809 9.52028 9.78448 9.52028 10.1117V16.2259H5.8761C5.8761 16.2259 5.92413 6.30527 5.8761 5.27798H9.52028V6.82866C10.0039 6.08322 10.87 5.02061 12.8046 5.02061Z" fill="white"/>
</svg>
