<svg width="32" height="25" viewBox="0 0 32 25" fill="none" xmlns="http://www.w3.org/2000/svg">
<g opacity="0.3" clip-path="url(#clip0_625_108027)">
<path d="M8.00475 23.2728C11.8331 24.1772 16.2083 23.6514 20.1477 22.1601C24.0868 20.6691 27.6115 18.2047 29.7299 15.2078C31.162 13.1833 31.5448 11.1219 31.03 9.22624C30.5166 7.3356 29.1182 5.6384 27.0427 4.31832C25.7889 3.51437 24.4797 2.79861 22.8416 2.72411C22.5952 2.71304 22.325 2.88066 22.3203 3.16643C22.3021 3.44511 22.5461 3.6409 22.7865 3.65253C24.1939 3.71668 25.3189 4.34852 26.4783 5.08524C28.3551 6.27953 29.5883 7.79104 30.0409 9.43887C30.4922 11.0816 30.1756 12.888 28.8982 14.6966C26.8957 17.5241 23.5521 19.8745 19.7911 21.3022C16.0307 22.7297 11.8739 23.2268 8.25359 22.372C8.09813 22.3355 7.93814 22.2994 7.7749 22.2627C6.2128 21.9107 4.33555 21.4877 2.9207 19.8517C1.48339 18.1904 1.53228 16.2117 2.20617 14.3413C2.89362 12.4199 4.22415 10.6423 5.28872 9.49609C7.61531 6.99621 11.1146 4.60473 15.0888 3.13971C19.0627 1.67485 23.4976 1.14105 27.7016 2.33609L27.7046 2.33689C27.9523 2.40284 28.2416 2.29678 28.3307 2.03727C28.4201 1.77706 28.257 1.51974 28.0048 1.44735C23.5803 0.189942 18.924 0.746806 14.7733 2.26555C10.623 3.78412 6.96367 6.26903 4.52609 8.88787C3.18137 10.339 1.40517 12.7772 0.89553 15.3181C0.549732 17.0638 0.791796 18.8665 2.13598 20.4331C3.74722 22.3019 5.90092 22.7926 7.56257 23.171C7.71433 23.2055 7.86198 23.2391 8.00475 23.2728ZM8.00475 23.2728C8.00471 23.2728 8.00478 23.2728 8.00475 23.2728V23.2728Z" fill="black"/>
<path d="M8.00475 23.2728C11.8331 24.1772 16.2083 23.6514 20.1477 22.1601C24.0868 20.6691 27.6115 18.2047 29.7299 15.2078C31.162 13.1833 31.5448 11.1219 31.03 9.22624C30.5166 7.3356 29.1182 5.6384 27.0427 4.31832C25.7889 3.51437 24.4797 2.79861 22.8416 2.72411C22.5952 2.71304 22.325 2.88066 22.3203 3.16643C22.3021 3.44511 22.5461 3.6409 22.7865 3.65253C24.1939 3.71668 25.3189 4.34852 26.4783 5.08524C28.3551 6.27953 29.5883 7.79104 30.0409 9.43887C30.4922 11.0816 30.1756 12.888 28.8982 14.6966C26.8957 17.5241 23.5521 19.8745 19.7911 21.3022C16.0307 22.7297 11.8739 23.2268 8.25359 22.372C8.09813 22.3355 7.93814 22.2994 7.7749 22.2627C6.2128 21.9107 4.33555 21.4877 2.9207 19.8517C1.48339 18.1904 1.53228 16.2117 2.20617 14.3413C2.89362 12.4199 4.22415 10.6423 5.28872 9.49609C7.61531 6.99621 11.1146 4.60473 15.0888 3.13971C19.0627 1.67485 23.4976 1.14105 27.7016 2.33609L27.7046 2.33689C27.9523 2.40284 28.2416 2.29678 28.3307 2.03727C28.4201 1.77706 28.257 1.51974 28.0048 1.44735C23.5803 0.189942 18.924 0.746806 14.7733 2.26555C10.623 3.78412 6.96367 6.26903 4.52609 8.88787C3.18137 10.339 1.40517 12.7772 0.89553 15.3181C0.549732 17.0638 0.791796 18.8665 2.13598 20.4331C3.74722 22.3019 5.90092 22.7926 7.56257 23.171C7.71433 23.2055 7.86198 23.2391 8.00475 23.2728ZM8.00475 23.2728L8.04792 23.0901M8.00475 23.2728C8.00471 23.2728 8.00478 23.2728 8.00475 23.2728Z" stroke="black" stroke-width="0.376442"/>
<path d="M7.55525 12.1448C7.55525 11.1434 7.72215 10.2693 8.05595 9.52266C8.39854 8.77601 8.8729 8.19185 9.47899 7.7702C10.094 7.33976 10.8098 7.12455 11.6268 7.12455C12.4525 7.12455 13.1684 7.33976 13.7745 7.7702C14.3895 8.19185 14.8638 8.77601 15.1976 9.52266C15.5402 10.2693 15.7115 11.1434 15.7115 12.1448C15.7115 13.1374 15.549 14.0071 15.2239 14.7537C14.8989 15.5003 14.4333 16.0801 13.8272 16.493C13.2211 16.9059 12.4876 17.1123 11.6268 17.1123C10.7835 17.1123 10.0544 16.9059 9.43946 16.493C8.83337 16.0801 8.36779 15.5003 8.04278 14.7537C7.71776 14.0071 7.55525 13.1374 7.55525 12.1448ZM9.21548 12.1448C9.21548 12.8827 9.31211 13.5151 9.50535 14.0422C9.69866 14.5605 9.97537 14.9558 10.3355 15.2281C10.6957 15.4916 11.1261 15.6234 11.6268 15.6234C12.1451 15.6234 12.5799 15.4916 12.9312 15.2281C13.2914 14.9558 13.5681 14.5605 13.7613 14.0422C13.9547 13.5151 14.0512 12.8827 14.0512 12.1448C14.0512 11.3805 13.9547 10.7393 13.7613 10.221C13.5681 9.69395 13.2914 9.29427 12.9312 9.02196C12.5799 8.74964 12.1451 8.61349 11.6268 8.61349C11.1261 8.61349 10.6957 8.74964 10.3355 9.02196C9.97537 9.29427 9.69866 9.69395 9.50535 10.221C9.31211 10.7393 9.21548 11.3805 9.21548 12.1448Z" fill="black"/>
<path d="M20.1664 17.0992C19.4989 17.0992 18.9102 16.9675 18.4008 16.7039C17.9001 16.4317 17.5092 16.0539 17.2281 15.5708C16.9558 15.0788 16.8196 14.5079 16.8196 13.8578H18.4798C18.4798 14.4025 18.6335 14.8285 18.941 15.1359C19.2485 15.4434 19.6701 15.5971 20.206 15.5971C20.5837 15.5971 20.9087 15.5225 21.181 15.3731C21.4621 15.215 21.6773 14.991 21.8267 14.7011C21.9848 14.4112 22.0638 14.0731 22.0638 13.6865C22.0638 13.3176 21.9892 12.9926 21.8398 12.7115C21.6993 12.4216 21.4928 12.1976 21.2205 12.0395C20.9483 11.8814 20.6189 11.8023 20.2323 11.8023C19.8634 11.8023 19.5208 11.8858 19.2045 12.0527C18.8971 12.2108 18.6556 12.4172 18.4798 12.6719L16.9909 12.3557L18.1768 7.30914H23.197V8.86396H18.9542L19.5208 8.3369L18.7434 11.407L18.1768 11.6442C18.3876 11.2401 18.7038 10.9327 19.1255 10.7218C19.5559 10.5023 20.0391 10.3924 20.5749 10.3924C21.2161 10.3924 21.774 10.5286 22.2483 10.8009C22.7314 11.0732 23.1048 11.451 23.3683 11.9341C23.6406 12.4084 23.7768 12.9618 23.7768 13.5943C23.7768 14.2882 23.6231 14.8988 23.3156 15.4258C23.017 15.9529 22.5953 16.3658 22.0507 16.6644C21.5149 16.9543 20.8867 17.0992 20.1664 17.0992Z" fill="black"/>
</g>
<defs>
<clipPath id="clip0_625_108027">
<rect width="31.9976" height="24.4688" fill="white"/>
</clipPath>
</defs>
</svg>
