<svg width="246" height="500" viewBox="0 0 246 500" fill="none" xmlns="http://www.w3.org/2000/svg">
<path d="M237.034 159.144C237.034 158.525 237.536 158.023 238.155 158.023H244.879C245.498 158.023 246 158.525 246 159.144V217.421C246 218.04 245.498 218.542 244.879 218.542H238.155C237.536 218.542 237.034 218.04 237.034 217.421V159.144Z" fill="url(#paint0_linear_0_103)"/>
<path d="M237.034 161.609C237.034 161.923 237.034 162.08 237.095 162.199C237.149 162.305 237.235 162.391 237.34 162.444C237.46 162.505 237.617 162.505 237.931 162.505H245.44V159.479C245.44 159.166 245.44 159.009 245.379 158.889C245.325 158.783 245.239 158.698 245.134 158.644C245.014 158.583 244.857 158.583 244.543 158.583H237.931C237.617 158.583 237.46 158.583 237.34 158.644C237.235 158.698 237.149 158.783 237.095 158.889C237.034 159.009 237.034 159.166 237.034 159.479V161.609Z" fill="url(#paint1_linear_0_103)"/>
<path d="M237.034 214.956C237.034 214.642 237.034 214.485 237.095 214.365C237.149 214.26 237.235 214.174 237.34 214.12C237.46 214.059 237.617 214.059 237.931 214.059H245.44V217.085C245.44 217.399 245.44 217.556 245.379 217.676C245.325 217.781 245.239 217.867 245.134 217.921C245.014 217.982 244.857 217.982 244.543 217.982H237.931C237.617 217.982 237.46 217.982 237.34 217.921C237.235 217.867 237.149 217.781 237.095 217.676C237.034 217.556 237.034 217.399 237.034 217.085V214.956Z" fill="url(#paint2_linear_0_103)"/>
<path fill-rule="evenodd" clip-rule="evenodd" d="M237.156 217.93C237.034 217.691 237.034 217.377 237.034 216.749V159.816C237.034 159.188 237.034 158.875 237.156 158.635C237.264 158.424 237.435 158.252 237.646 158.145C237.886 158.023 238.2 158.023 238.827 158.023H244.207C244.834 158.023 245.148 158.023 245.388 158.145C245.599 158.252 245.77 158.424 245.878 158.635C246 158.875 246 159.188 246 159.816V216.749C246 217.377 246 217.691 245.878 217.93C245.77 218.141 245.599 218.313 245.388 218.42C245.148 218.542 244.834 218.542 244.207 218.542H238.827C238.2 218.542 237.886 218.542 237.646 218.42C237.435 218.313 237.264 218.141 237.156 217.93ZM237.656 217.676C237.595 217.556 237.595 217.399 237.595 217.085V159.48C237.595 159.166 237.595 159.009 237.656 158.889C237.709 158.784 237.795 158.698 237.9 158.644C238.02 158.583 238.177 158.583 238.491 158.583H244.543C244.857 158.583 245.014 158.583 245.134 158.644C245.239 158.698 245.325 158.784 245.379 158.889C245.44 159.009 245.44 159.166 245.44 159.48V217.085C245.44 217.399 245.44 217.556 245.379 217.676C245.325 217.781 245.239 217.867 245.134 217.921C245.014 217.982 244.857 217.982 244.543 217.982H238.491C238.177 217.982 238.02 217.982 237.9 217.921C237.795 217.867 237.709 217.781 237.656 217.676Z" fill="#353638"/>
<path d="M0 180.437C0 179.818 0.501767 179.316 1.12073 179.316H7.8451C8.46406 179.316 8.96583 179.818 8.96583 180.437V216.3C8.96583 216.919 8.46406 217.421 7.8451 217.421H1.12073C0.501767 217.421 0 216.919 0 216.3V180.437Z" fill="url(#paint3_linear_0_103)"/>
<path d="M0 182.902C0 183.216 0 183.373 0.0610761 183.493C0.1148 183.598 0.200525 183.684 0.305964 183.738C0.425833 183.799 0.58275 183.799 0.896583 183.799H8.40547V180.773C8.40547 180.459 8.40547 180.302 8.34439 180.182C8.29067 180.077 8.20494 179.991 8.0995 179.938C7.97963 179.876 7.82272 179.876 7.50888 179.876H0.896584C0.58275 179.876 0.425833 179.876 0.305964 179.938C0.200525 179.991 0.1148 180.077 0.0610761 180.182C0 180.302 0 180.459 0 180.773L0 182.902Z" fill="url(#paint4_linear_0_103)"/>
<path d="M0 213.835C0 213.521 0 213.364 0.0610761 213.244C0.1148 213.139 0.200525 213.053 0.305964 212.999C0.425833 212.938 0.58275 212.938 0.896583 212.938H8.40547V215.964C8.40547 216.278 8.40547 216.435 8.34439 216.555C8.29067 216.66 8.20494 216.746 8.0995 216.8C7.97963 216.861 7.82272 216.861 7.50888 216.861H0.896584C0.58275 216.861 0.425833 216.861 0.305964 216.8C0.200525 216.746 0.1148 216.66 0.0610761 216.555C0 216.435 0 216.278 0 215.964L0 213.835Z" fill="url(#paint5_linear_0_103)"/>
<path fill-rule="evenodd" clip-rule="evenodd" d="M0.122152 216.809C0 216.569 0 216.255 0 215.628V181.109C0 180.481 0 180.168 0.122152 179.928C0.2296 179.717 0.40105 179.546 0.611929 179.438C0.851666 179.316 1.1655 179.316 1.79317 179.316H7.17267C7.80033 179.316 8.11417 179.316 8.3539 179.438C8.56478 179.546 8.73623 179.717 8.84368 179.928C8.96583 180.168 8.96583 180.481 8.96583 181.109V215.628C8.96583 216.255 8.96583 216.569 8.84368 216.809C8.73623 217.02 8.56478 217.191 8.3539 217.299C8.11417 217.421 7.80033 217.421 7.17267 217.421H1.79317C1.1655 217.421 0.851666 217.421 0.611929 217.299C0.40105 217.191 0.2296 217.02 0.122152 216.809ZM0.621441 216.554C0.560364 216.435 0.560364 216.278 0.560364 215.964V180.773C0.560364 180.459 0.560364 180.302 0.621441 180.182C0.675165 180.077 0.760889 179.991 0.866329 179.937C0.986197 179.876 1.14311 179.876 1.45695 179.876H7.50888C7.82272 179.876 7.97963 179.876 8.0995 179.937C8.20494 179.991 8.29067 180.077 8.34439 180.182C8.40547 180.302 8.40547 180.459 8.40547 180.773V215.964C8.40547 216.278 8.40547 216.435 8.34439 216.554C8.29067 216.66 8.20494 216.746 8.0995 216.799C7.97963 216.86 7.82272 216.86 7.50888 216.86H1.45695C1.14311 216.86 0.986197 216.86 0.866329 216.799C0.760889 216.746 0.675165 216.66 0.621441 216.554Z" fill="#353638"/>
<path d="M0 133.367C0 132.748 0.501767 132.247 1.12073 132.247H7.8451C8.46406 132.247 8.96583 132.748 8.96583 133.367V169.231C8.96583 169.85 8.46406 170.351 7.8451 170.351H1.12073C0.501767 170.351 0 169.85 0 169.231V133.367Z" fill="url(#paint6_linear_0_103)"/>
<path d="M0 135.833C0 136.147 0 136.304 0.0610761 136.424C0.1148 136.529 0.200525 136.615 0.305964 136.669C0.425833 136.73 0.58275 136.73 0.896583 136.73H8.40547V133.704C8.40547 133.39 8.40547 133.233 8.34439 133.113C8.29067 133.008 8.20494 132.922 8.0995 132.868C7.97963 132.807 7.82272 132.807 7.50888 132.807H0.896584C0.58275 132.807 0.425833 132.807 0.305964 132.868C0.200525 132.922 0.1148 133.008 0.0610761 133.113C0 133.233 0 133.39 0 133.704L0 135.833Z" fill="url(#paint7_linear_0_103)"/>
<path d="M0 166.765C0 166.452 0 166.295 0.0610761 166.175C0.1148 166.069 0.200525 165.984 0.305964 165.93C0.425833 165.869 0.58275 165.869 0.896583 165.869H8.40547V168.895C8.40547 169.209 8.40547 169.366 8.34439 169.485C8.29067 169.591 8.20494 169.677 8.0995 169.73C7.97963 169.791 7.82272 169.791 7.50888 169.791H0.896584C0.58275 169.791 0.425833 169.791 0.305964 169.73C0.200525 169.677 0.1148 169.591 0.0610761 169.485C0 169.366 0 169.209 0 168.895L0 166.765Z" fill="url(#paint8_linear_0_103)"/>
<path fill-rule="evenodd" clip-rule="evenodd" d="M0.122152 169.74C0 169.5 0 169.186 0 168.558V134.04C0 133.412 0 133.098 0.122152 132.859C0.2296 132.648 0.40105 132.476 0.611929 132.369C0.851666 132.247 1.1655 132.247 1.79317 132.247H7.17267C7.80033 132.247 8.11417 132.247 8.3539 132.369C8.56478 132.476 8.73623 132.648 8.84368 132.859C8.96583 133.098 8.96583 133.412 8.96583 134.04V168.558C8.96583 169.186 8.96583 169.5 8.84368 169.74C8.73623 169.95 8.56478 170.122 8.3539 170.229C8.11417 170.351 7.80033 170.351 7.17267 170.351H1.79317C1.1655 170.351 0.851666 170.351 0.611929 170.229C0.40105 170.122 0.2296 169.95 0.122152 169.74ZM0.621441 169.485C0.560364 169.365 0.560364 169.208 0.560364 168.895V133.704C0.560364 133.39 0.560364 133.233 0.621441 133.113C0.675165 133.008 0.760889 132.922 0.866329 132.868C0.986197 132.807 1.14311 132.807 1.45695 132.807H7.50888C7.82272 132.807 7.97963 132.807 8.0995 132.868C8.20494 132.922 8.29067 133.008 8.34439 133.113C8.40547 133.233 8.40547 133.39 8.40547 133.704V168.895C8.40547 169.208 8.40547 169.365 8.34439 169.485C8.29067 169.591 8.20494 169.676 8.0995 169.73C7.97963 169.791 7.82272 169.791 7.50888 169.791H1.45695C1.14311 169.791 0.986197 169.791 0.866329 169.73C0.760889 169.676 0.675165 169.591 0.621441 169.485Z" fill="#353638"/>
<path d="M0 97.5032C0 96.8843 0.501767 96.3825 1.12073 96.3825H7.8451C8.46406 96.3825 8.96583 96.8843 8.96583 97.5032V115.435C8.96583 116.054 8.46406 116.556 7.8451 116.556H1.12073C0.501767 116.556 0 116.054 0 115.435V97.5032Z" fill="url(#paint9_linear_0_103)"/>
<path d="M0 99.969C0 100.283 0 100.44 0.0610761 100.56C0.1148 100.665 0.200525 100.751 0.305964 100.804C0.425833 100.866 0.58275 100.866 0.896583 100.866H8.40547V97.8396C8.40547 97.5257 8.40547 97.3688 8.34439 97.249C8.29067 97.1435 8.20494 97.0578 8.0995 97.0041C7.97963 96.943 7.82272 96.943 7.50888 96.943H0.896584C0.58275 96.943 0.425833 96.943 0.305964 97.0041C0.200525 97.0578 0.1148 97.1435 0.0610761 97.249C0 97.3688 0 97.5257 0 97.8396L0 99.969Z" fill="url(#paint10_linear_0_103)"/>
<path d="M0 113.53C0 113.216 0 113.059 0.0610761 112.94C0.1148 112.834 0.200525 112.748 0.305964 112.695C0.425833 112.634 0.58275 112.634 0.896583 112.634H8.40547V115.66C8.40547 115.973 8.40547 116.13 8.34439 116.25C8.29067 116.356 8.20494 116.441 8.0995 116.495C7.97963 116.556 7.82272 116.556 7.50888 116.556H1.79317C1.1655 116.556 0.851666 116.556 0.611929 116.434C0.40105 116.327 0.2296 116.155 0.122152 115.944C0 115.704 0 115.391 0 114.763L0 113.53Z" fill="url(#paint11_linear_0_103)"/>
<path fill-rule="evenodd" clip-rule="evenodd" d="M0.122152 115.944C0 115.704 0 115.39 0 114.762V98.1757C0 97.548 0 97.2342 0.122152 96.9944C0.2296 96.7836 0.40105 96.6121 0.611929 96.5047C0.851666 96.3825 1.1655 96.3825 1.79317 96.3825H7.17267C7.80033 96.3825 8.11417 96.3825 8.3539 96.5047C8.56478 96.6121 8.73623 96.7836 8.84368 96.9944C8.96583 97.2342 8.96583 97.548 8.96583 98.1757V114.762C8.96583 115.39 8.96583 115.704 8.84368 115.944C8.73623 116.155 8.56478 116.326 8.3539 116.433C8.11417 116.556 7.80033 116.556 7.17267 116.556H1.79317C1.1655 116.556 0.851666 116.556 0.611929 116.433C0.40105 116.326 0.2296 116.155 0.122152 115.944ZM0.621441 115.689C0.560364 115.569 0.560364 115.413 0.560364 115.099V97.8395C0.560364 97.5256 0.560364 97.3687 0.621441 97.2488C0.675165 97.1434 0.760889 97.0577 0.866329 97.004C0.986197 96.9429 1.14311 96.9429 1.45695 96.9429H7.50888C7.82272 96.9429 7.97963 96.9429 8.0995 97.004C8.20494 97.0577 8.29067 97.1434 8.34439 97.2488C8.40547 97.3687 8.40547 97.5256 8.40547 97.8395V115.099C8.40547 115.413 8.40547 115.569 8.34439 115.689C8.29067 115.795 8.20494 115.88 8.0995 115.934C7.97963 115.995 7.82272 115.995 7.50888 115.995H1.45695C1.14311 115.995 0.986197 115.995 0.866329 115.934C0.760889 115.88 0.675165 115.795 0.621441 115.689Z" fill="#353638"/>
<path fill-rule="evenodd" clip-rule="evenodd" d="M9.94006 25.6465C5.60365 34.1571 5.60365 45.2982 5.60365 67.5804V432.266C5.60365 454.548 5.60365 465.689 9.94006 474.2C13.7545 481.686 19.8409 487.772 27.3271 491.587C35.8378 495.923 46.9789 495.923 69.2611 495.923H176.739C199.021 495.923 210.162 495.923 218.673 491.587C226.159 487.772 232.246 481.686 236.06 474.2C240.396 465.689 240.396 454.548 240.396 432.266V67.5804C240.396 45.2982 240.396 34.1571 236.06 25.6465C232.246 18.1603 226.159 12.0738 218.673 8.25941C210.162 3.92301 199.021 3.92301 176.739 3.92301H69.2611C46.9789 3.92301 35.8378 3.92301 27.3271 8.25941C19.8409 12.0738 13.7545 18.1603 9.94006 25.6465ZM16.3087 28.3417C12.8884 35.0544 12.8884 43.8417 12.8884 61.4164V438.43C12.8884 456.004 12.8884 464.792 16.3087 471.504C19.3172 477.409 24.1178 482.209 30.0224 485.218C36.735 488.638 45.5224 488.638 63.0971 488.638H182.903C200.478 488.638 209.265 488.638 215.978 485.218C221.882 482.209 226.683 477.409 229.691 471.504C233.112 464.792 233.112 456.004 233.112 438.43V61.4164C233.112 43.8417 233.112 35.0544 229.691 28.3417C226.683 22.4371 221.882 17.6366 215.978 14.628C209.265 11.2077 200.478 11.2077 182.903 11.2077H63.097C45.5224 11.2077 36.735 11.2077 30.0224 14.628C24.1178 17.6366 19.3172 22.4371 16.3087 28.3417Z" fill="black"/>
<path fill-rule="evenodd" clip-rule="evenodd" d="M9.3186 24.7795C5.04328 33.1703 5.04328 44.1545 5.04328 66.1228V433.722C5.04328 455.69 5.04328 466.674 9.3186 475.065C13.0793 482.446 19.08 488.447 26.4608 492.207C34.8516 496.483 45.8357 496.483 67.8041 496.483H178.196C200.164 496.483 211.148 496.483 219.539 492.207C226.92 488.447 232.921 482.446 236.681 475.065C240.957 466.674 240.957 455.69 240.957 433.722V66.1228C240.957 44.1545 240.957 33.1703 236.681 24.7795C232.921 17.3988 226.92 11.398 219.539 7.63735C211.148 3.36202 200.164 3.36202 178.196 3.36202H67.8041C45.8357 3.36202 34.8516 3.36202 26.4608 7.63735C19.08 11.398 13.0793 17.3988 9.3186 24.7795ZM9.94007 25.6459C5.60367 34.1565 5.60367 45.2976 5.60367 67.5798V432.265C5.60367 454.547 5.60367 465.688 9.94007 474.199C13.7545 481.685 19.8409 487.772 27.3271 491.586C35.8378 495.922 46.9789 495.922 69.2611 495.922H176.739C199.021 495.922 210.162 495.922 218.673 491.586C226.159 487.772 232.246 481.685 236.06 474.199C240.396 465.688 240.396 454.547 240.396 432.265V67.5798C240.396 45.2976 240.396 34.1565 236.06 25.6459C232.246 18.1597 226.159 12.0732 218.673 8.25879C210.162 3.92239 199.021 3.92239 176.739 3.92239H69.2611C46.9789 3.92239 35.8378 3.92239 27.3271 8.25879C19.8409 12.0732 13.7545 18.1597 9.94007 25.6459Z" fill="#272624"/>
<path fill-rule="evenodd" clip-rule="evenodd" d="M8.32 24.2705C3.92252 32.901 3.92252 44.199 3.92252 66.795V433.049C3.92252 455.645 3.92252 466.943 8.32 475.574C12.1881 483.165 18.3603 489.338 25.952 493.206C34.5825 497.603 45.8805 497.603 68.4765 497.603H177.523C200.119 497.603 211.417 497.603 220.048 493.206C227.64 489.338 233.812 483.165 237.68 475.574C242.077 466.943 242.077 455.645 242.077 433.049V66.795C242.077 44.199 242.077 32.901 237.68 24.2705C233.812 16.6788 227.64 10.5066 220.048 6.6385C211.417 2.24102 200.119 2.24102 177.523 2.24102H68.4765C45.8805 2.24102 34.5825 2.24102 25.952 6.6385C18.3603 10.5066 12.1881 16.6788 8.32 24.2705ZM9.31858 24.7793C5.04325 33.17 5.04325 44.1542 5.04325 66.1226V433.722C5.04325 455.69 5.04325 466.674 9.31858 475.065C13.0793 482.446 19.08 488.446 26.4608 492.207C34.8515 496.482 45.8357 496.482 67.8041 496.482H178.196C200.164 496.482 211.148 496.482 219.539 492.207C226.92 488.446 232.921 482.446 236.681 475.065C240.957 466.674 240.957 455.69 240.957 433.722V66.1226C240.957 44.1542 240.957 33.17 236.681 24.7793C232.921 17.3985 226.92 11.3978 219.539 7.63708C211.148 3.36175 200.164 3.36175 178.196 3.36175H67.8041C45.8357 3.36175 34.8515 3.36175 26.4608 7.63708C19.08 11.3978 13.0793 17.3985 9.31858 24.7793Z" fill="black"/>
<path fill-rule="evenodd" clip-rule="evenodd" d="M7.3214 23.7624C2.80177 32.6326 2.80177 44.2445 2.80177 67.4682V432.377C2.80177 455.601 2.80177 467.213 7.3214 476.083C11.297 483.886 17.6406 490.229 25.4431 494.205C34.3134 498.725 45.9252 498.725 69.1489 498.725H176.851C200.075 498.725 211.686 498.725 220.557 494.205C228.359 490.229 234.703 483.886 238.678 476.083C243.198 467.213 243.198 455.601 243.198 432.377V67.4682C243.198 44.2445 243.198 32.6326 238.678 23.7624C234.703 15.9598 228.359 9.61621 220.557 5.64063C211.686 1.121 200.075 1.121 176.851 1.121H69.1489C45.9252 1.121 34.3134 1.121 25.4431 5.64063C17.6406 9.61621 11.297 15.9598 7.3214 23.7624ZM8.31997 24.2712C3.9225 32.9017 3.9225 44.1997 3.9225 66.7957V433.05C3.9225 455.646 3.9225 466.944 8.31997 475.574C12.1881 483.166 18.3603 489.338 25.9519 493.206C34.5825 497.604 45.8805 497.604 68.4765 497.604H177.523C200.119 497.604 211.417 497.604 220.048 493.206C227.64 489.338 233.812 483.166 237.68 475.574C242.077 466.944 242.077 455.646 242.077 433.05V66.7957C242.077 44.1997 242.077 32.9017 237.68 24.2712C233.812 16.6795 227.64 10.5073 220.048 6.63921C211.417 2.24173 200.119 2.24173 177.523 2.24173H68.4765C45.8805 2.24173 34.5825 2.24173 25.9519 6.63921C18.3603 10.5073 12.1881 16.6795 8.31997 24.2712Z" fill="#2C2C2C"/>
<path fill-rule="evenodd" clip-rule="evenodd" d="M6.82209 23.5073C2.24139 32.4975 2.24139 44.2662 2.24139 67.8038V432.041C2.24139 455.578 2.24139 467.347 6.82209 476.337C10.8514 484.245 17.2808 490.674 25.1887 494.704C34.1789 499.284 45.9476 499.284 69.4851 499.284H176.515C200.052 499.284 211.821 499.284 220.811 494.704C228.719 490.674 235.148 484.245 239.178 476.337C243.758 467.347 243.758 455.578 243.758 432.041V67.8037C243.758 44.2662 243.758 32.4975 239.178 23.5073C235.148 15.5994 228.719 9.17002 220.811 5.14072C211.821 0.560011 200.052 0.560011 176.515 0.560011H69.4851C45.9476 0.560011 34.1789 0.560011 25.1887 5.14072C17.2808 9.17002 10.8514 15.5994 6.82209 23.5073ZM7.32138 23.7617C2.80175 32.632 2.80175 44.2439 2.80175 67.4676V432.377C2.80175 455.601 2.80175 467.212 7.32138 476.083C11.297 483.885 17.6406 490.229 25.4431 494.204C34.3134 498.724 45.9252 498.724 69.1489 498.724H176.851C200.075 498.724 211.686 498.724 220.557 494.204C228.359 490.229 234.703 483.885 238.678 476.083C243.198 467.212 243.198 455.601 243.198 432.377V67.4675C243.198 44.2438 243.198 32.632 238.678 23.7617C234.703 15.9592 228.359 9.61558 220.557 5.64C211.686 1.12038 200.075 1.12038 176.851 1.12038H69.1489C45.9252 1.12038 34.3134 1.12038 25.4431 5.64C17.6406 9.61558 11.297 15.9592 7.32138 23.7617Z" fill="#85817D"/>
<path fill-rule="evenodd" clip-rule="evenodd" d="M6.32291 23.2533C1.68113 32.3633 1.68113 44.289 1.68113 68.1403V431.705C1.68113 455.556 1.68113 467.482 6.32291 476.592C10.4059 484.605 16.921 491.12 24.9344 495.203C34.0444 499.845 45.9701 499.845 69.8214 499.845H176.179C200.03 499.845 211.956 499.845 221.066 495.203C229.079 491.12 235.594 484.605 239.677 476.592C244.319 467.482 244.319 455.556 244.319 431.705V68.1403C244.319 44.289 244.319 32.3633 239.677 23.2533C235.594 15.2399 229.079 8.72481 221.066 4.64178C211.956 0 200.03 0 176.179 0H69.8214C45.9701 0 34.0444 0 24.9344 4.64178C16.921 8.72481 10.4059 15.2399 6.32291 23.2533ZM6.8222 23.5077C2.2415 32.4978 2.2415 44.2666 2.2415 67.8041V432.041C2.2415 455.579 2.2415 467.347 6.8222 476.337C10.8515 484.245 17.2809 490.675 25.1888 494.704C34.179 499.285 45.9477 499.285 69.4852 499.285H176.515C200.052 499.285 211.821 499.285 220.811 494.704C228.719 490.675 235.149 484.245 239.178 476.337C243.759 467.347 243.759 455.578 243.759 432.041V67.8041C243.759 44.2666 243.759 32.4978 239.178 23.5077C235.149 15.5997 228.719 9.17037 220.811 5.14107C211.821 0.560364 200.052 0.560364 176.515 0.560364H69.4852C45.9477 0.560364 34.179 0.560364 25.1888 5.14107C17.2809 9.17037 10.8515 15.5997 6.8222 23.5077Z" fill="#4F4B47"/>
<rect opacity="0.5" x="187.162" width="3.92255" height="3.92255" fill="black"/>
<rect opacity="0.5" x="1.68113" y="52.6743" width="3.92255" height="3.36219" fill="black"/>
<rect opacity="0.5" x="1.68113" y="443.808" width="3.92255" height="3.36219" fill="black"/>
<rect opacity="0.5" x="240.396" y="443.808" width="3.92255" height="3.36219" fill="black"/>
<rect opacity="0.5" x="52.6743" y="495.923" width="3.36219" height="3.92255" fill="black"/>
<path opacity="0.5" d="M98.344 4.20222H147.656V4.4824C147.656 4.87931 147.656 5.16015 147.638 5.3797C147.62 5.59598 147.587 5.72799 147.534 5.83175C147.426 6.04262 147.255 6.21407 147.044 6.32152C146.94 6.37439 146.808 6.40785 146.592 6.42552C146.372 6.44346 146.092 6.44367 145.695 6.44367H100.305C99.9083 6.44367 99.6275 6.44346 99.4079 6.42552C99.1917 6.40785 99.0596 6.37439 98.9559 6.32152C98.745 6.21407 98.5736 6.04262 98.4661 5.83174C98.4132 5.72799 98.3798 5.59598 98.3621 5.3797C98.3442 5.16015 98.344 4.87931 98.344 4.4824V4.20222Z" fill="#0F1013" stroke="url(#paint12_linear_0_103)" stroke-width="0.559923"/>
<path opacity="0.8" fill-rule="evenodd" clip-rule="evenodd" d="M99.1845 5.04241C99.1845 4.73293 99.4354 4.48204 99.7449 4.48204H146.255C146.565 4.48204 146.816 4.73293 146.816 5.04241C146.816 5.35189 146.565 5.60277 146.255 5.60277H99.7449C99.4354 5.60277 99.1845 5.35189 99.1845 5.04241Z" fill="#1F2224"/>
<defs>
<linearGradient id="paint0_linear_0_103" x1="241.517" y1="158.023" x2="241.517" y2="218.542" gradientUnits="userSpaceOnUse">
<stop stop-color="#4E4A46"/>
<stop offset="0.484375" stop-color="#736F6B"/>
<stop offset="1" stop-color="#4E4A46"/>
</linearGradient>
<linearGradient id="paint1_linear_0_103" x1="241.237" y1="162.113" x2="241.237" y2="158.975" gradientUnits="userSpaceOnUse">
<stop stop-color="#3C3631"/>
<stop offset="0.249443" stop-color="#050000"/>
<stop offset="0.475668" stop-color="#C1BDB9"/>
<stop offset="0.740898" stop-color="#C1BDB9"/>
<stop offset="1" stop-color="#736F6B"/>
</linearGradient>
<linearGradient id="paint2_linear_0_103" x1="241.237" y1="214.451" x2="241.237" y2="217.589" gradientUnits="userSpaceOnUse">
<stop stop-color="#3C3631"/>
<stop offset="0.249443" stop-color="#050000"/>
<stop offset="0.475668" stop-color="#C1BDB9"/>
<stop offset="0.740898" stop-color="#C1BDB9"/>
<stop offset="1" stop-color="#736F6B"/>
</linearGradient>
<linearGradient id="paint3_linear_0_103" x1="4.48292" y1="179.316" x2="4.48292" y2="217.421" gradientUnits="userSpaceOnUse">
<stop stop-color="#4E4A46"/>
<stop offset="0.484375" stop-color="#736F6B"/>
<stop offset="1" stop-color="#4E4A46"/>
</linearGradient>
<linearGradient id="paint4_linear_0_103" x1="4.20273" y1="183.407" x2="4.20273" y2="180.269" gradientUnits="userSpaceOnUse">
<stop stop-color="#3C3631"/>
<stop offset="0.249443" stop-color="#050000"/>
<stop offset="0.475668" stop-color="#C1BDB9"/>
<stop offset="0.740898" stop-color="#C1BDB9"/>
<stop offset="1" stop-color="#736F6B"/>
</linearGradient>
<linearGradient id="paint5_linear_0_103" x1="4.20273" y1="213.33" x2="4.20273" y2="216.468" gradientUnits="userSpaceOnUse">
<stop stop-color="#3C3631"/>
<stop offset="0.249443" stop-color="#050000"/>
<stop offset="0.475668" stop-color="#C1BDB9"/>
<stop offset="0.740898" stop-color="#C1BDB9"/>
<stop offset="1" stop-color="#736F6B"/>
</linearGradient>
<linearGradient id="paint6_linear_0_103" x1="4.48292" y1="132.247" x2="4.48292" y2="170.351" gradientUnits="userSpaceOnUse">
<stop stop-color="#4E4A46"/>
<stop offset="0.484375" stop-color="#736F6B"/>
<stop offset="1" stop-color="#4E4A46"/>
</linearGradient>
<linearGradient id="paint7_linear_0_103" x1="4.20273" y1="136.337" x2="4.20273" y2="133.199" gradientUnits="userSpaceOnUse">
<stop stop-color="#3C3631"/>
<stop offset="0.249443" stop-color="#050000"/>
<stop offset="0.475668" stop-color="#C1BDB9"/>
<stop offset="0.740898" stop-color="#C1BDB9"/>
<stop offset="1" stop-color="#736F6B"/>
</linearGradient>
<linearGradient id="paint8_linear_0_103" x1="4.20273" y1="166.261" x2="4.20273" y2="169.399" gradientUnits="userSpaceOnUse">
<stop stop-color="#3C3631"/>
<stop offset="0.249443" stop-color="#050000"/>
<stop offset="0.475668" stop-color="#C1BDB9"/>
<stop offset="0.740898" stop-color="#C1BDB9"/>
<stop offset="1" stop-color="#736F6B"/>
</linearGradient>
<linearGradient id="paint9_linear_0_103" x1="4.48292" y1="96.3825" x2="4.48292" y2="116.556" gradientUnits="userSpaceOnUse">
<stop stop-color="#4E4A46"/>
<stop offset="0.484375" stop-color="#736F6B"/>
<stop offset="1" stop-color="#4E4A46"/>
</linearGradient>
<linearGradient id="paint10_linear_0_103" x1="4.20273" y1="100.473" x2="4.20273" y2="97.3352" gradientUnits="userSpaceOnUse">
<stop stop-color="#3C3631"/>
<stop offset="0.249443" stop-color="#050000"/>
<stop offset="0.475668" stop-color="#C1BDB9"/>
<stop offset="0.740898" stop-color="#C1BDB9"/>
<stop offset="1" stop-color="#736F6B"/>
</linearGradient>
<linearGradient id="paint11_linear_0_103" x1="4.20273" y1="113.026" x2="4.20273" y2="116.164" gradientUnits="userSpaceOnUse">
<stop stop-color="#3C3631"/>
<stop offset="0.249443" stop-color="#050000"/>
<stop offset="0.475668" stop-color="#C1BDB9"/>
<stop offset="0.740898" stop-color="#C1BDB9"/>
<stop offset="1" stop-color="#736F6B"/>
</linearGradient>
<linearGradient id="paint12_linear_0_103" x1="98.0638" y1="3.92203" x2="98.0638" y2="6.72386" gradientUnits="userSpaceOnUse">
<stop stop-color="#101112"/>
<stop offset="1" stop-color="#232425"/>
</linearGradient>
</defs>
</svg>
