<svg width="32" height="25" viewBox="0 0 32 25" fill="none" xmlns="http://www.w3.org/2000/svg">
<g opacity="0.3" clip-path="url(#clip0_625_108006)">
<path d="M8.00475 23.2728C11.8331 24.1773 16.2083 23.6514 20.1477 22.1601C24.0868 20.669 27.6115 18.2048 29.7299 15.2078C31.162 13.1834 31.5448 11.1219 31.03 9.22623C30.5166 7.3356 29.1182 5.6384 27.0427 4.31832C25.7889 3.51437 24.4797 2.79861 22.8416 2.72411C22.5952 2.71304 22.325 2.88065 22.3203 3.16642C22.3021 3.44511 22.5461 3.6409 22.7865 3.65253C24.1939 3.71668 25.3189 4.34852 26.4783 5.08524C28.3551 6.27953 29.5883 7.79104 30.0409 9.43893C30.4922 11.0816 30.1756 12.888 28.8982 14.6966C26.8957 17.5241 23.5521 19.8745 19.7911 21.3022C16.0307 22.7297 11.8739 23.2268 8.25359 22.372C8.09813 22.3355 7.93814 22.2994 7.7749 22.2626C6.2128 21.9107 4.33555 21.4878 2.9207 19.8516C1.48339 18.1903 1.53228 16.2116 2.20617 14.3412C2.89362 12.4199 4.22415 10.6423 5.28872 9.49605C7.61531 6.99621 11.1146 4.60473 15.0888 3.1397C19.0627 1.67485 23.4976 1.14105 27.7016 2.33608L27.7046 2.33689C27.9523 2.40284 28.2416 2.29678 28.3307 2.03727C28.4201 1.77705 28.257 1.51974 28.0048 1.44735C23.5803 0.189942 18.924 0.746806 14.7733 2.26556C10.623 3.78411 6.96367 6.26904 4.52609 8.88788C3.18137 10.339 1.40517 12.7772 0.89553 15.3181C0.549732 17.0637 0.791796 18.8666 2.13598 20.4331C3.74722 22.3019 5.90092 22.7926 7.56257 23.171C7.71433 23.2056 7.86198 23.2392 8.00475 23.2728ZM8.00475 23.2728C8.00471 23.2728 8.00478 23.2728 8.00475 23.2728V23.2728Z" fill="black"/>
<path d="M8.00475 23.2728C11.8331 24.1773 16.2083 23.6514 20.1477 22.1601C24.0868 20.669 27.6115 18.2048 29.7299 15.2078C31.162 13.1834 31.5448 11.1219 31.03 9.22623C30.5166 7.3356 29.1182 5.6384 27.0427 4.31832C25.7889 3.51437 24.4797 2.79861 22.8416 2.72411C22.5952 2.71304 22.325 2.88065 22.3203 3.16642C22.3021 3.44511 22.5461 3.6409 22.7865 3.65253C24.1939 3.71668 25.3189 4.34852 26.4783 5.08524C28.3551 6.27953 29.5883 7.79104 30.0409 9.43892C30.4922 11.0816 30.1756 12.888 28.8982 14.6966C26.8957 17.5241 23.5521 19.8745 19.7911 21.3022C16.0307 22.7297 11.8739 23.2268 8.25359 22.372C8.09813 22.3355 7.93814 22.2994 7.7749 22.2626C6.2128 21.9107 4.33555 21.4878 2.9207 19.8516C1.48339 18.1903 1.53228 16.2116 2.20617 14.3412C2.89362 12.4199 4.22415 10.6423 5.28872 9.49605C7.61531 6.99621 11.1146 4.60473 15.0888 3.1397C19.0627 1.67485 23.4976 1.14105 27.7016 2.33608L27.7046 2.33689C27.9523 2.40284 28.2416 2.29678 28.3307 2.03727C28.4201 1.77705 28.257 1.51974 28.0048 1.44735C23.5803 0.189942 18.924 0.746806 14.7733 2.26556C10.623 3.78411 6.96367 6.26904 4.52609 8.88788C3.18137 10.339 1.40517 12.7772 0.89553 15.3181C0.549732 17.0637 0.791796 18.8666 2.13598 20.4331C3.74722 22.3019 5.90092 22.7926 7.56257 23.171C7.71433 23.2056 7.86198 23.2392 8.00475 23.2728ZM8.00475 23.2728L8.04792 23.0901M8.00475 23.2728C8.00471 23.2728 8.00478 23.2728 8.00475 23.2728Z" stroke="black" stroke-width="0.376442"/>
<path d="M7.62752 12.1447C7.62752 11.1433 7.79442 10.2694 8.12823 9.52262C8.47081 8.776 8.94517 8.19185 9.55126 7.7702C10.1661 7.33976 10.8821 7.12455 11.699 7.12455C12.5247 7.12455 13.2407 7.33976 13.8468 7.7702C14.4617 8.19185 14.936 8.776 15.2698 9.52262C15.6124 10.2694 15.7837 11.1433 15.7837 12.1447C15.7837 13.1374 15.6212 14.007 15.2962 14.7537C14.9712 15.5004 14.5056 16.0802 13.8995 16.493C13.2934 16.9059 12.5599 17.1123 11.699 17.1123C10.8557 17.1123 10.1266 16.9059 9.51174 16.493C8.90564 16.0802 8.44007 15.5004 8.11505 14.7537C7.79002 14.007 7.62752 13.1374 7.62752 12.1447ZM9.28775 12.1447C9.28775 12.8826 9.38438 13.5151 9.57762 14.0421C9.77084 14.5605 10.0475 14.9557 10.4077 15.228C10.7679 15.4916 11.1983 15.6233 11.699 15.6233C12.2173 15.6233 12.6522 15.4916 13.0035 15.228C13.3637 14.9557 13.6404 14.5605 13.8336 14.0421C14.0268 13.5151 14.1235 12.8826 14.1235 12.1447C14.1235 11.3805 14.0268 10.7393 13.8336 10.221C13.6404 9.69392 13.3637 9.29427 13.0035 9.02196C12.6522 8.74964 12.2173 8.61349 11.699 8.61349C11.1983 8.61349 10.7679 8.74964 10.4077 9.02196C10.0475 9.29427 9.77084 9.69392 9.57762 10.221C9.38438 10.7393 9.28775 11.3805 9.28775 12.1447Z" fill="black"/>
<path d="M23.6382 16.9278L16.9577 16.941V15.676L20.1069 13.0144C20.4319 12.7421 20.7043 12.4918 20.9238 12.2633C21.1523 12.035 21.3323 11.8198 21.4641 11.6177C21.5958 11.4157 21.6925 11.2136 21.754 11.0116C21.8154 10.8096 21.8462 10.5899 21.8462 10.3527C21.8462 9.80818 21.7057 9.38652 21.4246 9.08785C21.1434 8.78918 20.7481 8.63985 20.2387 8.63985C19.7116 8.63985 19.2944 8.81553 18.9869 9.16691C18.6794 9.5183 18.5213 10.0014 18.5126 10.6163H16.8391C16.8479 9.91359 16.9928 9.30306 17.274 8.7848C17.5551 8.25774 17.9504 7.85365 18.4598 7.57256C18.9693 7.28268 19.5622 7.13774 20.2387 7.13774C20.9238 7.13774 21.5124 7.26511 22.0043 7.51986C22.505 7.76581 22.8916 8.12158 23.1638 8.58715C23.4361 9.05271 23.5723 9.61054 23.5723 10.2605C23.5723 10.5943 23.524 10.915 23.4274 11.2224C23.3396 11.5211 23.2034 11.8153 23.0189 12.1052C22.8344 12.3863 22.606 12.6718 22.3337 12.9617C22.0614 13.2516 21.7408 13.5546 21.3718 13.8709L19.0264 15.8737L18.4203 15.3598H23.6382V16.9278Z" fill="black"/>
</g>
<defs>
<clipPath id="clip0_625_108006">
<rect width="31.9976" height="24.4688" fill="white"/>
</clipPath>
</defs>
</svg>
