<svg width="246" height="500" viewBox="0 0 246 500" fill="none" xmlns="http://www.w3.org/2000/svg">
<path d="M237.034 159.144C237.034 158.525 237.536 158.023 238.155 158.023H244.879C245.498 158.023 246 158.525 246 159.144V217.421C246 218.04 245.498 218.542 244.879 218.542H238.155C237.536 218.542 237.034 218.04 237.034 217.421V159.144Z" fill="url(#paint0_linear_0_156)"/>
<path d="M237.034 161.609C237.034 161.923 237.034 162.08 237.095 162.2C237.149 162.305 237.235 162.391 237.34 162.445C237.46 162.506 237.617 162.506 237.931 162.506H245.44V159.48C245.44 159.166 245.44 159.009 245.379 158.889C245.325 158.784 245.239 158.698 245.134 158.644C245.014 158.583 244.857 158.583 244.543 158.583H237.931C237.617 158.583 237.46 158.583 237.34 158.644C237.235 158.698 237.149 158.784 237.095 158.889C237.034 159.009 237.034 159.166 237.034 159.48V161.609Z" fill="url(#paint1_linear_0_156)"/>
<path d="M237.034 214.956C237.034 214.642 237.034 214.485 237.095 214.365C237.149 214.26 237.235 214.174 237.34 214.12C237.46 214.059 237.617 214.059 237.931 214.059H245.44V217.085C245.44 217.399 245.44 217.556 245.379 217.676C245.325 217.781 245.239 217.867 245.134 217.921C245.014 217.982 244.857 217.982 244.543 217.982H237.931C237.617 217.982 237.46 217.982 237.34 217.921C237.235 217.867 237.149 217.781 237.095 217.676C237.034 217.556 237.034 217.399 237.034 217.085V214.956Z" fill="url(#paint2_linear_0_156)"/>
<path fill-rule="evenodd" clip-rule="evenodd" d="M237.156 217.93C237.034 217.69 237.034 217.377 237.034 216.749V159.816C237.034 159.188 237.034 158.874 237.156 158.635C237.264 158.424 237.435 158.252 237.646 158.145C237.886 158.023 238.2 158.023 238.827 158.023H244.207C244.834 158.023 245.148 158.023 245.388 158.145C245.599 158.252 245.77 158.424 245.878 158.635C246 158.874 246 159.188 246 159.816V216.749C246 217.377 246 217.69 245.878 217.93C245.77 218.141 245.599 218.313 245.388 218.42C245.148 218.542 244.834 218.542 244.207 218.542H238.827C238.2 218.542 237.886 218.542 237.646 218.42C237.435 218.313 237.264 218.141 237.156 217.93ZM237.656 217.676C237.595 217.556 237.595 217.399 237.595 217.085V159.48C237.595 159.166 237.595 159.009 237.656 158.889C237.709 158.784 237.795 158.698 237.9 158.644C238.02 158.583 238.177 158.583 238.491 158.583H244.543C244.857 158.583 245.014 158.583 245.134 158.644C245.239 158.698 245.325 158.784 245.379 158.889C245.44 159.009 245.44 159.166 245.44 159.48V217.085C245.44 217.399 245.44 217.556 245.379 217.676C245.325 217.781 245.239 217.867 245.134 217.921C245.014 217.982 244.857 217.982 244.543 217.982H238.491C238.177 217.982 238.02 217.982 237.9 217.921C237.795 217.867 237.709 217.781 237.656 217.676Z" fill="#353638"/>
<path d="M0 180.437C0 179.818 0.501767 179.317 1.12073 179.317H7.8451C8.46406 179.317 8.96583 179.818 8.96583 180.437V216.301C8.96583 216.92 8.46406 217.421 7.8451 217.421H1.12073C0.501767 217.421 0 216.92 0 216.301V180.437Z" fill="url(#paint3_linear_0_156)"/>
<path d="M0 182.903C0 183.217 0 183.374 0.0610761 183.494C0.1148 183.599 0.200525 183.685 0.305964 183.739C0.425833 183.8 0.582749 183.8 0.896583 183.8H8.40546V180.774C8.40546 180.46 8.40546 180.303 8.34439 180.183C8.29066 180.078 8.20494 179.992 8.0995 179.938C7.97963 179.877 7.82271 179.877 7.50888 179.877H0.896584C0.58275 179.877 0.425833 179.877 0.305964 179.938C0.200525 179.992 0.1148 180.078 0.0610761 180.183C0 180.303 0 180.46 0 180.774L0 182.903Z" fill="url(#paint4_linear_0_156)"/>
<path d="M0 213.835C0 213.521 0 213.364 0.0610761 213.245C0.1148 213.139 0.200525 213.053 0.305964 213C0.425833 212.939 0.582749 212.939 0.896583 212.939H8.40546V215.965C8.40546 216.278 8.40546 216.435 8.34439 216.555C8.29066 216.661 8.20494 216.746 8.0995 216.8C7.97963 216.861 7.82271 216.861 7.50888 216.861H0.896584C0.58275 216.861 0.425833 216.861 0.305964 216.8C0.200525 216.746 0.1148 216.661 0.0610761 216.555C0 216.435 0 216.278 0 215.965L0 213.835Z" fill="url(#paint5_linear_0_156)"/>
<path fill-rule="evenodd" clip-rule="evenodd" d="M0.122152 216.81C0 216.57 0 216.256 0 215.628V181.11C0 180.482 0 180.168 0.122152 179.929C0.2296 179.718 0.40105 179.546 0.611928 179.439C0.851666 179.317 1.1655 179.317 1.79317 179.317H7.17266C7.80033 179.317 8.11416 179.317 8.3539 179.439C8.56478 179.546 8.73623 179.718 8.84368 179.929C8.96583 180.168 8.96583 180.482 8.96583 181.11V215.628C8.96583 216.256 8.96583 216.57 8.84368 216.81C8.73623 217.02 8.56478 217.192 8.3539 217.299C8.11416 217.421 7.80033 217.421 7.17266 217.421H1.79317C1.1655 217.421 0.851666 217.421 0.611928 217.299C0.40105 217.192 0.2296 217.02 0.122152 216.81ZM0.62144 216.555C0.560364 216.435 0.560364 216.278 0.560364 215.964V180.774C0.560364 180.46 0.560364 180.303 0.62144 180.183C0.675164 180.078 0.760889 179.992 0.866329 179.938C0.986197 179.877 1.14311 179.877 1.45695 179.877H7.50888C7.82271 179.877 7.97963 179.877 8.0995 179.938C8.20494 179.992 8.29066 180.078 8.34439 180.183C8.40546 180.303 8.40546 180.46 8.40546 180.774V215.964C8.40546 216.278 8.40546 216.435 8.34439 216.555C8.29066 216.661 8.20494 216.746 8.0995 216.8C7.97963 216.861 7.82271 216.861 7.50888 216.861H1.45695C1.14311 216.861 0.986197 216.861 0.866329 216.8C0.760889 216.746 0.675164 216.661 0.62144 216.555Z" fill="#353638"/>
<path d="M0 133.367C0 132.748 0.501767 132.246 1.12073 132.246H7.8451C8.46406 132.246 8.96583 132.748 8.96583 133.367V169.23C8.96583 169.849 8.46406 170.351 7.8451 170.351H1.12073C0.501767 170.351 0 169.849 0 169.23V133.367Z" fill="url(#paint6_linear_0_156)"/>
<path d="M0 135.832C0 136.146 0 136.303 0.0610761 136.423C0.1148 136.528 0.200525 136.614 0.305964 136.668C0.425833 136.729 0.582749 136.729 0.896583 136.729H8.40546V133.703C8.40546 133.389 8.40546 133.232 8.34439 133.112C8.29066 133.007 8.20494 132.921 8.0995 132.867C7.97963 132.806 7.82271 132.806 7.50888 132.806H0.896584C0.58275 132.806 0.425833 132.806 0.305964 132.867C0.200525 132.921 0.1148 133.007 0.0610761 133.112C0 133.232 0 133.389 0 133.703L0 135.832Z" fill="url(#paint7_linear_0_156)"/>
<path d="M0 166.764C0 166.45 0 166.293 0.0610761 166.174C0.1148 166.068 0.200525 165.982 0.305964 165.929C0.425833 165.868 0.582749 165.868 0.896583 165.868H8.40546V168.894C8.40546 169.207 8.40546 169.364 8.34439 169.484C8.29066 169.59 8.20494 169.675 8.0995 169.729C7.97963 169.79 7.82271 169.79 7.50888 169.79H0.896584C0.58275 169.79 0.425833 169.79 0.305964 169.729C0.200525 169.675 0.1148 169.59 0.0610761 169.484C0 169.364 0 169.207 0 168.894L0 166.764Z" fill="url(#paint8_linear_0_156)"/>
<path fill-rule="evenodd" clip-rule="evenodd" d="M0.122152 169.739C0 169.499 0 169.185 0 168.558V134.039C0 133.411 0 133.098 0.122152 132.858C0.2296 132.647 0.40105 132.476 0.611928 132.368C0.851666 132.246 1.1655 132.246 1.79317 132.246H7.17266C7.80033 132.246 8.11416 132.246 8.3539 132.368C8.56478 132.476 8.73623 132.647 8.84368 132.858C8.96583 133.098 8.96583 133.411 8.96583 134.039V168.558C8.96583 169.185 8.96583 169.499 8.84368 169.739C8.73623 169.95 8.56478 170.121 8.3539 170.229C8.11416 170.351 7.80033 170.351 7.17266 170.351H1.79317C1.1655 170.351 0.851666 170.351 0.611928 170.229C0.40105 170.121 0.2296 169.95 0.122152 169.739ZM0.62144 169.484C0.560364 169.364 0.560364 169.208 0.560364 168.894V133.703C0.560364 133.389 0.560364 133.232 0.62144 133.112C0.675164 133.007 0.760889 132.921 0.866329 132.867C0.986197 132.806 1.14311 132.806 1.45695 132.806H7.50888C7.82271 132.806 7.97963 132.806 8.0995 132.867C8.20494 132.921 8.29066 133.007 8.34439 133.112C8.40546 133.232 8.40546 133.389 8.40546 133.703V168.894C8.40546 169.208 8.40546 169.364 8.34439 169.484C8.29066 169.59 8.20494 169.676 8.0995 169.729C7.97963 169.79 7.82271 169.79 7.50888 169.79H1.45695C1.14311 169.79 0.986197 169.79 0.866329 169.729C0.760889 169.676 0.675164 169.59 0.62144 169.484Z" fill="#353638"/>
<path d="M0 97.5035C0 96.8845 0.501767 96.3827 1.12073 96.3827H7.8451C8.46406 96.3827 8.96583 96.8845 8.96583 97.5035V115.435C8.96583 116.054 8.46406 116.556 7.8451 116.556H1.12073C0.501767 116.556 0 116.054 0 115.435V97.5035Z" fill="url(#paint9_linear_0_156)"/>
<path d="M0 99.9689C0 100.283 0 100.44 0.0610761 100.56C0.1148 100.665 0.200525 100.751 0.305964 100.804C0.425833 100.866 0.582749 100.866 0.896583 100.866H8.40546V97.8395C8.40546 97.5257 8.40546 97.3688 8.34439 97.2489C8.29066 97.1435 8.20494 97.0578 8.0995 97.004C7.97963 96.943 7.82271 96.943 7.50888 96.943H0.896584C0.58275 96.943 0.425833 96.943 0.305964 97.004C0.200525 97.0578 0.1148 97.1435 0.0610761 97.2489C0 97.3688 0 97.5257 0 97.8395L0 99.9689Z" fill="url(#paint10_linear_0_156)"/>
<path d="M0 113.53C0 113.216 0 113.059 0.0610761 112.939C0.1148 112.834 0.200525 112.748 0.305964 112.694C0.425833 112.633 0.582749 112.633 0.896583 112.633H8.40546V115.659C8.40546 115.973 8.40546 116.13 8.34439 116.25C8.29066 116.355 8.20494 116.441 8.0995 116.495C7.97963 116.556 7.82271 116.556 7.50888 116.556H1.79317C1.1655 116.556 0.851665 116.556 0.611928 116.434C0.40105 116.326 0.2296 116.155 0.122152 115.944C0 115.704 0 115.39 0 114.763L0 113.53Z" fill="url(#paint11_linear_0_156)"/>
<path fill-rule="evenodd" clip-rule="evenodd" d="M0.122152 115.944C0 115.704 0 115.39 0 114.763V98.1759C0 97.5482 0 97.2344 0.122152 96.9947C0.2296 96.7838 0.40105 96.6123 0.611928 96.5049C0.851666 96.3827 1.1655 96.3827 1.79317 96.3827H7.17266C7.80033 96.3827 8.11416 96.3827 8.3539 96.5049C8.56478 96.6123 8.73623 96.7838 8.84368 96.9947C8.96583 97.2344 8.96583 97.5482 8.96583 98.1759V114.763C8.96583 115.39 8.96583 115.704 8.84368 115.944C8.73623 116.155 8.56478 116.326 8.3539 116.434C8.11416 116.556 7.80033 116.556 7.17266 116.556H1.79317C1.1655 116.556 0.851666 116.556 0.611928 116.434C0.40105 116.326 0.2296 116.155 0.122152 115.944ZM0.62144 115.69C0.560364 115.57 0.560364 115.413 0.560364 115.099V97.8397C0.560364 97.5259 0.560364 97.3689 0.62144 97.2491C0.675164 97.1436 0.760889 97.0579 0.866329 97.0042C0.986197 96.9431 1.14311 96.9431 1.45695 96.9431H7.50888C7.82271 96.9431 7.97963 96.9431 8.0995 97.0042C8.20494 97.0579 8.29066 97.1436 8.34439 97.2491C8.40546 97.3689 8.40546 97.5259 8.40546 97.8397V115.099C8.40546 115.413 8.40546 115.57 8.34439 115.69C8.29066 115.795 8.20494 115.881 8.0995 115.934C7.97963 115.995 7.82271 115.995 7.50888 115.995H1.45695C1.14311 115.995 0.986197 115.995 0.866329 115.934C0.760889 115.881 0.675164 115.795 0.62144 115.69Z" fill="#353638"/>
<path fill-rule="evenodd" clip-rule="evenodd" d="M9.94005 25.646C5.60365 34.1566 5.60365 45.2977 5.60365 67.5799V432.265C5.60365 454.547 5.60365 465.688 9.94005 474.199C13.7545 481.685 19.8409 487.772 27.3271 491.586C35.8378 495.922 46.9789 495.922 69.261 495.922H176.739C199.021 495.922 210.162 495.922 218.673 491.586C226.159 487.772 232.245 481.685 236.06 474.199C240.396 465.688 240.396 454.547 240.396 432.265V67.5799C240.396 45.2977 240.396 34.1566 236.06 25.646C232.245 18.1598 226.159 12.0733 218.673 8.25892C210.162 3.92252 199.021 3.92252 176.739 3.92252H69.261C46.9789 3.92252 35.8378 3.92252 27.3271 8.25892C19.8409 12.0733 13.7545 18.1598 9.94005 25.646ZM16.3086 28.3413C12.8884 35.0539 12.8884 43.8412 12.8884 61.4159V438.429C12.8884 456.004 12.8884 464.791 16.3086 471.504C19.3172 477.408 24.1178 482.209 30.0224 485.217C36.735 488.638 45.5224 488.638 63.097 488.638H182.903C200.478 488.638 209.265 488.638 215.978 485.217C221.882 482.209 226.683 477.408 229.691 471.504C233.112 464.791 233.112 456.004 233.112 438.429V61.4159C233.112 43.8412 233.112 35.0539 229.691 28.3413C226.683 22.4367 221.882 17.6361 215.978 14.6275C209.265 11.2073 200.478 11.2073 182.903 11.2073H63.097C45.5224 11.2073 36.735 11.2073 30.0224 14.6275C24.1178 17.6361 19.3172 22.4367 16.3086 28.3413Z" fill="black"/>
<path fill-rule="evenodd" clip-rule="evenodd" d="M9.3186 24.7798C5.04328 33.1706 5.04328 44.1547 5.04328 66.1231V433.722C5.04328 455.69 5.04328 466.675 9.3186 475.065C13.0793 482.446 19.08 488.447 26.4608 492.208C34.8516 496.483 45.8357 496.483 67.8041 496.483H178.196C200.164 496.483 211.148 496.483 219.539 492.208C226.92 488.447 232.921 482.446 236.681 475.065C240.957 466.675 240.957 455.69 240.957 433.722V66.1231C240.957 44.1547 240.957 33.1706 236.681 24.7798C232.921 17.399 226.92 11.3983 219.539 7.63759C211.148 3.36227 200.164 3.36227 178.196 3.36227H67.8041C45.8357 3.36227 34.8516 3.36227 26.4608 7.63759C19.08 11.3983 13.0793 17.399 9.3186 24.7798ZM9.94007 25.6461C5.60367 34.1568 5.60367 45.2978 5.60367 67.58V432.265C5.60367 454.547 5.60367 465.688 9.94007 474.199C13.7545 481.685 19.8409 487.772 27.3271 491.586C35.8378 495.922 46.9789 495.922 69.2611 495.922H176.739C199.021 495.922 210.162 495.922 218.673 491.586C226.159 487.772 232.246 481.685 236.06 474.199C240.396 465.688 240.396 454.547 240.396 432.265V67.58C240.396 45.2978 240.396 34.1568 236.06 25.6461C232.246 18.1599 226.159 12.0734 218.673 8.25903C210.162 3.92263 199.021 3.92263 176.739 3.92263H69.2611C46.9789 3.92263 35.8378 3.92263 27.3271 8.25903C19.8409 12.0734 13.7545 18.1599 9.94007 25.6461Z" fill="#272624"/>
<path fill-rule="evenodd" clip-rule="evenodd" d="M8.32012 24.2709C3.92264 32.9015 3.92264 44.1995 3.92264 66.7955V433.05C3.92264 455.646 3.92264 466.944 8.32012 475.574C12.1882 483.166 18.3604 489.338 25.9521 493.206C34.5826 497.604 45.8806 497.604 68.4766 497.604H177.524C200.12 497.604 211.418 497.604 220.048 493.206C227.64 489.338 233.812 483.166 237.68 475.574C242.077 466.944 242.077 455.646 242.077 433.05V66.7955C242.077 44.1995 242.077 32.9015 237.68 24.2709C233.812 16.6793 227.64 10.5071 220.048 6.63899C211.418 2.24151 200.12 2.24151 177.524 2.24151H68.4766C45.8806 2.24151 34.5826 2.24151 25.9521 6.63899C18.3604 10.5071 12.1882 16.6793 8.32012 24.2709ZM9.3187 24.7797C5.04337 33.1705 5.04337 44.1547 5.04337 66.123V433.722C5.04337 455.69 5.04337 466.675 9.3187 475.065C13.0794 482.446 19.0801 488.447 26.4609 492.208C34.8517 496.483 45.8358 496.483 67.8042 496.483H178.196C200.164 496.483 211.148 496.483 219.539 492.208C226.92 488.447 232.921 482.446 236.681 475.065C240.957 466.675 240.957 455.69 240.957 433.722V66.123C240.957 44.1547 240.957 33.1705 236.681 24.7797C232.921 17.399 226.92 11.3982 219.539 7.63756C211.148 3.36224 200.164 3.36224 178.196 3.36224H67.8042C45.8358 3.36224 34.8517 3.36224 26.4609 7.63756C19.0801 11.3982 13.0794 17.399 9.3187 24.7797Z" fill="black"/>
<path fill-rule="evenodd" clip-rule="evenodd" d="M7.32152 23.7621C2.80189 32.6324 2.80189 44.2442 2.80189 67.4679V432.377C2.80189 455.601 2.80189 467.213 7.32152 476.083C11.2971 483.885 17.6407 490.229 25.4432 494.205C34.3135 498.724 45.9253 498.724 69.149 498.724H176.851C200.075 498.724 211.687 498.724 220.557 494.205C228.359 490.229 234.703 483.885 238.679 476.083C243.198 467.213 243.198 455.601 243.198 432.377V67.4679C243.198 44.2442 243.198 32.6324 238.679 23.7621C234.703 15.9596 228.359 9.61596 220.557 5.64038C211.687 1.12076 200.075 1.12076 176.851 1.12076H69.149C45.9253 1.12076 34.3135 1.12076 25.4432 5.64038C17.6407 9.61596 11.2971 15.9596 7.32152 23.7621ZM8.32009 24.2709C3.92262 32.9014 3.92262 44.1994 3.92262 66.7955V433.05C3.92262 455.646 3.92262 466.944 8.32009 475.574C12.1882 483.166 18.3604 489.338 25.952 493.206C34.5826 497.604 45.8806 497.604 68.4766 497.604H177.523C200.119 497.604 211.417 497.604 220.048 493.206C227.64 489.338 233.812 483.166 237.68 475.574C242.077 466.944 242.077 455.646 242.077 433.05V66.7955C242.077 44.1994 242.077 32.9014 237.68 24.2709C233.812 16.6793 227.64 10.5071 220.048 6.63896C211.417 2.24148 200.119 2.24148 177.523 2.24148H68.4766C45.8806 2.24148 34.5826 2.24148 25.952 6.63896C18.3604 10.5071 12.1882 16.6793 8.32009 24.2709Z" fill="#2C2C2C"/>
<path fill-rule="evenodd" clip-rule="evenodd" d="M6.82221 23.5076C2.24151 32.4977 2.24151 44.2665 2.24151 67.804V432.041C2.24151 455.578 2.24151 467.347 6.82221 476.337C10.8515 484.245 17.2809 490.674 25.1888 494.704C34.179 499.284 45.9477 499.284 69.4852 499.284H176.515C200.052 499.284 211.821 499.284 220.811 494.704C228.719 490.674 235.149 484.245 239.178 476.337C243.759 467.347 243.759 455.578 243.759 432.041V67.804C243.759 44.2665 243.759 32.4977 239.178 23.5076C235.149 15.5996 228.719 9.17026 220.811 5.14096C211.821 0.560255 200.052 0.560255 176.515 0.560255H69.4852C45.9477 0.560255 34.179 0.560255 25.1888 5.14096C17.2809 9.17026 10.8515 15.5996 6.82221 23.5076ZM7.3215 23.762C2.80187 32.6322 2.80187 44.2441 2.80187 67.4678V432.377C2.80187 455.601 2.80187 467.212 7.3215 476.083C11.2971 483.885 17.6407 490.229 25.4432 494.204C34.3135 498.724 45.9253 498.724 69.149 498.724H176.851C200.075 498.724 211.687 498.724 220.557 494.204C228.359 490.229 234.703 483.885 238.679 476.083C243.198 467.212 243.198 455.601 243.198 432.377V67.4678C243.198 44.2441 243.198 32.6322 238.679 23.762C234.703 15.9595 228.359 9.61583 220.557 5.64025C211.687 1.12062 200.075 1.12062 176.851 1.12062H69.149C45.9253 1.12062 34.3135 1.12062 25.4432 5.64025C17.6407 9.61583 11.2971 15.9595 7.3215 23.762Z" fill="#85817D"/>
<path fill-rule="evenodd" clip-rule="evenodd" d="M6.32291 23.2533C1.68113 32.3633 1.68113 44.289 1.68113 68.1403V431.705C1.68113 455.556 1.68113 467.482 6.32291 476.592C10.4059 484.605 16.921 491.12 24.9344 495.203C34.0444 499.845 45.9701 499.845 69.8214 499.845H176.179C200.03 499.845 211.956 499.845 221.066 495.203C229.079 491.12 235.594 484.605 239.677 476.592C244.319 467.482 244.319 455.556 244.319 431.705V68.1403C244.319 44.289 244.319 32.3633 239.677 23.2533C235.594 15.2399 229.079 8.7248 221.066 4.64178C211.956 0 200.03 0 176.179 0H69.8214C45.9701 0 34.0444 0 24.9344 4.64178C16.921 8.7248 10.4059 15.2399 6.32291 23.2533ZM6.8222 23.5077C2.2415 32.4978 2.2415 44.2666 2.2415 67.8041V432.041C2.2415 455.578 2.2415 467.347 6.8222 476.337C10.8515 484.245 17.2809 490.675 25.1888 494.704C34.1789 499.285 45.9477 499.285 69.4852 499.285H176.515C200.052 499.285 211.821 499.285 220.811 494.704C228.719 490.675 235.149 484.245 239.178 476.337C243.759 467.347 243.759 455.578 243.759 432.041V67.8041C243.759 44.2666 243.759 32.4978 239.178 23.5077C235.149 15.5997 228.719 9.17037 220.811 5.14107C211.821 0.560364 200.052 0.560364 176.515 0.560364H69.4852C45.9477 0.560364 34.1789 0.560364 25.1888 5.14107C17.2809 9.17037 10.8515 15.5997 6.8222 23.5077Z" fill="#4F4B47"/>
<rect opacity="0.5" x="187.162" width="3.92255" height="3.92255" fill="black"/>
<rect opacity="0.5" x="1.68113" y="52.6743" width="3.92255" height="3.36219" fill="black"/>
<rect opacity="0.5" x="1.68113" y="443.809" width="3.92255" height="3.36219" fill="black"/>
<rect opacity="0.5" x="240.396" y="443.809" width="3.92255" height="3.36219" fill="black"/>
<rect opacity="0.5" x="52.6743" y="495.923" width="3.36219" height="3.92255" fill="black"/>
<path opacity="0.5" d="M98.344 4.2027H147.656V4.48288C147.656 4.8798 147.656 5.16064 147.638 5.38018C147.62 5.59646 147.587 5.72848 147.534 5.83223C147.426 6.04311 147.255 6.21456 147.044 6.32201C146.94 6.37487 146.808 6.40833 146.592 6.426C146.373 6.44394 146.092 6.44416 145.695 6.44416H100.305C99.9084 6.44416 99.6275 6.44394 99.408 6.426C99.1917 6.40833 99.0597 6.37487 98.9559 6.32201C98.745 6.21456 98.5736 6.04311 98.4661 5.83223C98.4133 5.72848 98.3798 5.59646 98.3621 5.38018C98.3442 5.16064 98.344 4.8798 98.344 4.48289V4.2027Z" fill="#0F1013" stroke="url(#paint12_linear_0_156)" stroke-width="0.559923"/>
<path opacity="0.8" fill-rule="evenodd" clip-rule="evenodd" d="M99.1846 5.04338C99.1846 4.7339 99.4354 4.48302 99.7449 4.48302H146.255C146.565 4.48302 146.816 4.7339 146.816 5.04338C146.816 5.35287 146.565 5.60375 146.255 5.60375H99.7449C99.4355 5.60375 99.1846 5.35287 99.1846 5.04338Z" fill="#1F2224"/>
<defs>
<linearGradient id="paint0_linear_0_156" x1="241.517" y1="158.023" x2="241.517" y2="218.542" gradientUnits="userSpaceOnUse">
<stop stop-color="#4E4A46"/>
<stop offset="0.484375" stop-color="#736F6B"/>
<stop offset="1" stop-color="#4E4A46"/>
</linearGradient>
<linearGradient id="paint1_linear_0_156" x1="241.237" y1="162.113" x2="241.237" y2="158.975" gradientUnits="userSpaceOnUse">
<stop stop-color="#3C3631"/>
<stop offset="0.249443" stop-color="#050000"/>
<stop offset="0.475668" stop-color="#C1BDB9"/>
<stop offset="0.740898" stop-color="#C1BDB9"/>
<stop offset="1" stop-color="#736F6B"/>
</linearGradient>
<linearGradient id="paint2_linear_0_156" x1="241.237" y1="214.451" x2="241.237" y2="217.589" gradientUnits="userSpaceOnUse">
<stop stop-color="#3C3631"/>
<stop offset="0.249443" stop-color="#050000"/>
<stop offset="0.475668" stop-color="#C1BDB9"/>
<stop offset="0.740898" stop-color="#C1BDB9"/>
<stop offset="1" stop-color="#736F6B"/>
</linearGradient>
<linearGradient id="paint3_linear_0_156" x1="4.48291" y1="179.317" x2="4.48291" y2="217.421" gradientUnits="userSpaceOnUse">
<stop stop-color="#4E4A46"/>
<stop offset="0.484375" stop-color="#736F6B"/>
<stop offset="1" stop-color="#4E4A46"/>
</linearGradient>
<linearGradient id="paint4_linear_0_156" x1="4.20273" y1="183.407" x2="4.20273" y2="180.269" gradientUnits="userSpaceOnUse">
<stop stop-color="#3C3631"/>
<stop offset="0.249443" stop-color="#050000"/>
<stop offset="0.475668" stop-color="#C1BDB9"/>
<stop offset="0.740898" stop-color="#C1BDB9"/>
<stop offset="1" stop-color="#736F6B"/>
</linearGradient>
<linearGradient id="paint5_linear_0_156" x1="4.20273" y1="213.331" x2="4.20273" y2="216.469" gradientUnits="userSpaceOnUse">
<stop stop-color="#3C3631"/>
<stop offset="0.249443" stop-color="#050000"/>
<stop offset="0.475668" stop-color="#C1BDB9"/>
<stop offset="0.740898" stop-color="#C1BDB9"/>
<stop offset="1" stop-color="#736F6B"/>
</linearGradient>
<linearGradient id="paint6_linear_0_156" x1="4.48291" y1="132.246" x2="4.48291" y2="170.351" gradientUnits="userSpaceOnUse">
<stop stop-color="#4E4A46"/>
<stop offset="0.484375" stop-color="#736F6B"/>
<stop offset="1" stop-color="#4E4A46"/>
</linearGradient>
<linearGradient id="paint7_linear_0_156" x1="4.20273" y1="136.336" x2="4.20273" y2="133.198" gradientUnits="userSpaceOnUse">
<stop stop-color="#3C3631"/>
<stop offset="0.249443" stop-color="#050000"/>
<stop offset="0.475668" stop-color="#C1BDB9"/>
<stop offset="0.740898" stop-color="#C1BDB9"/>
<stop offset="1" stop-color="#736F6B"/>
</linearGradient>
<linearGradient id="paint8_linear_0_156" x1="4.20273" y1="166.26" x2="4.20273" y2="169.398" gradientUnits="userSpaceOnUse">
<stop stop-color="#3C3631"/>
<stop offset="0.249443" stop-color="#050000"/>
<stop offset="0.475668" stop-color="#C1BDB9"/>
<stop offset="0.740898" stop-color="#C1BDB9"/>
<stop offset="1" stop-color="#736F6B"/>
</linearGradient>
<linearGradient id="paint9_linear_0_156" x1="4.48291" y1="96.3827" x2="4.48291" y2="116.556" gradientUnits="userSpaceOnUse">
<stop stop-color="#4E4A46"/>
<stop offset="0.484375" stop-color="#736F6B"/>
<stop offset="1" stop-color="#4E4A46"/>
</linearGradient>
<linearGradient id="paint10_linear_0_156" x1="4.20273" y1="100.473" x2="4.20273" y2="97.3352" gradientUnits="userSpaceOnUse">
<stop stop-color="#3C3631"/>
<stop offset="0.249443" stop-color="#050000"/>
<stop offset="0.475668" stop-color="#C1BDB9"/>
<stop offset="0.740898" stop-color="#C1BDB9"/>
<stop offset="1" stop-color="#736F6B"/>
</linearGradient>
<linearGradient id="paint11_linear_0_156" x1="4.20273" y1="113.026" x2="4.20273" y2="116.164" gradientUnits="userSpaceOnUse">
<stop stop-color="#3C3631"/>
<stop offset="0.249443" stop-color="#050000"/>
<stop offset="0.475668" stop-color="#C1BDB9"/>
<stop offset="0.740898" stop-color="#C1BDB9"/>
<stop offset="1" stop-color="#736F6B"/>
</linearGradient>
<linearGradient id="paint12_linear_0_156" x1="98.0638" y1="3.92252" x2="98.0638" y2="6.72434" gradientUnits="userSpaceOnUse">
<stop stop-color="#101112"/>
<stop offset="1" stop-color="#232425"/>
</linearGradient>
</defs>
</svg>
