<svg width="260" height="5" viewBox="0 0 260 5" fill="none" xmlns="http://www.w3.org/2000/svg">
<g clip-path="url(#clip0_625_107996)">
<path d="M0.726562 2.465C3.59751 0.311796 6.46845 0.311796 9.33943 2.465C12.2103 4.61821 15.0813 4.61821 17.9522 2.465C20.8232 0.311796 23.6941 0.311796 26.5651 2.465C29.436 4.61821 32.307 4.61821 35.1779 2.465C38.0488 0.311796 40.9198 0.311796 43.7907 2.465C46.6617 4.61821 49.5326 4.61821 52.4036 2.465C55.2745 0.311796 58.1455 0.311796 61.0165 2.465C63.8874 4.61821 66.7583 4.61821 69.6292 2.465C72.5002 0.311796 75.3711 0.311796 78.2421 2.465C81.1131 4.61821 83.9844 4.61821 86.8549 2.465C89.7262 0.311796 92.5967 0.311796 95.468 2.465C98.3385 4.61821 101.21 4.61821 104.08 2.465C106.952 0.311796 109.823 0.311796 112.693 2.465C115.565 4.61821 118.435 4.61821 121.306 2.465C124.177 0.311796 127.048 0.311796 129.919 2.465C132.79 4.61821 135.661 4.61821 138.532 2.465C141.403 0.311796 144.274 0.311796 147.145 2.465C150.015 4.61821 152.887 4.61821 155.757 2.465C158.629 0.311796 161.5 0.311796 164.37 2.465C167.242 4.61821 170.112 4.61821 172.984 2.465C175.854 0.311796 178.725 0.311796 181.596 2.465C184.467 4.61821 187.338 4.61821 190.209 2.465C193.08 0.311796 195.951 0.311796 198.822 2.465C201.693 4.61821 204.564 4.61821 207.434 2.465C210.306 0.311796 213.177 0.311796 216.047 2.465C218.919 4.61821 221.789 4.61821 224.661 2.465C227.531 0.311796 230.402 0.311796 233.273 2.465C236.144 4.61821 239.015 4.61821 241.886 2.465C244.757 0.311796 247.628 0.311796 250.499 2.465C253.37 4.61821 256.241 4.61821 259.111 2.465" stroke="black" stroke-width="0.807453"/>
</g>
<defs>
<clipPath id="clip0_625_107996">
<rect width="260" height="4.84472" fill="white"/>
</clipPath>
</defs>
</svg>
