<svg width="151" height="153" viewBox="0 0 151 153" fill="none" xmlns="http://www.w3.org/2000/svg">
<path d="M68.4512 5.53143C72.5893 2.28407 78.4105 2.28407 82.5486 5.53143C85.5483 7.88538 89.5251 8.58659 93.1489 7.40054C98.1482 5.76435 103.618 7.75532 106.396 12.2222C108.41 15.4601 111.907 17.4792 115.718 17.6041C120.975 17.7764 125.435 21.5182 126.517 26.6658C127.302 30.3971 129.898 33.4905 133.436 34.9113C138.317 36.8714 141.228 41.9127 140.485 47.1201C139.946 50.8949 141.327 54.6894 144.166 57.2348C148.083 60.7462 149.094 66.4789 146.614 71.1181C144.817 74.4809 144.817 78.5191 146.614 81.8819C149.094 86.5211 148.083 92.2539 144.166 95.7652C141.327 98.3106 139.946 102.105 140.485 105.88C141.228 111.087 138.317 116.129 133.436 118.089C129.898 119.509 127.302 122.603 126.517 126.334C125.435 131.482 120.975 135.224 115.718 135.396C111.907 135.521 108.41 137.54 106.396 140.778C103.618 145.245 98.1482 147.236 93.1489 145.599C89.5251 144.413 85.5483 145.115 82.5487 147.469C78.4105 150.716 72.5893 150.716 68.4511 147.469C65.4515 145.115 61.4747 144.413 57.8509 145.599C52.8516 147.236 47.3815 145.245 44.6036 140.778C42.5899 137.54 39.0928 135.521 35.2818 135.396C30.0245 135.224 25.5652 131.482 24.4825 126.334C23.6977 122.603 21.1021 119.509 17.5637 118.089C12.6823 116.129 9.77171 111.087 10.5149 105.88C11.0537 102.105 9.67258 98.3106 6.8335 95.7652C2.9169 92.2539 1.90605 86.5211 4.3855 81.8819C6.1828 78.5191 6.1828 74.4809 4.3855 71.1181C1.90605 66.4789 2.91689 60.7462 6.8335 57.2348C9.67258 54.6894 11.0537 50.8949 10.5149 47.1201C9.77171 41.9127 12.6823 36.8714 17.5637 34.9113C21.1021 33.4905 23.6977 30.3971 24.4825 26.6658C25.5652 21.5182 30.0245 17.7764 35.2818 17.6041C39.0928 17.4792 42.5899 15.4601 44.6036 12.2222C47.3815 7.75532 52.8516 5.76435 57.8509 7.40054C61.4747 8.58659 65.4515 7.88538 68.4512 5.53143Z" fill="#C5EEFF"/>
<path d="M69.3997 12.4187C72.9816 9.61002 78.0184 9.61002 81.6003 12.4186C84.4595 14.6605 88.2507 15.3274 91.7038 14.1982C96.0286 12.7839 100.763 14.5047 103.167 18.3674C105.087 21.4515 108.423 23.3741 112.053 23.493C116.599 23.6419 120.461 26.8774 121.397 31.3278C122.146 34.8819 124.622 37.829 127.992 39.1812C132.213 40.8747 134.735 45.2354 134.092 49.7371C133.578 53.3321 134.896 56.947 137.6 59.37C140.988 62.4049 141.864 67.3641 139.719 71.3746C138.006 74.5769 138.006 78.4231 139.719 81.6254C141.864 85.6359 140.988 90.5951 137.6 93.63C134.896 96.053 133.578 99.6679 134.092 103.263C134.735 107.765 132.213 112.125 127.992 113.819C124.622 115.171 122.146 118.118 121.397 121.672C120.461 126.123 116.599 129.358 112.053 129.507C108.423 129.626 105.087 131.549 103.167 134.633C100.763 138.495 96.0286 140.216 91.7038 138.802C88.2507 137.673 84.4595 138.339 81.6003 140.581C78.0184 143.39 72.9816 143.39 69.3996 140.581C66.5405 138.339 62.7492 137.673 59.2962 138.802C54.9714 140.216 50.2369 138.495 47.8327 134.633C45.9132 131.549 42.5774 129.626 38.9471 129.507C34.4009 129.358 30.5393 126.123 29.6025 121.672C28.8544 118.118 26.3779 115.171 23.0075 113.819C18.7866 112.125 16.265 107.765 16.9081 103.263C17.4216 99.6679 16.1043 96.053 13.3995 93.63C10.0116 90.5951 9.13567 85.6359 11.2809 81.6254C12.9938 78.4231 12.9938 74.5769 11.2809 71.3746C9.13567 67.3641 10.0116 62.4049 13.3995 59.37C16.1043 56.947 17.4216 53.3321 16.9081 49.7371C16.265 45.2354 18.7866 40.8747 23.0075 39.1812C26.3779 37.829 28.8544 34.8819 29.6025 31.3278C30.5393 26.8774 34.4009 23.6419 38.9471 23.493C42.5774 23.3741 45.9132 21.4515 47.8327 18.3674C50.2369 14.5047 54.9714 12.7839 59.2962 14.1982C62.7492 15.3274 66.5405 14.6605 69.3997 12.4187Z" fill="#0098D6" stroke="url(#paint0_linear_207_24599)"/>
<path opacity="0.31" d="M45.7669 36.0196C45.7941 35.9765 45.8573 35.9776 45.883 36.0216C47.7805 39.2727 50.4776 42.0224 53.6834 43.9953C53.7276 44.0226 53.7265 44.0879 53.6813 44.1136C50.4086 45.9735 47.6172 48.6274 45.6074 51.8102C45.5802 51.8533 45.517 51.8522 45.4913 51.8082C43.5938 48.5571 40.8967 45.8074 37.6909 43.8345C37.6467 43.8073 37.6478 43.7419 37.693 43.7162C40.9657 41.8564 43.7571 39.2025 45.7669 36.0196Z" fill="white"/>
<path opacity="0.31" d="M106.99 107.108C107.006 107.084 107.041 107.085 107.055 107.109C108.108 108.913 109.604 110.439 111.383 111.533C111.407 111.548 111.407 111.585 111.382 111.599C109.566 112.631 108.017 114.103 106.902 115.869C106.887 115.893 106.852 115.892 106.838 115.868C105.785 114.064 104.288 112.539 102.51 111.444C102.485 111.429 102.486 111.393 102.511 111.378C104.327 110.347 105.875 108.874 106.99 107.108Z" fill="white"/>
<path d="M102.625 62.5417L69.1252 96.0417L53.771 80.6875L57.7072 76.7512L69.1252 88.1412L98.6889 58.6054L102.625 62.5417Z" fill="white"/>
<path d="M103.442 63.3585C103.659 63.1419 103.78 62.848 103.78 62.5417C103.78 62.2353 103.659 61.9415 103.442 61.7248L99.5057 57.7886C99.0548 57.3376 98.3237 57.3374 97.8725 57.7882L69.1245 86.509L58.5231 75.9334C58.0718 75.4832 57.3411 75.4837 56.8904 75.9344L52.9542 79.8707C52.503 80.3218 52.503 81.0532 52.9542 81.5043L68.3083 96.8585C68.7595 97.3096 69.4909 97.3096 69.942 96.8585L103.442 63.3585Z" stroke="white" stroke-opacity="0.38" stroke-width="2.31034" stroke-linejoin="round"/>
<path d="M103.442 61.3585C103.659 61.1419 103.78 60.848 103.78 60.5417C103.78 60.2353 103.659 59.9415 103.442 59.7248L99.5057 55.7886C99.0548 55.3376 98.3237 55.3374 97.8725 55.7882L69.1245 84.509L58.5231 73.9334C58.0718 73.4832 57.3411 73.4837 56.8904 73.9344L52.9542 77.8707C52.503 78.3218 52.503 79.0532 52.9542 79.5043L68.3083 94.8585C68.7595 95.3096 69.4909 95.3096 69.942 94.8585L103.442 61.3585Z" fill="white" stroke="white" stroke-width="2.31034" stroke-linejoin="round"/>
<defs>
<linearGradient id="paint0_linear_207_24599" x1="75.5" y1="7" x2="75.5" y2="146" gradientUnits="userSpaceOnUse">
<stop offset="0.546361" stop-color="white"/>
<stop offset="1" stop-color="white" stop-opacity="0"/>
</linearGradient>
</defs>
</svg>
