<svg width="414" height="896" viewBox="0 0 414 896" fill="none" xmlns="http://www.w3.org/2000/svg">
<g clip-path="url(#clip0_213_24285)">
<rect width="414" height="896" rx="40" fill="white"/>
<mask id="mask0_213_24285" style="mask-type:alpha" maskUnits="userSpaceOnUse" x="-105" y="98" width="625" height="373">
<rect x="-105" y="98" width="624.921" height="373" fill="url(#paint0_radial_213_24285)"/>
</mask>
<g mask="url(#mask0_213_24285)">
<rect x="-24.6066" y="104.184" width="51.4258" height="51.4258" stroke="#0596D1" stroke-width="0.65096"/>
<rect x="26.8191" y="104.184" width="51.4258" height="51.4258" stroke="#0596D1" stroke-width="0.65096"/>
<rect x="78.2454" y="104.184" width="51.4258" height="51.4258" stroke="#0596D1" stroke-width="0.65096"/>
<rect x="129.671" y="104.184" width="51.4258" height="51.4258" stroke="#0596D1" stroke-width="0.65096"/>
<rect x="181.097" y="104.184" width="51.4258" height="51.4258" stroke="#0596D1" stroke-width="0.65096"/>
<rect x="232.523" y="104.184" width="51.4258" height="51.4258" stroke="#0596D1" stroke-width="0.65096"/>
<rect x="283.949" y="104.184" width="51.4258" height="51.4258" fill="white" stroke="#0596D1" stroke-width="0.65096"/>
<rect x="335.374" y="104.184" width="51.4258" height="51.4258" stroke="#0596D1" stroke-width="0.65096"/>
<rect x="386.8" y="104.184" width="51.4258" height="51.4258" stroke="#0596D1" stroke-width="0.65096"/>
<rect x="-24.6066" y="155.61" width="51.4258" height="51.4258" stroke="#0596D1" stroke-width="0.65096"/>
<rect x="26.8191" y="155.61" width="51.4258" height="51.4258" stroke="#0596D1" stroke-width="0.65096"/>
<rect x="78.2454" y="155.61" width="51.4258" height="51.4258" stroke="#0596D1" stroke-width="0.65096"/>
<rect x="129.671" y="155.61" width="51.4258" height="51.4258" stroke="#0596D1" stroke-width="0.65096"/>
<rect x="181.097" y="155.61" width="51.4258" height="51.4258" stroke="#0596D1" stroke-width="0.65096"/>
<rect x="232.523" y="155.61" width="51.4258" height="51.4258" stroke="#0596D1" stroke-width="0.65096"/>
<rect x="283.949" y="155.61" width="51.4258" height="51.4258" stroke="#0596D1" stroke-width="0.65096"/>
<rect x="335.374" y="155.61" width="51.4258" height="51.4258" stroke="#0596D1" stroke-width="0.65096"/>
<rect x="386.8" y="155.61" width="51.4258" height="51.4258" stroke="#0596D1" stroke-width="0.65096"/>
<rect x="-24.6066" y="207.036" width="51.4258" height="51.4258" stroke="#0596D1" stroke-width="0.65096"/>
<rect x="26.8191" y="207.036" width="51.4258" height="51.4258" stroke="#0596D1" stroke-width="0.65096"/>
<rect x="78.2454" y="207.036" width="51.4258" height="51.4258" stroke="#0596D1" stroke-width="0.65096"/>
<rect x="129.671" y="207.036" width="51.4258" height="51.4258" stroke="#0596D1" stroke-width="0.65096"/>
<rect x="181.097" y="207.036" width="51.4258" height="51.4258" stroke="#0596D1" stroke-width="0.65096"/>
<rect x="232.523" y="207.036" width="51.4258" height="51.4258" stroke="#0596D1" stroke-width="0.65096"/>
<rect x="283.949" y="207.036" width="51.4258" height="51.4258" stroke="#0596D1" stroke-width="0.65096"/>
<rect x="335.374" y="207.036" width="51.4258" height="51.4258" stroke="#0596D1" stroke-width="0.65096"/>
<rect x="386.8" y="207.036" width="51.4258" height="51.4258" stroke="#0596D1" stroke-width="0.65096"/>
<rect x="-24.6066" y="258.462" width="51.4258" height="51.4258" stroke="#0596D1" stroke-width="0.65096"/>
<rect x="26.8191" y="258.462" width="51.4258" height="51.4258" stroke="#0596D1" stroke-width="0.65096"/>
<rect x="78.2454" y="258.462" width="51.4258" height="51.4258" stroke="#0596D1" stroke-width="0.65096"/>
<rect x="129.671" y="258.462" width="51.4258" height="51.4258" stroke="#0596D1" stroke-width="0.65096"/>
<rect x="181.097" y="258.462" width="51.4258" height="51.4258" stroke="#0596D1" stroke-width="0.65096"/>
<rect x="232.523" y="258.462" width="51.4258" height="51.4258" stroke="#0596D1" stroke-width="0.65096"/>
<rect x="283.949" y="258.462" width="51.4258" height="51.4258" stroke="#0596D1" stroke-width="0.65096"/>
<rect x="335.374" y="258.462" width="51.4258" height="51.4258" stroke="#0596D1" stroke-width="0.65096"/>
<rect x="386.8" y="258.462" width="51.4258" height="51.4258" stroke="#0596D1" stroke-width="0.65096"/>
<rect x="-24.6066" y="309.887" width="51.4258" height="51.4258" stroke="#0596D1" stroke-width="0.65096"/>
<rect x="26.8191" y="309.887" width="51.4258" height="51.4258" stroke="#0596D1" stroke-width="0.65096"/>
<rect x="78.2454" y="309.887" width="51.4258" height="51.4258" stroke="#0596D1" stroke-width="0.65096"/>
<rect x="129.671" y="309.887" width="51.4258" height="51.4258" stroke="#0596D1" stroke-width="0.65096"/>
<rect x="181.097" y="309.887" width="51.4258" height="51.4258" stroke="#0596D1" stroke-width="0.65096"/>
<rect x="232.523" y="309.887" width="51.4258" height="51.4258" stroke="#0596D1" stroke-width="0.65096"/>
<rect x="283.949" y="309.887" width="51.4258" height="51.4258" stroke="#0596D1" stroke-width="0.65096"/>
<rect x="335.374" y="309.887" width="51.4258" height="51.4258" stroke="#0596D1" stroke-width="0.65096"/>
<rect x="386.8" y="309.887" width="51.4258" height="51.4258" stroke="#0596D1" stroke-width="0.65096"/>
<rect x="-24.6066" y="361.313" width="51.4258" height="51.4258" stroke="#0596D1" stroke-width="0.65096"/>
<rect x="26.8191" y="361.313" width="51.4258" height="51.4258" stroke="#0596D1" stroke-width="0.65096"/>
<rect x="78.2454" y="361.313" width="51.4258" height="51.4258" stroke="#0596D1" stroke-width="0.65096"/>
<rect x="129.671" y="361.313" width="51.4258" height="51.4258" stroke="#0596D1" stroke-width="0.65096"/>
<rect x="181.097" y="361.313" width="51.4258" height="51.4258" stroke="#0596D1" stroke-width="0.65096"/>
<rect x="232.523" y="361.313" width="51.4258" height="51.4258" stroke="#0596D1" stroke-width="0.65096"/>
<rect x="283.949" y="361.313" width="51.4258" height="51.4258" stroke="#0596D1" stroke-width="0.65096"/>
<rect x="335.374" y="361.313" width="51.4258" height="51.4258" stroke="#0596D1" stroke-width="0.65096"/>
<rect x="386.8" y="361.313" width="51.4258" height="51.4258" stroke="#0596D1" stroke-width="0.65096"/>
<rect x="-24.6066" y="412.739" width="51.4258" height="51.4258" stroke="#0596D1" stroke-width="0.65096"/>
<rect x="26.8191" y="412.739" width="51.4258" height="51.4258" stroke="#0596D1" stroke-width="0.65096"/>
<rect x="78.2454" y="412.739" width="51.4258" height="51.4258" stroke="#0596D1" stroke-width="0.65096"/>
<rect x="129.671" y="412.739" width="51.4258" height="51.4258" stroke="#0596D1" stroke-width="0.65096"/>
<rect x="181.097" y="412.739" width="51.4258" height="51.4258" stroke="#0596D1" stroke-width="0.65096"/>
<rect x="232.523" y="412.739" width="51.4258" height="51.4258" stroke="#0596D1" stroke-width="0.65096"/>
<rect x="283.949" y="412.739" width="51.4258" height="51.4258" stroke="#0596D1" stroke-width="0.65096"/>
<rect x="335.374" y="412.739" width="51.4258" height="51.4258" stroke="#0596D1" stroke-width="0.65096"/>
<rect x="386.8" y="412.739" width="51.4258" height="51.4258" stroke="#0596D1" stroke-width="0.65096"/>
</g>
<path d="M36.8256 31.2812C39.2631 31.2812 40.9741 29.6797 40.9741 27.3359V27.3203C40.9741 25.1641 39.4506 23.6016 37.3491 23.6016C36.2866 23.6016 35.4116 24.0547 34.9428 24.8125H34.81L35.1225 21.3828H40.3178V19.7266H33.5522L33.0053 26.3281H34.7319C34.8647 26.0781 35.0522 25.8594 35.2553 25.6875C35.6694 25.3125 36.2162 25.125 36.8491 25.125C38.1381 25.125 39.06 26.0469 39.06 27.3594V27.375C39.06 28.7031 38.1537 29.6328 36.8334 29.6328C35.6772 29.6328 34.8256 28.8984 34.6772 27.9766L34.6694 27.9219H32.81L32.8178 28.0234C32.9662 29.875 34.5209 31.2812 36.8256 31.2812ZM44.4028 23.6953C45.1216 23.6953 45.645 23.1484 45.645 22.4609C45.645 21.7656 45.1216 21.2266 44.4028 21.2266C43.6919 21.2266 43.1606 21.7656 43.1606 22.4609C43.1606 23.1484 43.6919 23.6953 44.4028 23.6953ZM44.4028 29.4922C45.1216 29.4922 45.645 28.9531 45.645 28.2578C45.645 27.5625 45.1216 27.0234 44.4028 27.0234C43.6919 27.0234 43.1606 27.5625 43.1606 28.2578C43.1606 28.9531 43.6919 29.4922 44.4028 29.4922ZM48.1128 31H55.9409V29.3281H50.8394V29.1641L53.0972 26.9766C55.1519 25 55.7691 23.9844 55.7691 22.7031V22.6797C55.7691 20.7812 54.1909 19.4453 51.9956 19.4453C49.6441 19.4453 48.0034 20.9141 48.0034 23.0156L48.0112 23.0391L49.8862 23.0469L49.8941 23.0156C49.8941 21.8516 50.6987 21.0625 51.8941 21.0625C53.0659 21.0625 53.7769 21.8125 53.7769 22.8516V22.875C53.7769 23.7422 53.3472 24.3125 51.8159 25.8594L48.1128 29.6406V31ZM63.0572 31H64.9869V28.8359H66.5025V27.1719H64.9869V19.7266H62.1353C60.6041 22.0547 59.0025 24.6484 57.5416 27.1875V28.8359H63.0572V31ZM59.4166 27.2188V27.1016C60.5103 25.1875 61.815 23.1016 62.9712 21.3359H63.0884V27.2188H59.4166Z" fill="#192431"/>
<path d="M320.386 21.1893C320.386 20.5562 320.9 20.0429 321.533 20.0429H322.679C323.312 20.0429 323.826 20.5562 323.826 21.1893V30.3609C323.826 30.9941 323.312 31.5074 322.679 31.5074H321.533C320.9 31.5074 320.386 30.9941 320.386 30.3609V21.1893Z" fill="#192431"/>
<path d="M326.119 18.8964C326.119 18.2633 326.632 17.75 327.265 17.75H328.412C329.045 17.75 329.558 18.2633 329.558 18.8964V30.3609C329.558 30.9941 329.045 31.5074 328.412 31.5074H327.265C326.632 31.5074 326.119 30.9941 326.119 30.3609V18.8964Z" fill="#192431"/>
<path d="M314.654 25.2019C314.654 24.5688 315.167 24.0555 315.801 24.0555H316.947C317.58 24.0555 318.093 24.5688 318.093 25.2019V30.3609C318.093 30.9941 317.58 31.5074 316.947 31.5074H315.801C315.167 31.5074 314.654 30.9941 314.654 30.3609V25.2019Z" fill="#192431"/>
<path d="M308.922 28.068C308.922 27.4349 309.435 26.9216 310.068 26.9216H311.215C311.848 26.9216 312.361 27.4349 312.361 28.068V30.3609C312.361 30.9941 311.848 31.5074 311.215 31.5074H310.068C309.435 31.5074 308.922 30.9941 308.922 30.3609V28.068Z" fill="#192431"/>
<path fill-rule="evenodd" clip-rule="evenodd" d="M345.265 20.7165C348.093 20.7166 350.812 21.8257 352.862 23.8145C353.016 23.9681 353.263 23.9661 353.415 23.8102L354.89 22.2905C354.967 22.2114 355.01 22.1042 355.009 21.9927C355.009 21.8813 354.964 21.7746 354.887 21.6965C349.507 16.4345 341.021 16.4345 335.642 21.6965C335.564 21.7746 335.52 21.8812 335.52 21.9927C335.519 22.1041 335.562 22.2113 335.639 22.2905L337.114 23.8102C337.266 23.9664 337.513 23.9683 337.667 23.8145C339.717 21.8256 342.437 20.7165 345.265 20.7165ZM345.306 25.3038C346.859 25.3038 348.358 25.8932 349.509 26.9577C349.665 27.1088 349.911 27.1055 350.062 26.9503L351.536 25.4306C351.613 25.3509 351.657 25.2428 351.655 25.1304C351.654 25.018 351.609 24.9108 351.53 24.8327C348.023 21.5028 342.592 21.5028 339.085 24.8327C339.005 24.9108 338.96 25.0181 338.959 25.1305C338.958 25.2429 339.001 25.351 339.079 25.4306L340.552 26.9503C340.704 27.1055 340.949 27.1088 341.105 26.9577C342.256 25.8939 343.753 25.3045 345.306 25.3038ZM348.302 28.2707C348.305 28.3834 348.261 28.4921 348.182 28.571L345.634 31.1966C345.559 31.2738 345.457 31.3172 345.351 31.3172C345.244 31.3172 345.143 31.2738 345.068 31.1966L342.518 28.571C342.44 28.492 342.396 28.3833 342.399 28.2706C342.401 28.158 342.449 28.0512 342.531 27.9757C344.159 26.5703 346.543 26.5703 348.171 27.9757C348.252 28.0513 348.3 28.158 348.302 28.2707Z" fill="#192431"/>
<path fill-rule="evenodd" clip-rule="evenodd" d="M360.971 22.5192C360.971 19.8853 363.106 17.75 365.74 17.75H382.432C385.066 17.75 387.201 19.8853 387.201 22.5192V28.4808C387.201 31.1147 385.066 33.25 382.432 33.25H365.74C363.106 33.25 360.971 31.1147 360.971 28.4808V22.5192Z" fill="#192431"/>
<path d="M388.394 23.4822V28.3206C389.367 27.9108 390 26.9575 390 25.9014C390 24.8452 389.367 23.8919 388.394 23.4822Z" fill="#192431"/>
<path d="M369.208 21.6279C367.316 21.6279 365.989 22.897 365.989 24.6145V24.6261C365.989 26.2155 367.089 27.3798 368.725 27.3798C369.89 27.3798 370.588 26.7977 370.891 26.1514H371.007C371.007 26.2155 371.007 26.2795 371.007 26.3377C370.943 27.8689 370.408 29.0623 369.191 29.0623C368.516 29.0623 368.038 28.7072 367.835 28.1833L367.817 28.1309H366.094L366.105 28.1833C366.367 29.499 367.573 30.4596 369.197 30.4596C371.351 30.4596 372.678 28.7887 372.678 25.9768V25.9651C372.678 23.0135 371.153 21.6279 369.208 21.6279ZM369.208 26.0816C368.329 26.0816 367.689 25.447 367.689 24.5621V24.5504C367.689 23.6946 368.37 23.0251 369.22 23.0251C370.076 23.0251 370.745 23.7063 370.745 24.5854V24.597C370.745 25.4645 370.076 26.0816 369.208 26.0816ZM377.611 30.4363C379.631 30.4363 381.023 29.4291 381.023 27.9737V27.962C381.023 26.8675 380.202 26.0525 379.061 25.8312V25.7963C380.039 25.5518 380.714 24.8474 380.714 23.9333V23.9217C380.714 22.6176 379.433 21.6628 377.611 21.6628C375.783 21.6628 374.508 22.6176 374.508 23.9217V23.9333C374.508 24.8474 375.178 25.5576 376.161 25.7963V25.8312C375.015 26.0583 374.199 26.8675 374.199 27.962V27.9737C374.199 29.4291 375.591 30.4363 377.611 30.4363ZM377.611 25.2665C376.802 25.2665 376.243 24.7891 376.243 24.1022V24.0905C376.243 23.4035 376.808 22.932 377.611 22.932C378.409 22.932 378.973 23.4035 378.973 24.0905V24.1022C378.973 24.7891 378.414 25.2665 377.611 25.2665ZM377.611 29.1555C376.685 29.1555 376.033 28.6141 376.033 27.8572V27.8456C376.033 27.0888 376.68 26.5415 377.611 26.5415C378.543 26.5415 379.183 27.0888 379.183 27.8456V27.8572C379.183 28.6141 378.531 29.1555 377.611 29.1555Z" fill="white"/>
<path d="M109.401 421H113.013L120.153 401.4H116.457L111.193 416.436L105.985 401.4H102.261L109.401 421ZM128.779 416.296C128.415 417.64 127.267 418.368 125.503 418.368C123.319 418.368 121.863 416.912 121.611 414.644H132.027C132.055 414.364 132.083 413.944 132.083 413.468C132.083 410.108 129.955 406.664 125.223 406.664C120.603 406.664 118.307 410.164 118.307 413.888C118.307 417.584 120.883 421.224 125.503 421.224C128.975 421.224 131.607 419.292 132.139 416.296H128.779ZM125.223 409.24C127.267 409.24 128.499 410.584 128.639 412.376H121.695C122.059 410.248 123.291 409.24 125.223 409.24ZM142.325 409.772V406.888H140.673C138.853 406.888 137.761 407.588 137.061 409.38V406.888H133.617V421H137.061V414.336C137.061 411.648 137.929 409.772 140.113 409.772H142.325ZM143.329 400.84V404.676H147.025V400.84H143.329ZM143.469 421H146.913V406.888H143.469V421ZM150.9 421H154.344V409.772H158.46V406.888H154.344V405.74C154.344 404.508 155.128 403.752 156.332 403.752H158.46V400.84H155.94C152.888 400.84 150.9 402.716 150.9 405.572V406.888H148.128V409.772H150.9V421ZM172.044 406.888H168.516L165.268 416.576L161.992 406.888H158.492L163.644 421L161.656 426.712H164.932L167.116 420.328L172.044 406.888ZM190.489 406.888H186.961L183.713 416.576L180.437 406.888H176.937L182.089 421L180.101 426.712H183.377L185.561 420.328L190.489 406.888ZM197.448 421.224C201.732 421.224 204.812 418.144 204.812 413.944C204.812 409.744 201.732 406.664 197.448 406.664C193.136 406.664 190.056 409.744 190.056 413.944C190.056 418.144 193.136 421.224 197.448 421.224ZM197.448 418.256C195.096 418.256 193.528 416.492 193.528 413.944C193.528 411.396 195.096 409.632 197.448 409.632C199.772 409.632 201.34 411.396 201.34 413.944C201.34 416.492 199.772 418.256 197.448 418.256ZM219.4 406.888H215.956V414.588C215.956 416.66 214.612 418.172 212.68 418.172C210.944 418.172 209.74 416.828 209.74 414.896V406.888H206.324V415.624C206.324 418.928 208.396 421.224 211.56 421.224C213.576 421.224 215.172 420.356 215.956 418.816V421H219.4V406.888ZM230.351 409.772V406.888H228.699C226.879 406.888 225.787 407.588 225.087 409.38V406.888H221.643V421H225.087V414.336C225.087 411.648 225.955 409.772 228.139 409.772H230.351ZM236.976 426.712H240.392V419.46C241.176 420.552 242.688 421.224 244.396 421.224C248.54 421.224 251.2 418.256 251.2 413.944C251.2 409.632 248.708 406.664 244.648 406.664C242.772 406.664 241.232 407.448 240.392 408.652V406.888H236.976V426.712ZM244.004 418.256C241.68 418.256 240.168 416.548 240.168 413.944C240.168 411.34 241.68 409.632 244.004 409.632C246.272 409.632 247.784 411.34 247.784 413.944C247.784 416.548 246.272 418.256 244.004 418.256ZM261.382 409.772V406.888H259.73C257.91 406.888 256.818 407.588 256.118 409.38V406.888H252.674V421H256.118V414.336C256.118 411.648 256.986 409.772 259.17 409.772H261.382ZM268.642 421.224C272.926 421.224 276.006 418.144 276.006 413.944C276.006 409.744 272.926 406.664 268.642 406.664C264.33 406.664 261.25 409.744 261.25 413.944C261.25 418.144 264.33 421.224 268.642 421.224ZM268.642 418.256C266.29 418.256 264.722 416.492 264.722 413.944C264.722 411.396 266.29 409.632 268.642 409.632C270.966 409.632 272.534 411.396 272.534 413.944C272.534 416.492 270.966 418.256 268.642 418.256ZM290.882 406.888H282.342V405.74C282.342 404.508 283.126 403.752 284.33 403.752H286.458V400.84H283.938C280.886 400.84 278.898 402.716 278.898 405.572V406.888H276.126V409.772H278.898V421H282.342V409.772H287.466V421H290.882V406.888ZM293.198 421H296.614V400.84H293.198V421ZM308.768 416.296C308.404 417.64 307.256 418.368 305.492 418.368C303.308 418.368 301.852 416.912 301.6 414.644H312.016C312.044 414.364 312.072 413.944 312.072 413.468C312.072 410.108 309.944 406.664 305.212 406.664C300.592 406.664 298.296 410.164 298.296 413.888C298.296 417.584 300.872 421.224 305.492 421.224C308.964 421.224 311.596 419.292 312.128 416.296H308.768ZM305.212 409.24C307.256 409.24 308.488 410.584 308.628 412.376H301.684C302.048 410.248 303.28 409.24 305.212 409.24Z" fill="#192431"/>
<path d="M58.9641 457H60.3401V447.032H63.9081V445.8H55.3801V447.032H58.9641V457ZM65.0544 457H66.3344V452.648C66.3344 451.08 67.3264 449.976 68.7024 449.976C69.9184 449.976 70.7184 450.904 70.7184 452.28V457H71.9984V452.072C71.9984 450.104 70.8144 448.808 68.9904 448.808C67.7584 448.808 66.7504 449.368 66.3344 450.488V445.624H65.0544V457ZM79.8754 454.408C79.6194 455.416 78.7874 455.992 77.4754 455.992C75.9554 455.992 74.8514 454.808 74.7554 453.144H81.0594C81.0754 453.032 81.0914 452.76 81.0914 452.584C81.0914 450.44 79.6834 448.808 77.3314 448.808C74.9634 448.808 73.4914 450.552 73.4914 452.92C73.4914 455.224 75.0914 457.128 77.4754 457.128C79.4754 457.128 80.8994 456.056 81.1714 454.408H79.8754ZM77.3314 449.896C78.7714 449.896 79.6834 450.76 79.7794 452.12H74.8194C75.0594 450.696 75.9714 449.896 77.3314 449.896ZM88.1953 446.776V445.672H87.8913C86.7233 445.672 86.0033 446.408 86.0033 447.768V449.192H87.2833V447.816C87.2833 447.128 87.5553 446.776 87.9713 446.776H88.1953ZM90.6753 446.776V445.672H90.3713C89.2193 445.672 88.4993 446.408 88.4993 447.768V449.192H89.7633V447.816C89.7633 447.128 90.0353 446.776 90.4513 446.776H90.6753ZM95.8026 457H97.1946L101.435 445.8H100.043L96.4906 455.416L92.9706 445.8H91.5626L95.8026 457ZM107.235 454.408C106.979 455.416 106.147 455.992 104.835 455.992C103.315 455.992 102.211 454.808 102.115 453.144H108.419C108.435 453.032 108.451 452.76 108.451 452.584C108.451 450.44 107.043 448.808 104.691 448.808C102.323 448.808 100.851 450.552 100.851 452.92C100.851 455.224 102.451 457.128 104.835 457.128C106.835 457.128 108.259 456.056 108.531 454.408H107.235ZM104.691 449.896C106.131 449.896 107.043 450.76 107.139 452.12H102.179C102.419 450.696 103.331 449.896 104.691 449.896ZM114.511 450.072V448.936H113.487C112.303 448.936 111.631 449.464 111.295 450.568V448.936H110.015V457H111.295V453.448C111.295 451.544 111.759 450.072 113.391 450.072H114.511ZM115.618 445.624V447.416H117.09V445.624H115.618ZM115.714 457H116.994V448.936H115.714V457ZM125.729 448.936H121.105V448.136C121.105 447.272 121.617 446.76 122.401 446.76H123.617V445.624H122.337C120.801 445.624 119.825 446.584 119.825 448.12V448.936H118.145V450.072H119.825V457H121.105V450.072H124.449V457H125.729V448.936ZM133.502 454.408C133.246 455.416 132.414 455.992 131.102 455.992C129.582 455.992 128.478 454.808 128.382 453.144H134.686C134.702 453.032 134.718 452.76 134.718 452.584C134.718 450.44 133.31 448.808 130.958 448.808C128.59 448.808 127.118 450.552 127.118 452.92C127.118 455.224 128.718 457.128 131.102 457.128C133.102 457.128 134.526 456.056 134.798 454.408H133.502ZM130.958 449.896C132.398 449.896 133.31 450.76 133.406 452.12H128.446C128.686 450.696 129.598 449.896 130.958 449.896ZM139.705 457.128C140.841 457.128 141.897 456.552 142.377 455.672V457H143.657V445.624H142.377V450.248C141.897 449.384 140.841 448.808 139.705 448.808C137.193 448.808 135.817 450.616 135.817 452.968C135.817 455.32 137.193 457.128 139.705 457.128ZM139.817 455.976C138.201 455.976 137.129 454.792 137.129 452.968C137.129 451.144 138.201 449.96 139.817 449.96C141.433 449.96 142.489 451.144 142.489 452.968C142.489 454.792 141.433 455.976 139.817 455.976ZM149.384 460.264H150.664V455.704C151.144 456.568 152.184 457.128 153.32 457.128C155.816 457.128 157.224 455.32 157.224 452.968C157.224 450.616 155.848 448.808 153.352 448.808C152.2 448.808 151.16 449.384 150.664 450.264V448.936H149.384V460.264ZM153.224 455.976C151.608 455.976 150.552 454.792 150.552 452.968C150.552 451.144 151.608 449.96 153.224 449.96C154.84 449.96 155.896 451.144 155.896 452.968C155.896 454.792 154.84 455.976 153.224 455.976ZM163.203 450.072V448.936H162.179C160.995 448.936 160.323 449.464 159.987 450.568V448.936H158.707V457H159.987V453.448C159.987 451.544 160.451 450.072 162.083 450.072H163.203ZM167.664 457.128C170.064 457.128 171.776 455.384 171.776 452.968C171.776 450.536 170.064 448.808 167.664 448.808C165.28 448.808 163.568 450.536 163.568 452.968C163.568 455.384 165.28 457.128 167.664 457.128ZM167.664 455.976C166.016 455.976 164.88 454.728 164.88 452.968C164.88 451.208 166.016 449.96 167.664 449.96C169.328 449.96 170.464 451.208 170.464 452.968C170.464 454.728 169.328 455.976 167.664 455.976ZM179.828 448.936H175.204V448.136C175.204 447.272 175.716 446.76 176.5 446.76H177.716V445.624H176.436C174.9 445.624 173.924 446.584 173.924 448.12V448.936H172.244V450.072H173.924V457H175.204V450.072H178.548V457H179.828V448.936ZM181.744 457H183.024V445.624H181.744V457ZM190.956 454.408C190.7 455.416 189.868 455.992 188.556 455.992C187.036 455.992 185.932 454.808 185.836 453.144H192.14C192.156 453.032 192.172 452.76 192.172 452.584C192.172 450.44 190.764 448.808 188.412 448.808C186.044 448.808 184.572 450.552 184.572 452.92C184.572 455.224 186.172 457.128 188.556 457.128C190.556 457.128 191.98 456.056 192.252 454.408H190.956ZM188.412 449.896C189.852 449.896 190.764 450.76 190.86 452.12H185.9C186.14 450.696 187.052 449.896 188.412 449.896ZM192.929 448.088V449.192H193.233C194.401 449.192 195.121 448.456 195.121 447.096V445.672H193.841V447.048C193.841 447.752 193.569 448.088 193.153 448.088H192.929ZM195.409 448.088V449.192H195.713C196.881 449.192 197.601 448.456 197.601 447.096V445.672H196.321V447.048C196.321 447.752 196.049 448.088 195.633 448.088H195.409ZM206.869 457.128C209.381 457.128 210.757 455.32 210.757 452.968C210.757 450.616 209.381 448.808 206.869 448.808C205.733 448.808 204.693 449.384 204.197 450.248V445.624H202.917V457H204.197V455.672C204.693 456.552 205.749 457.128 206.869 457.128ZM206.757 455.976C205.141 455.976 204.085 454.792 204.085 452.968C204.085 451.144 205.141 449.96 206.757 449.96C208.389 449.96 209.445 451.144 209.445 452.968C209.445 454.792 208.389 455.976 206.757 455.976ZM215.282 448.808C213.474 448.808 212.002 449.96 211.858 451.512H213.074C213.138 450.632 214.066 449.896 215.25 449.896C216.626 449.896 217.41 450.648 217.41 451.752C217.41 452.008 217.25 452.184 216.898 452.184H215.074C213.122 452.184 211.858 453.16 211.858 454.696C211.858 456.168 212.962 457.128 214.658 457.128C215.906 457.128 216.978 456.536 217.41 455.608V457H218.69V451.8C218.69 450.008 217.378 448.808 215.282 448.808ZM214.85 456.04C213.826 456.04 213.17 455.512 213.17 454.68C213.17 453.736 213.954 453.16 215.154 453.16H217.41V453.368C217.41 455.032 216.466 456.04 214.85 456.04ZM223.848 457.128C224.984 457.128 226.04 456.552 226.52 455.672V457H227.8V445.624H226.52V450.248C226.04 449.384 224.984 448.808 223.848 448.808C221.336 448.808 219.96 450.616 219.96 452.968C219.96 455.32 221.336 457.128 223.848 457.128ZM223.96 455.976C222.344 455.976 221.272 454.792 221.272 452.968C221.272 451.144 222.344 449.96 223.96 449.96C225.576 449.96 226.632 451.144 226.632 452.968C226.632 454.792 225.576 455.976 223.96 455.976ZM235.97 448.936V450.12C235.474 449.352 234.386 448.808 233.298 448.808C230.786 448.808 229.41 450.616 229.41 452.968C229.41 455.32 230.786 457.128 233.298 457.128C234.514 457.128 235.586 456.632 235.97 455.88V457.304C235.97 458.376 235.234 459.16 234.194 459.16H230.466V460.264H234.274C236.018 460.264 237.25 459.064 237.25 457.352V448.936H235.97ZM233.41 455.976C231.778 455.976 230.722 454.792 230.722 452.968C230.722 451.144 231.778 449.96 233.41 449.96C235.026 449.96 236.082 451.144 236.082 452.968C236.082 454.792 235.026 455.976 233.41 455.976ZM245.18 454.408C244.924 455.416 244.092 455.992 242.78 455.992C241.26 455.992 240.156 454.808 240.06 453.144H246.364C246.38 453.032 246.396 452.76 246.396 452.584C246.396 450.44 244.988 448.808 242.636 448.808C240.268 448.808 238.796 450.552 238.796 452.92C238.796 455.224 240.396 457.128 242.78 457.128C244.78 457.128 246.204 456.056 246.476 454.408H245.18ZM242.636 449.896C244.076 449.896 244.988 450.76 245.084 452.12H240.124C240.364 450.696 241.276 449.896 242.636 449.896ZM256.108 450.072V448.936H255.084C253.9 448.936 253.228 449.464 252.892 450.568V448.936H251.612V457H252.892V453.448C252.892 451.544 253.356 450.072 254.988 450.072H256.108ZM262.856 454.408C262.6 455.416 261.768 455.992 260.456 455.992C258.936 455.992 257.832 454.808 257.736 453.144H264.04C264.056 453.032 264.072 452.76 264.072 452.584C264.072 450.44 262.664 448.808 260.312 448.808C257.944 448.808 256.472 450.552 256.472 452.92C256.472 455.224 258.072 457.128 260.456 457.128C262.456 457.128 263.88 456.056 264.152 454.408H262.856ZM260.312 449.896C261.752 449.896 262.664 450.76 262.76 452.12H257.8C258.04 450.696 258.952 449.896 260.312 449.896ZM268.677 448.808C266.869 448.808 265.397 449.96 265.253 451.512H266.469C266.533 450.632 267.461 449.896 268.645 449.896C270.021 449.896 270.805 450.648 270.805 451.752C270.805 452.008 270.645 452.184 270.293 452.184H268.469C266.517 452.184 265.253 453.16 265.253 454.696C265.253 456.168 266.357 457.128 268.053 457.128C269.301 457.128 270.373 456.536 270.805 455.608V457H272.085V451.8C272.085 450.008 270.773 448.808 268.677 448.808ZM268.245 456.04C267.221 456.04 266.565 455.512 266.565 454.68C266.565 453.736 267.349 453.16 268.549 453.16H270.805V453.368C270.805 455.032 269.861 456.04 268.245 456.04ZM276.619 457.128C278.395 457.128 279.579 456.2 279.579 454.76C279.579 451.064 274.859 453.224 274.859 451.048C274.859 450.344 275.483 449.896 276.427 449.896C277.163 449.896 278.171 450.248 278.283 451.272H279.531C279.435 449.784 278.235 448.808 276.459 448.808C274.763 448.808 273.611 449.704 273.611 451.064C273.611 454.552 278.299 452.392 278.299 454.792C278.299 455.448 277.627 456.008 276.619 456.008C275.451 456.008 274.747 455.448 274.635 454.408H273.403C273.531 456.088 274.747 457.128 276.619 457.128ZM283.975 457.128C285.751 457.128 286.935 456.2 286.935 454.76C286.935 451.064 282.215 453.224 282.215 451.048C282.215 450.344 282.839 449.896 283.783 449.896C284.519 449.896 285.527 450.248 285.639 451.272H286.887C286.791 449.784 285.591 448.808 283.815 448.808C282.119 448.808 280.967 449.704 280.967 451.064C280.967 454.552 285.655 452.392 285.655 454.792C285.655 455.448 284.983 456.008 283.975 456.008C282.807 456.008 282.103 455.448 281.991 454.408H280.759C280.887 456.088 282.103 457.128 283.975 457.128ZM295.474 448.936H294.194V453.288C294.194 454.856 293.218 455.96 291.826 455.96C290.61 455.96 289.81 455.032 289.81 453.656V448.936H288.53V453.864C288.53 455.832 289.714 457.128 291.538 457.128C292.786 457.128 293.778 456.568 294.194 455.448V457H295.474V448.936ZM301.929 450.072V448.936H300.905C299.721 448.936 299.049 449.464 298.713 450.568V448.936H297.433V457H298.713V453.448C298.713 451.544 299.177 450.072 300.809 450.072H301.929ZM308.677 454.408C308.421 455.416 307.589 455.992 306.277 455.992C304.757 455.992 303.653 454.808 303.557 453.144H309.861C309.877 453.032 309.893 452.76 309.893 452.584C309.893 450.44 308.485 448.808 306.133 448.808C303.765 448.808 302.293 450.552 302.293 452.92C302.293 455.224 303.893 457.128 306.277 457.128C308.277 457.128 309.701 456.056 309.973 454.408H308.677ZM306.133 449.896C307.573 449.896 308.485 450.76 308.581 452.12H303.621C303.861 450.696 304.773 449.896 306.133 449.896ZM314.179 457.128C315.955 457.128 317.139 456.2 317.139 454.76C317.139 451.064 312.419 453.224 312.419 451.048C312.419 450.344 313.043 449.896 313.987 449.896C314.723 449.896 315.731 450.248 315.843 451.272H317.091C316.995 449.784 315.795 448.808 314.019 448.808C312.323 448.808 311.171 449.704 311.171 451.064C311.171 454.552 315.859 452.392 315.859 454.792C315.859 455.448 315.187 456.008 314.179 456.008C313.011 456.008 312.307 455.448 312.195 454.408H310.963C311.091 456.088 312.307 457.128 314.179 457.128ZM326.019 457.128C328.419 457.128 330.131 455.384 330.131 452.968C330.131 450.536 328.419 448.808 326.019 448.808C323.635 448.808 321.923 450.536 321.923 452.968C321.923 455.384 323.635 457.128 326.019 457.128ZM326.019 455.976C324.371 455.976 323.235 454.728 323.235 452.968C323.235 451.208 324.371 449.96 326.019 449.96C327.683 449.96 328.819 451.208 328.819 452.968C328.819 454.728 327.683 455.976 326.019 455.976ZM332.404 446.36V448.936H330.724V450.072H332.404V454.472C332.404 456.04 333.396 457 334.932 457H336.164V455.864H334.98C334.196 455.864 333.684 455.336 333.684 454.44V450.072H336.164V448.936H333.684V446.36H332.404ZM337.568 457H338.848V452.648C338.848 451.08 339.84 449.976 341.216 449.976C342.432 449.976 343.232 450.904 343.232 452.28V457H344.512V452.072C344.512 450.104 343.328 448.808 341.504 448.808C340.272 448.808 339.264 449.368 338.848 450.488V445.624H337.568V457ZM352.389 454.408C352.133 455.416 351.301 455.992 349.989 455.992C348.469 455.992 347.365 454.808 347.269 453.144H353.573C353.589 453.032 353.605 452.76 353.605 452.584C353.605 450.44 352.197 448.808 349.845 448.808C347.477 448.808 346.005 450.552 346.005 452.92C346.005 455.224 347.605 457.128 349.989 457.128C351.989 457.128 353.413 456.056 353.685 454.408H352.389ZM349.845 449.896C351.285 449.896 352.197 450.76 352.293 452.12H347.333C347.573 450.696 348.485 449.896 349.845 449.896ZM359.664 450.072V448.936H358.64C357.456 448.936 356.784 449.464 356.448 450.568V448.936H355.168V457H356.448V453.448C356.448 451.544 356.912 450.072 358.544 450.072H359.664ZM76.2085 470.36V472.936H74.5285V474.072H76.2085V478.472C76.2085 480.04 77.2005 481 78.7365 481H79.9685V479.864H78.7845C78.0005 479.864 77.4885 479.336 77.4885 478.44V474.072H79.9685V472.936H77.4885V470.36H76.2085ZM85.6958 474.072V472.936H84.6718C83.4878 472.936 82.8158 473.464 82.4798 474.568V472.936H81.1998V481H82.4798V477.448C82.4798 475.544 82.9438 474.072 84.5758 474.072H85.6958ZM89.7379 472.808C87.9299 472.808 86.4579 473.96 86.3139 475.512H87.5299C87.5939 474.632 88.5219 473.896 89.7059 473.896C91.0819 473.896 91.8659 474.648 91.8659 475.752C91.8659 476.008 91.7059 476.184 91.3539 476.184H89.5299C87.5779 476.184 86.3139 477.16 86.3139 478.696C86.3139 480.168 87.4179 481.128 89.1139 481.128C90.3619 481.128 91.4339 480.536 91.8659 479.608V481H93.1459V475.8C93.1459 474.008 91.8339 472.808 89.7379 472.808ZM89.3059 480.04C88.2819 480.04 87.6259 479.512 87.6259 478.68C87.6259 477.736 88.4099 477.16 89.6099 477.16H91.8659V477.368C91.8659 479.032 90.9219 480.04 89.3059 480.04ZM96.7261 481H98.0541L101.014 472.936H99.6701L97.3821 479.4L95.0941 472.936H93.7661L96.7261 481ZM107.765 478.408C107.509 479.416 106.677 479.992 105.365 479.992C103.845 479.992 102.741 478.808 102.645 477.144H108.949C108.965 477.032 108.981 476.76 108.981 476.584C108.981 474.44 107.573 472.808 105.221 472.808C102.853 472.808 101.381 474.552 101.381 476.92C101.381 479.224 102.981 481.128 105.365 481.128C107.365 481.128 108.789 480.056 109.061 478.408H107.765ZM105.221 473.896C106.661 473.896 107.573 474.76 107.669 476.12H102.709C102.949 474.696 103.861 473.896 105.221 473.896ZM110.608 481H111.888V469.624H110.608V481ZM113.964 481H115.244V469.624H113.964V481ZM123.175 478.408C122.919 479.416 122.087 479.992 120.775 479.992C119.255 479.992 118.151 478.808 118.055 477.144H124.359C124.375 477.032 124.391 476.76 124.391 476.584C124.391 474.44 122.983 472.808 120.631 472.808C118.263 472.808 116.791 474.552 116.791 476.92C116.791 479.224 118.391 481.128 120.775 481.128C122.775 481.128 124.199 480.056 124.471 478.408H123.175ZM120.631 473.896C122.071 473.896 122.983 474.76 123.079 476.12H118.119C118.359 474.696 119.271 473.896 120.631 473.896ZM130.451 474.072V472.936H129.427C128.243 472.936 127.571 473.464 127.235 474.568V472.936H125.955V481H127.235V477.448C127.235 475.544 127.699 474.072 129.331 474.072H130.451ZM134.235 481.128C136.011 481.128 137.195 480.2 137.195 478.76C137.195 475.064 132.475 477.224 132.475 475.048C132.475 474.344 133.099 473.896 134.043 473.896C134.779 473.896 135.787 474.248 135.899 475.272H137.147C137.051 473.784 135.851 472.808 134.075 472.808C132.379 472.808 131.227 473.704 131.227 475.064C131.227 478.552 135.915 476.392 135.915 478.792C135.915 479.448 135.243 480.008 134.235 480.008C133.067 480.008 132.363 479.448 132.251 478.408H131.019C131.147 480.088 132.363 481.128 134.235 481.128ZM145.564 472.808C143.756 472.808 142.284 473.96 142.14 475.512H143.356C143.42 474.632 144.348 473.896 145.532 473.896C146.908 473.896 147.692 474.648 147.692 475.752C147.692 476.008 147.532 476.184 147.18 476.184H145.356C143.404 476.184 142.14 477.16 142.14 478.696C142.14 480.168 143.244 481.128 144.94 481.128C146.188 481.128 147.26 480.536 147.692 479.608V481H148.972V475.8C148.972 474.008 147.66 472.808 145.564 472.808ZM145.132 480.04C144.108 480.04 143.452 479.512 143.452 478.68C143.452 477.736 144.236 477.16 145.436 477.16H147.692V477.368C147.692 479.032 146.748 480.04 145.132 480.04ZM150.705 481H151.985V476.648C151.985 475.08 152.977 473.976 154.353 473.976C155.569 473.976 156.369 474.904 156.369 476.28V481H157.649V476.072C157.649 474.104 156.465 472.808 154.641 472.808C153.409 472.808 152.401 473.368 151.985 474.488V472.936H150.705V481ZM163.032 481.128C164.168 481.128 165.224 480.552 165.704 479.672V481H166.984V469.624H165.704V474.248C165.224 473.384 164.168 472.808 163.032 472.808C160.52 472.808 159.144 474.616 159.144 476.968C159.144 479.32 160.52 481.128 163.032 481.128ZM163.144 479.976C161.528 479.976 160.456 478.792 160.456 476.968C160.456 475.144 161.528 473.96 163.144 473.96C164.76 473.96 165.816 475.144 165.816 476.968C165.816 478.792 164.76 479.976 163.144 479.976ZM172.647 481H173.927V476.264C173.927 474.888 174.727 473.944 176.087 473.944C177.207 473.944 177.895 474.888 177.895 476.264V481H179.175V476.264C179.175 474.888 179.975 473.944 181.319 473.944C182.455 473.944 183.143 474.888 183.143 476.264V481H184.423V475.928C184.423 473.976 183.367 472.808 181.623 472.808C180.391 472.808 179.319 473.56 179.015 474.52C178.727 473.416 177.687 472.808 176.359 472.808C175.127 472.808 174.231 473.512 173.927 474.488V472.936H172.647V481ZM189.373 472.808C187.565 472.808 186.093 473.96 185.949 475.512H187.165C187.229 474.632 188.157 473.896 189.341 473.896C190.717 473.896 191.501 474.648 191.501 475.752C191.501 476.008 191.341 476.184 190.989 476.184H189.165C187.213 476.184 185.949 477.16 185.949 478.696C185.949 480.168 187.053 481.128 188.749 481.128C189.997 481.128 191.069 480.536 191.501 479.608V481H192.781V475.8C192.781 474.008 191.469 472.808 189.373 472.808ZM188.941 480.04C187.917 480.04 187.261 479.512 187.261 478.68C187.261 477.736 188.045 477.16 189.245 477.16H191.501V477.368C191.501 479.032 190.557 480.04 188.941 480.04ZM200.067 481H201.683L197.907 476.088L201.363 472.936H199.667L195.875 476.344V469.624H194.579V481H195.875V477.928L196.931 476.968L200.067 481ZM208.306 478.408C208.05 479.416 207.218 479.992 205.906 479.992C204.386 479.992 203.282 478.808 203.186 477.144H209.49C209.506 477.032 209.522 476.76 209.522 476.584C209.522 474.44 208.114 472.808 205.762 472.808C203.394 472.808 201.922 474.552 201.922 476.92C201.922 479.224 203.522 481.128 205.906 481.128C207.906 481.128 209.33 480.056 209.602 478.408H208.306ZM205.762 473.896C207.202 473.896 208.114 474.76 208.21 476.12H203.25C203.49 474.696 204.402 473.896 205.762 473.896ZM213.807 481.128C215.583 481.128 216.767 480.2 216.767 478.76C216.767 475.064 212.047 477.224 212.047 475.048C212.047 474.344 212.671 473.896 213.615 473.896C214.351 473.896 215.359 474.248 215.471 475.272H216.719C216.623 473.784 215.423 472.808 213.647 472.808C211.951 472.808 210.799 473.704 210.799 475.064C210.799 478.552 215.487 476.392 215.487 478.792C215.487 479.448 214.815 480.008 213.807 480.008C212.639 480.008 211.935 479.448 211.823 478.408H210.591C210.719 480.088 211.935 481.128 213.807 481.128ZM228.415 472.936H227.071L224.783 479.336L222.495 472.936H221.167L224.175 481.128L223.151 484.264H224.383L225.855 479.896L228.415 472.936ZM232.878 481.128C235.278 481.128 236.99 479.384 236.99 476.968C236.99 474.536 235.278 472.808 232.878 472.808C230.494 472.808 228.782 474.536 228.782 476.968C228.782 479.384 230.494 481.128 232.878 481.128ZM232.878 479.976C231.23 479.976 230.094 478.728 230.094 476.968C230.094 475.208 231.23 473.96 232.878 473.96C234.542 473.96 235.678 475.208 235.678 476.968C235.678 478.728 234.542 479.976 232.878 479.976ZM245.421 472.936H244.141V477.288C244.141 478.856 243.165 479.96 241.773 479.96C240.557 479.96 239.757 479.032 239.757 477.656V472.936H238.477V477.864C238.477 479.832 239.661 481.128 241.485 481.128C242.733 481.128 243.725 480.568 244.141 479.448V481H245.421V472.936ZM251.875 474.072V472.936H250.851C249.667 472.936 248.995 473.464 248.659 474.568V472.936H247.379V481H248.659V477.448C248.659 475.544 249.123 474.072 250.755 474.072H251.875ZM256.795 484.264H258.075V479.704C258.555 480.568 259.595 481.128 260.731 481.128C263.227 481.128 264.635 479.32 264.635 476.968C264.635 474.616 263.259 472.808 260.763 472.808C259.611 472.808 258.571 473.384 258.075 474.264V472.936H256.795V484.264ZM260.635 479.976C259.019 479.976 257.963 478.792 257.963 476.968C257.963 475.144 259.019 473.96 260.635 473.96C262.251 473.96 263.307 475.144 263.307 476.968C263.307 478.792 262.251 479.976 260.635 479.976ZM270.614 474.072V472.936H269.59C268.406 472.936 267.734 473.464 267.398 474.568V472.936H266.118V481H267.398V477.448C267.398 475.544 267.862 474.072 269.494 474.072H270.614ZM275.074 481.128C277.474 481.128 279.186 479.384 279.186 476.968C279.186 474.536 277.474 472.808 275.074 472.808C272.69 472.808 270.978 474.536 270.978 476.968C270.978 479.384 272.69 481.128 275.074 481.128ZM275.074 479.976C273.426 479.976 272.29 478.728 272.29 476.968C272.29 475.208 273.426 473.96 275.074 473.96C276.738 473.96 277.874 475.208 277.874 476.968C277.874 478.728 276.738 479.976 275.074 479.976ZM287.238 472.936H282.614V472.136C282.614 471.272 283.126 470.76 283.91 470.76H285.126V469.624H283.846C282.31 469.624 281.334 470.584 281.334 472.12V472.936H279.654V474.072H281.334V481H282.614V474.072H285.958V481H287.238V472.936ZM289.155 481H290.435V469.624H289.155V481ZM298.367 478.408C298.111 479.416 297.279 479.992 295.967 479.992C294.447 479.992 293.343 478.808 293.247 477.144H299.551C299.567 477.032 299.583 476.76 299.583 476.584C299.583 474.44 298.175 472.808 295.823 472.808C293.455 472.808 291.983 474.552 291.983 476.92C291.983 479.224 293.583 481.128 295.967 481.128C297.967 481.128 299.391 480.056 299.663 478.408H298.367ZM295.823 473.896C297.263 473.896 298.175 474.76 298.271 476.12H293.311C293.551 474.696 294.463 473.896 295.823 473.896ZM304.799 481H306.079V476.264C306.079 474.888 306.879 473.944 308.239 473.944C309.359 473.944 310.047 474.888 310.047 476.264V481H311.327V476.264C311.327 474.888 312.127 473.944 313.471 473.944C314.607 473.944 315.295 474.888 315.295 476.264V481H316.575V475.928C316.575 473.976 315.519 472.808 313.775 472.808C312.543 472.808 311.471 473.56 311.167 474.52C310.879 473.416 309.839 472.808 308.511 472.808C307.279 472.808 306.383 473.512 306.079 474.488V472.936H304.799V481ZM322.161 481.128C324.561 481.128 326.273 479.384 326.273 476.968C326.273 474.536 324.561 472.808 322.161 472.808C319.777 472.808 318.065 474.536 318.065 476.968C318.065 479.384 319.777 481.128 322.161 481.128ZM322.161 479.976C320.513 479.976 319.377 478.728 319.377 476.968C319.377 475.208 320.513 473.96 322.161 473.96C323.825 473.96 324.961 475.208 324.961 476.968C324.961 478.728 323.825 479.976 322.161 479.976ZM332.256 474.072V472.936H331.232C330.048 472.936 329.376 473.464 329.04 474.568V472.936H327.76V481H329.04V477.448C329.04 475.544 329.504 474.072 331.136 474.072H332.256ZM339.004 478.408C338.748 479.416 337.916 479.992 336.604 479.992C335.084 479.992 333.98 478.808 333.884 477.144H340.188C340.204 477.032 340.22 476.76 340.22 476.584C340.22 474.44 338.812 472.808 336.46 472.808C334.092 472.808 332.62 474.552 332.62 476.92C332.62 479.224 334.22 481.128 336.604 481.128C338.604 481.128 340.028 480.056 340.3 478.408H339.004ZM336.46 473.896C337.9 473.896 338.812 474.76 338.908 476.12H333.948C334.188 474.696 335.1 473.896 336.46 473.896ZM116.283 496.808C114.475 496.808 113.003 497.96 112.859 499.512H114.075C114.139 498.632 115.067 497.896 116.251 497.896C117.627 497.896 118.411 498.648 118.411 499.752C118.411 500.008 118.251 500.184 117.899 500.184H116.075C114.123 500.184 112.859 501.16 112.859 502.696C112.859 504.168 113.963 505.128 115.659 505.128C116.907 505.128 117.979 504.536 118.411 503.608V505H119.691V499.8C119.691 498.008 118.379 496.808 116.283 496.808ZM115.851 504.04C114.827 504.04 114.171 503.512 114.171 502.68C114.171 501.736 114.955 501.16 116.155 501.16H118.411V501.368C118.411 503.032 117.467 504.04 115.851 504.04ZM121.489 508.264H122.769V503.704C123.249 504.568 124.289 505.128 125.425 505.128C127.921 505.128 129.329 503.32 129.329 500.968C129.329 498.616 127.953 496.808 125.457 496.808C124.305 496.808 123.265 497.384 122.769 498.264V496.936H121.489V508.264ZM125.329 503.976C123.713 503.976 122.657 502.792 122.657 500.968C122.657 499.144 123.713 497.96 125.329 497.96C126.945 497.96 128.001 499.144 128.001 500.968C128.001 502.792 126.945 503.976 125.329 503.976ZM130.876 508.264H132.156V503.704C132.636 504.568 133.676 505.128 134.812 505.128C137.308 505.128 138.716 503.32 138.716 500.968C138.716 498.616 137.34 496.808 134.844 496.808C133.692 496.808 132.652 497.384 132.156 498.264V496.936H130.876V508.264ZM134.716 503.976C133.1 503.976 132.044 502.792 132.044 500.968C132.044 499.144 133.1 497.96 134.716 497.96C136.332 497.96 137.388 499.144 137.388 500.968C137.388 502.792 136.332 503.976 134.716 503.976ZM146.119 502.408C145.863 503.416 145.031 503.992 143.719 503.992C142.199 503.992 141.095 502.808 140.999 501.144H147.303C147.319 501.032 147.335 500.76 147.335 500.584C147.335 498.44 145.927 496.808 143.575 496.808C141.207 496.808 139.735 498.552 139.735 500.92C139.735 503.224 141.335 505.128 143.719 505.128C145.719 505.128 147.143 504.056 147.415 502.408H146.119ZM143.575 497.896C145.015 497.896 145.927 498.76 146.023 500.12H141.063C141.303 498.696 142.215 497.896 143.575 497.896ZM151.94 496.808C150.132 496.808 148.66 497.96 148.516 499.512H149.732C149.796 498.632 150.724 497.896 151.908 497.896C153.284 497.896 154.068 498.648 154.068 499.752C154.068 500.008 153.908 500.184 153.556 500.184H151.732C149.78 500.184 148.516 501.16 148.516 502.696C148.516 504.168 149.62 505.128 151.316 505.128C152.564 505.128 153.636 504.536 154.068 503.608V505H155.348V499.8C155.348 498.008 154.036 496.808 151.94 496.808ZM151.508 504.04C150.484 504.04 149.828 503.512 149.828 502.68C149.828 501.736 150.612 501.16 151.812 501.16H154.068V501.368C154.068 503.032 153.124 504.04 151.508 504.04ZM157.146 505H158.426V493.624H157.146V505ZM160.342 493.624V495.416H161.814V493.624H160.342ZM160.438 505H161.718V496.936H160.438V505ZM163.669 505H164.949V500.648C164.949 499.08 165.941 497.976 167.317 497.976C168.533 497.976 169.333 498.904 169.333 500.28V505H170.613V500.072C170.613 498.104 169.429 496.808 167.605 496.808C166.373 496.808 165.365 497.368 164.949 498.488V496.936H163.669V505ZM178.731 496.936V498.12C178.235 497.352 177.147 496.808 176.059 496.808C173.547 496.808 172.171 498.616 172.171 500.968C172.171 503.32 173.547 505.128 176.059 505.128C177.275 505.128 178.347 504.632 178.731 503.88V505.304C178.731 506.376 177.995 507.16 176.955 507.16H173.227V508.264H177.035C178.779 508.264 180.011 507.064 180.011 505.352V496.936H178.731ZM176.171 503.976C174.539 503.976 173.483 502.792 173.483 500.968C173.483 499.144 174.539 497.96 176.171 497.96C177.787 497.96 178.843 499.144 178.843 500.968C178.843 502.792 177.787 503.976 176.171 503.976ZM188.793 496.808C186.985 496.808 185.513 497.96 185.369 499.512H186.585C186.649 498.632 187.577 497.896 188.761 497.896C190.137 497.896 190.921 498.648 190.921 499.752C190.921 500.008 190.761 500.184 190.409 500.184H188.585C186.633 500.184 185.369 501.16 185.369 502.696C185.369 504.168 186.473 505.128 188.169 505.128C189.417 505.128 190.489 504.536 190.921 503.608V505H192.201V499.8C192.201 498.008 190.889 496.808 188.793 496.808ZM188.361 504.04C187.337 504.04 186.681 503.512 186.681 502.68C186.681 501.736 187.465 501.16 188.665 501.16H190.921V501.368C190.921 503.032 189.977 504.04 188.361 504.04ZM193.935 505H195.215V500.648C195.215 499.08 196.207 497.976 197.583 497.976C198.799 497.976 199.599 498.904 199.599 500.28V505H200.879V500.072C200.879 498.104 199.695 496.808 197.871 496.808C196.639 496.808 195.631 497.368 195.215 498.488V496.936H193.935V505ZM206.261 505.128C207.397 505.128 208.453 504.552 208.933 503.672V505H210.213V493.624H208.933V498.248C208.453 497.384 207.397 496.808 206.261 496.808C203.749 496.808 202.373 498.616 202.373 500.968C202.373 503.32 203.749 505.128 206.261 505.128ZM206.373 503.976C204.757 503.976 203.685 502.792 203.685 500.968C203.685 499.144 204.757 497.96 206.373 497.96C207.989 497.96 209.045 499.144 209.045 500.968C209.045 502.792 207.989 503.976 206.373 503.976ZM216.757 494.36V496.936H215.077V498.072H216.757V502.472C216.757 504.04 217.749 505 219.285 505H220.517V503.864H219.333C218.549 503.864 218.037 503.336 218.037 502.44V498.072H220.517V496.936H218.037V494.36H216.757ZM226.244 498.072V496.936H225.22C224.036 496.936 223.364 497.464 223.028 498.568V496.936H221.748V505H223.028V501.448C223.028 499.544 223.492 498.072 225.124 498.072H226.244ZM234.329 496.936H233.049V501.288C233.049 502.856 232.073 503.96 230.681 503.96C229.465 503.96 228.665 503.032 228.665 501.656V496.936H227.385V501.864C227.385 503.832 228.569 505.128 230.393 505.128C231.641 505.128 232.633 504.568 233.049 503.448V505H234.329V496.936ZM239.087 505.128C240.863 505.128 242.047 504.2 242.047 502.76C242.047 499.064 237.327 501.224 237.327 499.048C237.327 498.344 237.951 497.896 238.895 497.896C239.631 497.896 240.639 498.248 240.751 499.272H241.999C241.903 497.784 240.703 496.808 238.927 496.808C237.231 496.808 236.079 497.704 236.079 499.064C236.079 502.552 240.767 500.392 240.767 502.792C240.767 503.448 240.095 504.008 239.087 504.008C237.919 504.008 237.215 503.448 237.103 502.408H235.871C235.999 504.088 237.215 505.128 239.087 505.128ZM244.413 494.36V496.936H242.733V498.072H244.413V502.472C244.413 504.04 245.405 505 246.941 505H248.173V503.864H246.989C246.205 503.864 245.693 503.336 245.693 502.44V498.072H248.173V496.936H245.693V494.36H244.413ZM249.181 500.488H255.021V499.368H249.181V500.488ZM258.269 505H259.501L261.469 498.584L263.453 505H264.685L267.133 496.936H265.837L264.061 503.336L262.109 496.936H260.861L258.877 503.336L257.101 496.936H255.821L258.269 505ZM271.748 505.128C274.148 505.128 275.86 503.384 275.86 500.968C275.86 498.536 274.148 496.808 271.748 496.808C269.364 496.808 267.652 498.536 267.652 500.968C267.652 503.384 269.364 505.128 271.748 505.128ZM271.748 503.976C270.1 503.976 268.964 502.728 268.964 500.968C268.964 499.208 270.1 497.96 271.748 497.96C273.412 497.96 274.548 499.208 274.548 500.968C274.548 502.728 273.412 503.976 271.748 503.976ZM282.499 494.36V502.472C282.499 504.04 283.491 505 285.027 505H286.259V503.864H285.075C284.291 503.864 283.779 503.336 283.779 502.44V498.072H286.259V496.936H283.779V494.36H282.499ZM281.763 498.072V496.936H280.819C279.635 496.936 278.963 497.464 278.627 498.568V496.936H277.347V505H278.627V501.448C278.627 499.544 279.091 498.072 280.723 498.072H281.763ZM287.657 505H288.937V500.648C288.937 499.08 289.929 497.976 291.305 497.976C292.521 497.976 293.321 498.904 293.321 500.28V505H294.601V500.072C294.601 498.104 293.417 496.808 291.593 496.808C290.361 496.808 289.353 497.368 288.937 498.488V493.624H287.657V505ZM302.692 496.936H301.348L299.06 503.336L296.772 496.936H295.444L298.452 505.128L297.428 508.264H298.66L300.132 503.896L302.692 496.936Z" fill="#192431"/>
<path d="M52.8313 703H53.8993L50.5513 694.6H49.6273L46.2793 703H47.3473L48.2233 700.732H51.9673L52.8313 703ZM48.5713 699.82L50.0953 695.86L51.6073 699.82H48.5713ZM54.8283 703H55.7883V694.468H54.8283V703ZM57.465 703H58.425V694.468H57.465V703ZM62.8411 694.468V695.812H63.9451V694.468H62.8411ZM62.9131 703H63.8731V696.952H62.9131V703ZM66.1161 695.02V696.952H64.8561V697.804H66.1161V701.104C66.1161 702.28 66.8601 703 68.0121 703H68.9361V702.148H68.0481C67.4601 702.148 67.0761 701.752 67.0761 701.08V697.804H68.9361V696.952H67.0761V695.02H66.1161ZM73.4989 695.02V696.952H72.2389V697.804H73.4989V701.104C73.4989 702.28 74.2429 703 75.3949 703H76.3189V702.148H75.4309C74.8429 702.148 74.4589 701.752 74.4589 701.08V697.804H76.3189V696.952H74.4589V695.02H73.4989ZM79.4914 696.856C78.1354 696.856 77.0314 697.72 76.9234 698.884H77.8354C77.8834 698.224 78.5794 697.672 79.4674 697.672C80.4994 697.672 81.0874 698.236 81.0874 699.064C81.0874 699.256 80.9674 699.388 80.7034 699.388H79.3354C77.8714 699.388 76.9234 700.12 76.9234 701.272C76.9234 702.376 77.7514 703.096 79.0234 703.096C79.9594 703.096 80.7634 702.652 81.0874 701.956V703H82.0474V699.1C82.0474 697.756 81.0634 696.856 79.4914 696.856ZM79.1674 702.28C78.3994 702.28 77.9074 701.884 77.9074 701.26C77.9074 700.552 78.4954 700.12 79.3954 700.12H81.0874V700.276C81.0874 701.524 80.3794 702.28 79.1674 702.28ZM87.6318 703H88.8438L86.0118 699.316L88.6038 696.952H87.3318L84.4878 699.508V694.468H83.5158V703H84.4878V700.696L85.2798 699.976L87.6318 703ZM93.9312 701.056C93.7392 701.812 93.1152 702.244 92.1312 702.244C90.9912 702.244 90.1632 701.356 90.0912 700.108H94.8192C94.8312 700.024 94.8432 699.82 94.8432 699.688C94.8432 698.08 93.7872 696.856 92.0232 696.856C90.2472 696.856 89.1432 698.164 89.1432 699.94C89.1432 701.668 90.3432 703.096 92.1312 703.096C93.6312 703.096 94.6992 702.292 94.9032 701.056H93.9312ZM92.0232 697.672C93.1032 697.672 93.7872 698.32 93.8592 699.34H90.1392C90.3192 698.272 91.0032 697.672 92.0232 697.672ZM98.1772 703.096C99.5092 703.096 100.397 702.4 100.397 701.32C100.397 698.548 96.8572 700.168 96.8572 698.536C96.8572 698.008 97.3252 697.672 98.0332 697.672C98.5852 697.672 99.3412 697.936 99.4252 698.704H100.361C100.289 697.588 99.3892 696.856 98.0572 696.856C96.7852 696.856 95.9212 697.528 95.9212 698.548C95.9212 701.164 99.4372 699.544 99.4372 701.344C99.4372 701.836 98.9332 702.256 98.1772 702.256C97.3012 702.256 96.7732 701.836 96.6892 701.056H95.7652C95.8612 702.316 96.7732 703.096 98.1772 703.096ZM104.501 694.468V695.812H105.605V694.468H104.501ZM104.573 703H105.533V696.952H104.573V703ZM109.216 703.096C110.548 703.096 111.436 702.4 111.436 701.32C111.436 698.548 107.896 700.168 107.896 698.536C107.896 698.008 108.364 697.672 109.072 697.672C109.624 697.672 110.38 697.936 110.464 698.704H111.4C111.328 697.588 110.428 696.856 109.096 696.856C107.824 696.856 106.96 697.528 106.96 698.548C106.96 701.164 110.476 699.544 110.476 701.344C110.476 701.836 109.972 702.256 109.216 702.256C108.34 702.256 107.812 701.836 107.728 701.056H106.804C106.9 702.316 107.812 703.096 109.216 703.096ZM117.952 696.856C116.596 696.856 115.492 697.72 115.384 698.884H116.296C116.344 698.224 117.04 697.672 117.928 697.672C118.96 697.672 119.548 698.236 119.548 699.064C119.548 699.256 119.428 699.388 119.164 699.388H117.796C116.332 699.388 115.384 700.12 115.384 701.272C115.384 702.376 116.212 703.096 117.484 703.096C118.42 703.096 119.224 702.652 119.548 701.956V703H120.508V699.1C120.508 697.756 119.524 696.856 117.952 696.856ZM117.628 702.28C116.86 702.28 116.368 701.884 116.368 701.26C116.368 700.552 116.956 700.12 117.856 700.12H119.548V700.276C119.548 701.524 118.84 702.28 117.628 702.28ZM126.888 703.096C128.22 703.096 129.108 702.4 129.108 701.32C129.108 698.548 125.568 700.168 125.568 698.536C125.568 698.008 126.036 697.672 126.744 697.672C127.296 697.672 128.052 697.936 128.136 698.704H129.072C129 697.588 128.1 696.856 126.768 696.856C125.496 696.856 124.632 697.528 124.632 698.548C124.632 701.164 128.148 699.544 128.148 701.344C128.148 701.836 127.644 702.256 126.888 702.256C126.012 702.256 125.484 701.836 125.4 701.056H124.476C124.572 702.316 125.484 703.096 126.888 703.096ZM130.353 694.468V695.812H131.457V694.468H130.353ZM130.425 703H131.385V696.952H130.425V703ZM132.968 703H133.928V699.448C133.928 698.416 134.528 697.708 135.548 697.708C136.388 697.708 136.904 698.416 136.904 699.448V703H137.864V699.448C137.864 698.416 138.464 697.708 139.472 697.708C140.324 697.708 140.84 698.416 140.84 699.448V703H141.8V699.196C141.8 697.732 141.008 696.856 139.7 696.856C138.776 696.856 137.972 697.42 137.744 698.14C137.528 697.312 136.748 696.856 135.752 696.856C134.828 696.856 134.156 697.384 133.928 698.116V696.952H132.968V703ZM143.434 705.448H144.394V702.028C144.754 702.676 145.534 703.096 146.386 703.096C148.258 703.096 149.314 701.74 149.314 699.976C149.314 698.212 148.282 696.856 146.41 696.856C145.546 696.856 144.766 697.288 144.394 697.948V696.952H143.434V705.448ZM146.314 702.232C145.102 702.232 144.31 701.344 144.31 699.976C144.31 698.608 145.102 697.72 146.314 697.72C147.526 697.72 148.318 698.608 148.318 699.976C148.318 701.344 147.526 702.232 146.314 702.232ZM150.594 703H151.554V694.468H150.594V703ZM157.623 701.056C157.431 701.812 156.807 702.244 155.823 702.244C154.683 702.244 153.855 701.356 153.783 700.108H158.511C158.523 700.024 158.535 699.82 158.535 699.688C158.535 698.08 157.479 696.856 155.715 696.856C153.939 696.856 152.835 698.164 152.835 699.94C152.835 701.668 154.035 703.096 155.823 703.096C157.323 703.096 158.391 702.292 158.595 701.056H157.623ZM155.715 697.672C156.795 697.672 157.479 698.32 157.551 699.34H153.831C154.011 698.272 154.695 697.672 155.715 697.672ZM164.271 703H165.267L167.487 696.952H166.479L164.763 701.8L163.047 696.952H162.051L164.271 703ZM168.357 694.468V695.812H169.461V694.468H168.357ZM168.429 703H169.389V696.952H168.429V703ZM173.54 703.096C174.392 703.096 175.184 702.664 175.544 702.004V703H176.504V694.468H175.544V697.936C175.184 697.288 174.392 696.856 173.54 696.856C171.656 696.856 170.624 698.212 170.624 699.976C170.624 701.74 171.656 703.096 173.54 703.096ZM173.624 702.232C172.412 702.232 171.608 701.344 171.608 699.976C171.608 698.608 172.412 697.72 173.624 697.72C174.836 697.72 175.628 698.608 175.628 699.976C175.628 701.344 174.836 702.232 173.624 702.232ZM182.572 701.056C182.38 701.812 181.756 702.244 180.772 702.244C179.632 702.244 178.804 701.356 178.732 700.108H183.46C183.472 700.024 183.484 699.82 183.484 699.688C183.484 698.08 182.428 696.856 180.664 696.856C178.888 696.856 177.784 698.164 177.784 699.94C177.784 701.668 178.984 703.096 180.772 703.096C182.272 703.096 183.34 702.292 183.544 701.056H182.572ZM180.664 697.672C181.744 697.672 182.428 698.32 182.5 699.34H178.78C178.96 698.272 179.644 697.672 180.664 697.672ZM187.5 703.096C189.3 703.096 190.584 701.788 190.584 699.976C190.584 698.152 189.3 696.856 187.5 696.856C185.712 696.856 184.428 698.152 184.428 699.976C184.428 701.788 185.712 703.096 187.5 703.096ZM187.5 702.232C186.264 702.232 185.412 701.296 185.412 699.976C185.412 698.656 186.264 697.72 187.5 697.72C188.748 697.72 189.6 698.656 189.6 699.976C189.6 701.296 188.748 702.232 187.5 702.232ZM191.636 701.872V703H192.704V701.872H191.636ZM197.411 703H199.883C202.235 703 204.071 701.476 204.071 698.8C204.071 696.124 202.235 694.6 199.883 694.6H197.411V703ZM198.431 702.076V695.524H199.859C201.491 695.524 203.003 696.484 203.003 698.8C203.003 701.116 201.491 702.076 199.859 702.076H198.431ZM208.09 703.096C209.89 703.096 211.174 701.788 211.174 699.976C211.174 698.152 209.89 696.856 208.09 696.856C206.302 696.856 205.018 698.152 205.018 699.976C205.018 701.788 206.302 703.096 208.09 703.096ZM208.09 702.232C206.854 702.232 206.002 701.296 206.002 699.976C206.002 698.656 206.854 697.72 208.09 697.72C209.338 697.72 210.19 698.656 210.19 699.976C210.19 701.296 209.338 702.232 208.09 702.232ZM212.409 703H213.369V699.736C213.369 698.56 214.113 697.732 215.145 697.732C216.057 697.732 216.657 698.428 216.657 699.46V703H217.617V699.304C217.617 697.828 216.729 696.856 215.361 696.856C214.437 696.856 213.681 697.276 213.369 698.116V696.952H212.409V703ZM218.759 696.316V697.144H218.987C219.863 697.144 220.403 696.592 220.403 695.572V694.504H219.443V695.536C219.443 696.052 219.239 696.316 218.927 696.316H218.759ZM222.292 695.02V696.952H221.032V697.804H222.292V701.104C222.292 702.28 223.036 703 224.188 703H225.112V702.148H224.224C223.636 702.148 223.252 701.752 223.252 701.08V697.804H225.112V696.952H223.252V695.02H222.292ZM230.275 703H231.199L232.675 698.188L234.163 703H235.087L236.923 696.952H235.951L234.619 701.752L233.155 696.952H232.219L230.731 701.752L229.399 696.952H228.439L230.275 703ZM240.504 703.096C242.304 703.096 243.588 701.788 243.588 699.976C243.588 698.152 242.304 696.856 240.504 696.856C238.716 696.856 237.432 698.152 237.432 699.976C237.432 701.788 238.716 703.096 240.504 703.096ZM240.504 702.232C239.268 702.232 238.416 701.296 238.416 699.976C238.416 698.656 239.268 697.72 240.504 697.72C241.752 697.72 242.604 698.656 242.604 699.976C242.604 701.296 241.752 702.232 240.504 702.232ZM248.195 697.804V696.952H247.427C246.539 696.952 246.035 697.348 245.783 698.176V696.952H244.823V703H245.783V700.336C245.783 698.908 246.131 697.804 247.355 697.804H248.195ZM252.59 697.804V696.952H251.822C250.934 696.952 250.43 697.348 250.178 698.176V696.952H249.218V703H250.178V700.336C250.178 698.908 250.526 697.804 251.75 697.804H252.59ZM258.412 696.952H257.404L255.688 701.752L253.972 696.952H252.976L255.232 703.096L254.464 705.448H255.388L256.492 702.172L258.412 696.952ZM258.316 703.6V704.44H258.796C259.672 704.44 260.212 703.888 260.212 702.868V701.776H259.252V702.82C259.252 703.348 259.06 703.6 258.736 703.6H258.316ZM265.358 695.02V696.952H264.098V697.804H265.358V701.104C265.358 702.28 266.102 703 267.254 703H268.178V702.148H267.29C266.702 702.148 266.318 701.752 266.318 701.08V697.804H268.178V696.952H266.318V695.02H265.358ZM269.352 703H270.312V699.736C270.312 698.56 271.056 697.732 272.088 697.732C273 697.732 273.6 698.428 273.6 699.46V703H274.56V699.304C274.56 697.828 273.672 696.856 272.304 696.856C271.38 696.856 270.624 697.276 270.312 698.116V694.468H269.352V703ZM276.075 694.468V695.812H277.179V694.468H276.075ZM276.147 703H277.107V696.952H276.147V703ZM280.79 703.096C282.122 703.096 283.01 702.4 283.01 701.32C283.01 698.548 279.47 700.168 279.47 698.536C279.47 698.008 279.938 697.672 280.646 697.672C281.198 697.672 281.954 697.936 282.038 698.704H282.974C282.902 697.588 282.002 696.856 280.67 696.856C279.398 696.856 278.534 697.528 278.534 698.548C278.534 701.164 282.05 699.544 282.05 701.344C282.05 701.836 281.546 702.256 280.79 702.256C279.914 702.256 279.386 701.836 279.302 701.056H278.378C278.474 702.316 279.386 703.096 280.79 703.096ZM288.771 703H289.767L291.987 696.952H290.979L289.263 701.8L287.547 696.952H286.551L288.771 703ZM292.857 694.468V695.812H293.961V694.468H292.857ZM292.929 703H293.889V696.952H292.929V703ZM298.04 703.096C298.892 703.096 299.684 702.664 300.044 702.004V703H301.004V694.468H300.044V697.936C299.684 697.288 298.892 696.856 298.04 696.856C296.156 696.856 295.124 698.212 295.124 699.976C295.124 701.74 296.156 703.096 298.04 703.096ZM298.124 702.232C296.912 702.232 296.108 701.344 296.108 699.976C296.108 698.608 296.912 697.72 298.124 697.72C299.336 697.72 300.128 698.608 300.128 699.976C300.128 701.344 299.336 702.232 298.124 702.232ZM307.072 701.056C306.88 701.812 306.256 702.244 305.272 702.244C304.132 702.244 303.304 701.356 303.232 700.108H307.96C307.972 700.024 307.984 699.82 307.984 699.688C307.984 698.08 306.928 696.856 305.164 696.856C303.388 696.856 302.284 698.164 302.284 699.94C302.284 701.668 303.484 703.096 305.272 703.096C306.772 703.096 307.84 702.292 308.044 701.056H307.072ZM305.164 697.672C306.244 697.672 306.928 698.32 307 699.34H303.28C303.46 698.272 304.144 697.672 305.164 697.672ZM312 703.096C313.8 703.096 315.084 701.788 315.084 699.976C315.084 698.152 313.8 696.856 312 696.856C310.212 696.856 308.928 698.152 308.928 699.976C308.928 701.788 310.212 703.096 312 703.096ZM312 702.232C310.764 702.232 309.912 701.296 309.912 699.976C309.912 698.656 310.764 697.72 312 697.72C313.248 697.72 314.1 698.656 314.1 699.976C314.1 701.296 313.248 702.232 312 702.232ZM320.439 703H321.363L322.839 698.188L324.327 703H325.251L327.087 696.952H326.115L324.783 701.752L323.319 696.952H322.383L320.895 701.752L319.563 696.952H318.603L320.439 703ZM328.025 694.468V695.812H329.129V694.468H328.025ZM328.097 703H329.057V696.952H328.097V703ZM330.688 703H331.648V694.468H330.688V703ZM333.324 703H334.284V694.468H333.324V703ZM338.772 703H339.732V699.736C339.732 698.56 340.476 697.732 341.508 697.732C342.42 697.732 343.02 698.428 343.02 699.46V703H343.98V699.304C343.98 697.828 343.092 696.856 341.724 696.856C340.8 696.856 340.044 697.276 339.732 698.116V696.952H338.772V703ZM350.009 701.056C349.817 701.812 349.193 702.244 348.209 702.244C347.069 702.244 346.241 701.356 346.169 700.108H350.897C350.909 700.024 350.921 699.82 350.921 699.688C350.921 698.08 349.865 696.856 348.101 696.856C346.325 696.856 345.221 698.164 345.221 699.94C345.221 701.668 346.421 703.096 348.209 703.096C349.709 703.096 350.777 702.292 350.981 701.056H350.009ZM348.101 697.672C349.181 697.672 349.865 698.32 349.937 699.34H346.217C346.397 698.272 347.081 697.672 348.101 697.672ZM353.599 703H354.595L356.815 696.952H355.807L354.091 701.8L352.375 696.952H351.379L353.599 703ZM361.998 701.056C361.806 701.812 361.182 702.244 360.198 702.244C359.058 702.244 358.23 701.356 358.158 700.108H362.886C362.898 700.024 362.91 699.82 362.91 699.688C362.91 698.08 361.854 696.856 360.09 696.856C358.314 696.856 357.21 698.164 357.21 699.94C357.21 701.668 358.41 703.096 360.198 703.096C361.698 703.096 362.766 702.292 362.97 701.056H361.998ZM360.09 697.672C361.17 697.672 361.854 698.32 361.926 699.34H358.206C358.386 698.272 359.07 697.672 360.09 697.672ZM367.574 697.804V696.952H366.806C365.918 696.952 365.414 697.348 365.162 698.176V696.952H364.202V703H365.162V700.336C365.162 698.908 365.51 697.804 366.734 697.804H367.574ZM137.105 719.096C138.989 719.096 140.021 717.74 140.021 715.976C140.021 714.212 138.989 712.856 137.105 712.856C136.253 712.856 135.473 713.288 135.101 713.936V710.468H134.141V719H135.101V718.004C135.473 718.664 136.265 719.096 137.105 719.096ZM137.021 718.232C135.809 718.232 135.017 717.344 135.017 715.976C135.017 714.608 135.809 713.72 137.021 713.72C138.245 713.72 139.037 714.608 139.037 715.976C139.037 717.344 138.245 718.232 137.021 718.232ZM145.693 717.056C145.501 717.812 144.877 718.244 143.893 718.244C142.753 718.244 141.925 717.356 141.853 716.108H146.581C146.593 716.024 146.605 715.82 146.605 715.688C146.605 714.08 145.549 712.856 143.785 712.856C142.009 712.856 140.905 714.164 140.905 715.94C140.905 717.668 142.105 719.096 143.893 719.096C145.393 719.096 146.461 718.292 146.665 717.056H145.693ZM143.785 713.672C144.865 713.672 145.549 714.32 145.621 715.34H141.901C142.081 714.272 142.765 713.672 143.785 713.672ZM153.325 719.096C154.177 719.096 154.969 718.664 155.329 718.004V719H156.289V710.468H155.329V713.936C154.969 713.288 154.177 712.856 153.325 712.856C151.441 712.856 150.409 714.212 150.409 715.976C150.409 717.74 151.441 719.096 153.325 719.096ZM153.409 718.232C152.197 718.232 151.393 717.344 151.393 715.976C151.393 714.608 152.197 713.72 153.409 713.72C154.621 713.72 155.413 714.608 155.413 715.976C155.413 717.344 154.621 718.232 153.409 718.232ZM157.845 710.468V711.812H158.949V710.468H157.845ZM157.917 719H158.877V712.952H157.917V719ZM162.56 719.096C163.892 719.096 164.78 718.4 164.78 717.32C164.78 714.548 161.24 716.168 161.24 714.536C161.24 714.008 161.708 713.672 162.416 713.672C162.968 713.672 163.724 713.936 163.808 714.704H164.744C164.672 713.588 163.772 712.856 162.44 712.856C161.168 712.856 160.304 713.528 160.304 714.548C160.304 717.164 163.82 715.544 163.82 717.344C163.82 717.836 163.316 718.256 162.56 718.256C161.684 718.256 161.156 717.836 161.072 717.056H160.148C160.244 718.316 161.156 719.096 162.56 719.096ZM166.145 721.448H167.105V718.028C167.465 718.676 168.245 719.096 169.097 719.096C170.969 719.096 172.025 717.74 172.025 715.976C172.025 714.212 170.993 712.856 169.121 712.856C168.257 712.856 167.477 713.288 167.105 713.948V712.952H166.145V721.448ZM169.025 718.232C167.813 718.232 167.021 717.344 167.021 715.976C167.021 714.608 167.813 713.72 169.025 713.72C170.237 713.72 171.029 714.608 171.029 715.976C171.029 717.344 170.237 718.232 169.025 718.232ZM173.305 719H174.265V710.468H173.305V719ZM178.14 712.856C176.784 712.856 175.68 713.72 175.572 714.884H176.484C176.532 714.224 177.228 713.672 178.116 713.672C179.148 713.672 179.736 714.236 179.736 715.064C179.736 715.256 179.616 715.388 179.352 715.388H177.984C176.52 715.388 175.572 716.12 175.572 717.272C175.572 718.376 176.4 719.096 177.672 719.096C178.608 719.096 179.412 718.652 179.736 717.956V719H180.696V715.1C180.696 713.756 179.712 712.856 178.14 712.856ZM177.816 718.28C177.048 718.28 176.556 717.884 176.556 717.26C176.556 716.552 177.144 716.12 178.044 716.12H179.736V716.276C179.736 717.524 179.028 718.28 177.816 718.28ZM186.717 712.952H185.709L183.993 717.752L182.277 712.952H181.281L183.537 719.096L182.769 721.448H183.693L184.797 718.172L186.717 712.952ZM191.9 717.056C191.708 717.812 191.084 718.244 190.1 718.244C188.96 718.244 188.132 717.356 188.06 716.108H192.788C192.8 716.024 192.812 715.82 192.812 715.688C192.812 714.08 191.756 712.856 189.992 712.856C188.216 712.856 187.112 714.164 187.112 715.94C187.112 717.668 188.312 719.096 190.1 719.096C191.6 719.096 192.668 718.292 192.872 717.056H191.9ZM189.992 713.672C191.072 713.672 191.756 714.32 191.828 715.34H188.108C188.288 714.272 188.972 713.672 189.992 713.672ZM196.673 719.096C197.525 719.096 198.317 718.664 198.677 718.004V719H199.637V710.468H198.677V713.936C198.317 713.288 197.525 712.856 196.673 712.856C194.789 712.856 193.757 714.212 193.757 715.976C193.757 717.74 194.789 719.096 196.673 719.096ZM196.757 718.232C195.545 718.232 194.741 717.344 194.741 715.976C194.741 714.608 195.545 713.72 196.757 713.72C197.969 713.72 198.761 714.608 198.761 715.976C198.761 717.344 197.969 718.232 196.757 718.232ZM206.848 719.096C208.648 719.096 209.932 717.788 209.932 715.976C209.932 714.152 208.648 712.856 206.848 712.856C205.06 712.856 203.776 714.152 203.776 715.976C203.776 717.788 205.06 719.096 206.848 719.096ZM206.848 718.232C205.612 718.232 204.76 717.296 204.76 715.976C204.76 714.656 205.612 713.72 206.848 713.72C208.096 713.72 208.948 714.656 208.948 715.976C208.948 717.296 208.096 718.232 206.848 718.232ZM211.167 719H212.127V715.736C212.127 714.56 212.871 713.732 213.903 713.732C214.815 713.732 215.415 714.428 215.415 715.46V719H216.375V715.304C216.375 713.828 215.487 712.856 214.119 712.856C213.195 712.856 212.439 713.276 212.127 714.116V712.952H211.167V719ZM225.623 712.952H224.615L222.899 717.752L221.183 712.952H220.187L222.443 719.096L221.675 721.448H222.599L223.703 718.172L225.623 712.952ZM229.09 719.096C230.89 719.096 232.174 717.788 232.174 715.976C232.174 714.152 230.89 712.856 229.09 712.856C227.302 712.856 226.018 714.152 226.018 715.976C226.018 717.788 227.302 719.096 229.09 719.096ZM229.09 718.232C227.854 718.232 227.002 717.296 227.002 715.976C227.002 714.656 227.854 713.72 229.09 713.72C230.338 713.72 231.19 714.656 231.19 715.976C231.19 717.296 230.338 718.232 229.09 718.232ZM238.617 712.952H237.657V716.216C237.657 717.392 236.925 718.22 235.881 718.22C234.969 718.22 234.369 717.524 234.369 716.492V712.952H233.409V716.648C233.409 718.124 234.297 719.096 235.665 719.096C236.601 719.096 237.345 718.676 237.657 717.836V719H238.617V712.952ZM243.578 713.804V712.952H242.81C241.922 712.952 241.418 713.348 241.166 714.176V712.952H240.206V719H241.166V716.336C241.166 714.908 241.514 713.804 242.738 713.804H243.578ZM247.508 721.448H248.468V718.028C248.828 718.676 249.608 719.096 250.46 719.096C252.332 719.096 253.388 717.74 253.388 715.976C253.388 714.212 252.356 712.856 250.484 712.856C249.62 712.856 248.84 713.288 248.468 713.948V712.952H247.508V721.448ZM250.388 718.232C249.176 718.232 248.384 717.344 248.384 715.976C248.384 714.608 249.176 713.72 250.388 713.72C251.6 713.72 252.392 714.608 252.392 715.976C252.392 717.344 251.6 718.232 250.388 718.232ZM257.992 713.804V712.952H257.224C256.336 712.952 255.832 713.348 255.58 714.176V712.952H254.62V719H255.58V716.336C255.58 714.908 255.928 713.804 257.152 713.804H257.992ZM261.457 719.096C263.257 719.096 264.541 717.788 264.541 715.976C264.541 714.152 263.257 712.856 261.457 712.856C259.669 712.856 258.385 714.152 258.385 715.976C258.385 717.788 259.669 719.096 261.457 719.096ZM261.457 718.232C260.221 718.232 259.369 717.296 259.369 715.976C259.369 714.656 260.221 713.72 261.457 713.72C262.705 713.72 263.557 714.656 263.557 715.976C263.557 717.296 262.705 718.232 261.457 718.232ZM270.7 712.952H267.232V712.352C267.232 711.704 267.616 711.32 268.204 711.32H269.116V710.468H268.156C267.004 710.468 266.272 711.188 266.272 712.34V712.952H265.012V713.804H266.272V719H267.232V713.804H269.74V719H270.7V712.952ZM272.258 719H273.218V710.468H272.258V719ZM279.287 717.056C279.095 717.812 278.471 718.244 277.487 718.244C276.347 718.244 275.519 717.356 275.447 716.108H280.175C280.187 716.024 280.199 715.82 280.199 715.688C280.199 714.08 279.143 712.856 277.379 712.856C275.603 712.856 274.499 714.164 274.499 715.94C274.499 717.668 275.699 719.096 277.487 719.096C278.987 719.096 280.055 718.292 280.259 717.056H279.287ZM277.379 713.672C278.459 713.672 279.143 714.32 279.215 715.34H275.495C275.675 714.272 276.359 713.672 277.379 713.672Z" fill="#76808C"/>
<rect x="20" y="746" width="374" height="52" rx="26" fill="#0098D6"/>
<path d="M152.153 778H154.217L158.297 766.8H156.185L153.177 775.392L150.201 766.8H148.073L152.153 778ZM163.705 775.312C163.497 776.08 162.841 776.496 161.833 776.496C160.585 776.496 159.753 775.664 159.609 774.368H165.561C165.577 774.208 165.593 773.968 165.593 773.696C165.593 771.776 164.377 769.808 161.673 769.808C159.033 769.808 157.721 771.808 157.721 773.936C157.721 776.048 159.193 778.128 161.833 778.128C163.817 778.128 165.321 777.024 165.625 775.312H163.705ZM161.673 771.28C162.841 771.28 163.545 772.048 163.625 773.072H159.657C159.865 771.856 160.569 771.28 161.673 771.28ZM171.926 771.584V769.936H170.982C169.942 769.936 169.318 770.336 168.918 771.36V769.936H166.95V778H168.918V774.192C168.918 772.656 169.414 771.584 170.662 771.584H171.926ZM172.98 766.48V768.672H175.092V766.48H172.98ZM173.06 778H175.028V769.936H173.06V778ZM177.786 778H179.754V771.584H182.106V769.936H179.754V769.28C179.754 768.576 180.202 768.144 180.89 768.144H182.106V766.48H180.666C178.922 766.48 177.786 767.552 177.786 769.184V769.936H176.202V771.584H177.786V778ZM190.349 769.936H188.333L186.477 775.472L184.605 769.936H182.605L185.549 778L184.413 781.264H186.285L187.533 777.616L190.349 769.936ZM194.857 778H196.825V773.376C196.825 772.24 197.481 771.488 198.521 771.488C199.465 771.488 200.057 772.24 200.057 773.376V778H202.009V773.376C202.009 772.24 202.665 771.488 203.721 771.488C204.665 771.488 205.257 772.24 205.257 773.376V778H207.209V772.784C207.209 771.072 206.089 769.808 204.345 769.808C203.065 769.808 202.041 770.512 201.673 771.344C201.321 770.352 200.441 769.808 199.161 769.808C198.025 769.808 197.225 770.384 196.825 771.2V769.936H194.857V778ZM215.614 769.936H213.598L211.742 775.472L209.87 769.936H207.87L210.814 778L209.678 781.264H211.55L212.798 777.616L215.614 769.936ZM220.234 781.264H222.186V777.12C222.634 777.744 223.498 778.128 224.474 778.128C226.842 778.128 228.362 776.432 228.362 773.968C228.362 771.504 226.938 769.808 224.618 769.808C223.546 769.808 222.666 770.256 222.186 770.944V769.936H220.234V781.264ZM224.25 776.432C222.922 776.432 222.058 775.456 222.058 773.968C222.058 772.48 222.922 771.504 224.25 771.504C225.546 771.504 226.41 772.48 226.41 773.968C226.41 775.456 225.546 776.432 224.25 776.432ZM234.661 771.584V769.936H233.717C232.677 769.936 232.053 770.336 231.653 771.36V769.936H229.685V778H231.653V774.192C231.653 772.656 232.149 771.584 233.397 771.584H234.661ZM239.289 778.128C241.737 778.128 243.497 776.368 243.497 773.968C243.497 771.568 241.737 769.808 239.289 769.808C236.825 769.808 235.065 771.568 235.065 773.968C235.065 776.368 236.825 778.128 239.289 778.128ZM239.289 776.432C237.945 776.432 237.049 775.424 237.049 773.968C237.049 772.512 237.945 771.504 239.289 771.504C240.617 771.504 241.513 772.512 241.513 773.968C241.513 775.424 240.617 776.432 239.289 776.432ZM252.478 769.936H247.598V769.28C247.598 768.576 248.046 768.144 248.734 768.144H249.95V766.48H248.51C246.766 766.48 245.63 767.552 245.63 769.184V769.936H244.046V771.584H245.63V778H247.598V771.584H250.526V778H252.478V769.936ZM254.281 778H256.233V766.48H254.281V778ZM263.659 775.312C263.451 776.08 262.795 776.496 261.787 776.496C260.539 776.496 259.707 775.664 259.563 774.368H265.515C265.531 774.208 265.547 773.968 265.547 773.696C265.547 771.776 264.331 769.808 261.627 769.808C258.987 769.808 257.675 771.808 257.675 773.936C257.675 776.048 259.147 778.128 261.787 778.128C263.771 778.128 265.275 777.024 265.579 775.312H263.659ZM261.627 771.28C262.795 771.28 263.499 772.048 263.579 773.072H259.611C259.819 771.856 260.523 771.28 261.627 771.28Z" fill="white"/>
<rect x="20.5" y="814.5" width="373" height="51" rx="25.5" stroke="#192431"/>
<path d="M163.314 846H165.442V834.8H163.314V846ZM167.244 837.344V838.912H167.788C169.292 838.912 170.172 838 170.172 836.496V834.672H168.22V836.304C168.22 836.96 167.98 837.344 167.5 837.344H167.244ZM171.953 846H173.905V834.48H171.953V846ZM175.89 846H177.842V834.48H175.89V846ZM186.624 846.128C187.6 846.128 188.496 845.696 188.96 844.992V846H190.912V834.48H188.96V838.912C188.496 838.256 187.648 837.808 186.592 837.808C184.208 837.808 182.784 839.504 182.784 841.968C182.784 844.432 184.208 846.128 186.624 846.128ZM186.912 844.432C185.6 844.432 184.736 843.456 184.736 841.968C184.736 840.48 185.6 839.504 186.912 839.504C188.224 839.504 189.088 840.48 189.088 841.968C189.088 843.456 188.224 844.432 186.912 844.432ZM196.57 846.128C199.018 846.128 200.778 844.368 200.778 841.968C200.778 839.568 199.018 837.808 196.57 837.808C194.106 837.808 192.346 839.568 192.346 841.968C192.346 844.368 194.106 846.128 196.57 846.128ZM196.57 844.432C195.226 844.432 194.33 843.424 194.33 841.968C194.33 840.512 195.226 839.504 196.57 839.504C197.898 839.504 198.794 840.512 198.794 841.968C198.794 843.424 197.898 844.432 196.57 844.432ZM205.527 834.48V836.672H207.639V834.48H205.527ZM205.607 846H207.575V837.936H205.607V846ZM210.333 835.504V837.936H208.749V839.584H210.333V843.184C210.333 844.976 211.485 846 213.245 846H214.541V844.336H213.469C212.733 844.336 212.301 843.92 212.301 843.104V839.584H214.541V837.936H212.301V835.504H210.333ZM219.406 846H221.358V834.48H219.406V846ZM226.449 837.808C224.353 837.808 222.993 839.056 222.897 840.656H224.657C224.689 839.936 225.313 839.28 226.353 839.28C227.393 839.28 228.001 839.84 228.001 840.624C228.001 840.944 227.809 841.168 227.409 841.168H225.921C224.113 841.168 222.897 842.144 222.897 843.712C222.897 845.104 223.985 846.128 225.585 846.128C226.737 846.128 227.665 845.6 228.001 844.8V846H229.937V840.816C229.937 838.992 228.497 837.808 226.449 837.808ZM226.049 844.672C225.313 844.672 224.801 844.256 224.801 843.632C224.801 842.928 225.361 842.464 226.193 842.464H228.001V842.592C228.001 843.808 227.281 844.672 226.049 844.672ZM232.427 835.504V837.936H230.843V839.584H232.427V843.184C232.427 844.976 233.579 846 235.339 846H236.635V844.336H235.563C234.827 844.336 234.395 843.92 234.395 843.104V839.584H236.635V837.936H234.395V835.504H232.427ZM243.284 843.312C243.076 844.08 242.42 844.496 241.412 844.496C240.164 844.496 239.332 843.664 239.188 842.368H245.14C245.156 842.208 245.172 841.968 245.172 841.696C245.172 839.776 243.956 837.808 241.252 837.808C238.612 837.808 237.3 839.808 237.3 841.936C237.3 844.048 238.772 846.128 241.412 846.128C243.396 846.128 244.9 845.024 245.204 843.312H243.284ZM241.252 839.28C242.42 839.28 243.124 840.048 243.204 841.072H239.236C239.444 839.856 240.148 839.28 241.252 839.28ZM251.504 839.584V837.936H250.56C249.52 837.936 248.896 838.336 248.496 839.36V837.936H246.528V846H248.496V842.192C248.496 840.656 248.992 839.584 250.24 839.584H251.504Z" fill="#192431"/>
<path d="M30.3332 95.6667L43.6665 82.3334" stroke="#192431" stroke-width="2.66667" stroke-linecap="round"/>
<path d="M30.3332 82.3339L43.6665 95.6673" stroke="#192431" stroke-width="2.66667" stroke-linecap="round"/>
</g>
<defs>
<radialGradient id="paint0_radial_213_24285" cx="0" cy="0" r="1" gradientUnits="userSpaceOnUse" gradientTransform="translate(207.461 284.5) rotate(90) scale(229.912 385.194)">
<stop stop-color="white" stop-opacity="0.2"/>
<stop offset="0.802083" stop-color="white" stop-opacity="0"/>
</radialGradient>
<clipPath id="clip0_213_24285">
<rect width="414" height="896" rx="40" fill="white"/>
</clipPath>
</defs>
</svg>
